{
.appVersion = "1346";
customParameters = (
{
name = note;
value = "Typographie conçue par Éléonore Fines à partir de la grille architecturale de la façade de l’ÉSAD Orléans. Créée pour l’identité visuelle des journées portes ouvertes de l’ÉSAD Orléans 2020 par Antoine Buon, Laëtitia Cuchet, Hugo du Roure, Éléonore Fines, Mégane Lazou et Lucie Sahuquet.";
}
);
date = "2020-07-17 10:19:56 +0000";
designer = "Éléonore Fines";
designerURL = eleonorefines.fr;
familyName = Facade;
featurePrefixes = (
{
automatic = 1;
code = "languagesystem DFLT dflt;\012";
name = Languagesystems;
}
);
features = (
{
code = "lookupflag IgnoreMarks;\012sub f f i by f_f_i;\012sub f f by f_f;\012sub f i by f_i;\012sub f h by f_h;\012sub icircumflex b by icircumflex_b;\012sub icircumflex f by icircumflex_f;\012sub icircumflex h by icircumflex_h;\012sub icircumflex k by icircumflex_k;\012sub icircumflex l by icircumflex_l;\012sub icircumflex t by icircumflex_t;\012sub t t by t_t;\012";
name = dlig;
},
{
automatic = 1;
code = "lookupflag IgnoreMarks;\012sub f f i by f_f_i;\012sub f f by f_f;\012sub f i by f_i;\012";
name = liga;
}
);
fontMaster = (
{
ascender = 784;
capHeight = 784;
descender = -261;
id = "8A89AD82-2B0C-40F6-97CA-3AF9ED9FF3A8";
weightValue = 330;
xHeight = 570;
},
{
ascender = 784;
capHeight = 784;
descender = -261;
iconName = SemiBold;
id = "18468F94-9FC9-4171-B83A-16111EF84EF0";
userData = {
GSCornerRadius = 15;
};
weight = Bold;
weightValue = 331;
xHeight = 570;
}
);
glyphs = (
{
glyphname = A;
lastChange = "2020-04-04 12:52:09 +0000";
layers = (
{
layerId = "8A89AD82-2B0C-40F6-97CA-3AF9ED9FF3A8";
paths = (
{
closed = 1;
nodes = (
"70 784 LINE",
"70 0 LINE",
"153 0 LINE",
"153 522 LINE",
"400 522 LINE",
"400 0 LINE",
"450 0 LINE",
"450 784 LINE"
);
},
{
closed = 1;
nodes = (
"153 736 LINE",
"400 736 LINE",
"400 570 LINE",
"153 570 LINE"
);
}
);
width = 520;
},
{
layerId = "18468F94-9FC9-4171-B83A-16111EF84EF0";
paths = (
{
closed = 1;
nodes = (
"70 784 LINE",
"70 0 LINE",
"155 0 LINE",
"155 520 LINE",
"400 520 LINE",
"400 0 LINE",
"450 0 LINE",
"450 784 LINE"
);
},
{
closed = 1;
nodes = (
"155 734 LINE",
"400 734 LINE",
"400 570 LINE",
"155 570 LINE"
);
}
);
width = 520;
}
);
unicode = 0041;
},
{
glyphname = Aacute;
lastChange = "2020-06-27 13:39:32 +0000";
layers = (
{
layerId = "8A89AD82-2B0C-40F6-97CA-3AF9ED9FF3A8";
paths = (
{
closed = 1;
nodes = (
"70 784 LINE",
"70 0 LINE",
"153 0 LINE",
"153 522 LINE",
"400 522 LINE",
"400 0 LINE",
"450 0 LINE",
"450 784 LINE"
);
},
{
closed = 1;
nodes = (
"153 736 LINE",
"400 736 LINE",
"400 570 LINE",
"153 570 LINE"
);
},
{
closed = 1;
nodes = (
"450 950 LINE",
"450 998 LINE",
"260 998 LINE",
"260 950 LINE"
);
}
);
width = 520;
},
{
layerId = "18468F94-9FC9-4171-B83A-16111EF84EF0";
paths = (
{
closed = 1;
nodes = (
"70 784 LINE",
"70 0 LINE",
"155 0 LINE",
"155 520 LINE",
"400 520 LINE",
"400 0 LINE",
"450 0 LINE",
"450 784 LINE"
);
},
{
closed = 1;
nodes = (
"155 734 LINE",
"400 734 LINE",
"400 570 LINE",
"155 570 LINE"
);
},
{
closed = 1;
nodes = (
"450 948 LINE",
"450 998 LINE",
"260 998 LINE",
"260 948 LINE"
);
}
);
width = 520;
}
);
unicode = 00C1;
},
{
glyphname = Acircumflex;
lastChange = "2020-06-27 16:02:15 +0000";
layers = (
{
layerId = "8A89AD82-2B0C-40F6-97CA-3AF9ED9FF3A8";
paths = (
{
closed = 1;
nodes = (
"70 784 LINE",
"70 0 LINE",
"153 0 LINE",
"153 522 LINE",
"400 522 LINE",
"400 0 LINE",
"450 0 LINE",
"450 784 LINE"
);
},
{
closed = 1;
nodes = (
"153 736 LINE",
"400 736 LINE",
"400 570 LINE",
"153 570 LINE"
);
},
{
closed = 1;
nodes = (
"450 950 LINE",
"450 998 LINE",
"70 998 LINE",
"70 950 LINE"
);
}
);
width = 520;
},
{
layerId = "18468F94-9FC9-4171-B83A-16111EF84EF0";
paths = (
{
closed = 1;
nodes = (
"70 784 LINE",
"70 0 LINE",
"155 0 LINE",
"155 520 LINE",
"400 520 LINE",
"400 0 LINE",
"450 0 LINE",
"450 784 LINE"
);
},
{
closed = 1;
nodes = (
"155 734 LINE",
"400 734 LINE",
"400 570 LINE",
"155 570 LINE"
);
},
{
closed = 1;
nodes = (
"450 948 LINE",
"450 998 LINE",
"70 998 LINE",
"70 948 LINE"
);
}
);
width = 520;
}
);
unicode = 00C2;
},
{
glyphname = Adieresis;
lastChange = "2020-06-27 13:42:00 +0000";
layers = (
{
layerId = "8A89AD82-2B0C-40F6-97CA-3AF9ED9FF3A8";
paths = (
{
closed = 1;
nodes = (
"70 784 LINE",
"70 0 LINE",
"153 0 LINE",
"153 522 LINE",
"400 522 LINE",
"400 0 LINE",
"450 0 LINE",
"450 784 LINE"
);
},
{
closed = 1;
nodes = (
"153 736 LINE",
"400 736 LINE",
"400 570 LINE",
"153 570 LINE"
);
},
{
closed = 1;
nodes = (
"301 998 LINE",
"301 950 LINE",
"384 950 LINE",
"384 998 LINE"
);
},
{
closed = 1;
nodes = (
"135 998 LINE",
"135 950 LINE",
"218 950 LINE",
"218 998 LINE"
);
}
);
width = 520;
},
{
layerId = "18468F94-9FC9-4171-B83A-16111EF84EF0";
paths = (
{
closed = 1;
nodes = (
"70 784 LINE",
"70 0 LINE",
"155 0 LINE",
"155 520 LINE",
"400 520 LINE",
"400 0 LINE",
"450 0 LINE",
"450 784 LINE"
);
},
{
closed = 1;
nodes = (
"155 734 LINE",
"400 734 LINE",
"400 570 LINE",
"155 570 LINE"
);
},
{
closed = 1;
nodes = (
"302 998 LINE",
"302 948 LINE",
"387 948 LINE",
"387 998 LINE"
);
},
{
closed = 1;
nodes = (
"132 998 LINE",
"132 948 LINE",
"217 948 LINE",
"217 998 LINE"
);
}
);
width = 520;
}
);
unicode = 00C4;
},
{
glyphname = Agrave;
lastChange = "2020-06-27 13:40:44 +0000";
layers = (
{
layerId = "8A89AD82-2B0C-40F6-97CA-3AF9ED9FF3A8";
paths = (
{
closed = 1;
nodes = (
"70 784 LINE",
"70 0 LINE",
"153 0 LINE",
"153 522 LINE",
"400 522 LINE",
"400 0 LINE",
"450 0 LINE",
"450 784 LINE"
);
},
{
closed = 1;
nodes = (
"153 736 LINE",
"400 736 LINE",
"400 570 LINE",
"153 570 LINE"
);
},
{
closed = 1;
nodes = (
"260 950 LINE",
"260 998 LINE",
"70 998 LINE",
"70 950 LINE"
);
}
);
width = 520;
},
{
layerId = "18468F94-9FC9-4171-B83A-16111EF84EF0";
paths = (
{
closed = 1;
nodes = (
"70 784 LINE",
"70 0 LINE",
"155 0 LINE",
"155 520 LINE",
"400 520 LINE",
"400 0 LINE",
"450 0 LINE",
"450 784 LINE"
);
},
{
closed = 1;
nodes = (
"155 734 LINE",
"400 734 LINE",
"400 570 LINE",
"155 570 LINE"
);
},
{
closed = 1;
nodes = (
"260 948 LINE",
"260 998 LINE",
"70 998 LINE",
"70 948 LINE"
);
}
);
width = 520;
}
);
unicode = 00C0;
},
{
glyphname = Atilde;
lastChange = "2020-06-29 15:32:49 +0000";
layers = (
{
layerId = "8A89AD82-2B0C-40F6-97CA-3AF9ED9FF3A8";
paths = (
{
closed = 1;
nodes = (
"70 784 LINE",
"70 0 LINE",
"153 0 LINE",
"153 522 LINE",
"400 522 LINE",
"400 0 LINE",
"450 0 LINE",
"450 784 LINE"
);
},
{
closed = 1;
nodes = (
"153 736 LINE",
"400 736 LINE",
"400 570 LINE",
"153 570 LINE"
);
},
{
closed = 1;
nodes = (
"169 903 LINE",
"169 958 LINE",
"252 958 LINE",
"252 903 LINE",
"365 903 LINE",
"365 998 LINE",
"350 998 LINE",
"350 943 LINE",
"267 943 LINE",
"267 998 LINE",
"154 998 LINE",
"154 903 LINE"
);
}
);
width = 520;
},
{
layerId = "18468F94-9FC9-4171-B83A-16111EF84EF0";
paths = (
{
closed = 1;
nodes = (
"70 784 LINE",
"70 0 LINE",
"155 0 LINE",
"155 520 LINE",
"400 520 LINE",
"400 0 LINE",
"450 0 LINE",
"450 784 LINE"
);
},
{
closed = 1;
nodes = (
"155 734 LINE",
"400 734 LINE",
"400 570 LINE",
"155 570 LINE"
);
},
{
closed = 1;
nodes = (
"167 903 LINE",
"167 958 LINE",
"252 958 LINE",
"252 903 LINE",
"367 903 LINE",
"367 998 LINE",
"352 998 LINE",
"352 943 LINE",
"267 943 LINE",
"267 998 LINE",
"152 998 LINE",
"152 903 LINE"
);
}
);
width = 520;
}
);
unicode = 00C3;
},
{
glyphname = AE;
lastChange = "2020-06-29 15:24:52 +0000";
layers = (
{
layerId = "8A89AD82-2B0C-40F6-97CA-3AF9ED9FF3A8";
paths = (
{
closed = 1;
nodes = (
"153 0 LINE",
"153 522 LINE",
"400 522 LINE",
"400 0 LINE",
"730 0 LINE",
"730 48 LINE",
"483 48 LINE",
"483 522 LINE",
"730 522 LINE",
"730 570 LINE",
"483 570 LINE",
"483 736 LINE",
"730 736 LINE",
"730 784 LINE",
"70 784 LINE",
"70 0 LINE"
);
},
{
closed = 1;
nodes = (
"153 736 LINE",
"400 736 LINE",
"400 570 LINE",
"153 570 LINE"
);
}
);
width = 800;
},
{
layerId = "18468F94-9FC9-4171-B83A-16111EF84EF0";
paths = (
{
closed = 1;
nodes = (
"155 0 LINE",
"155 520 LINE",
"400 520 LINE",
"400 0 LINE",
"730 0 LINE",
"730 50 LINE",
"485 50 LINE",
"485 520 LINE",
"730 520 LINE",
"730 570 LINE",
"485 570 LINE",
"485 734 LINE",
"730 734 LINE",
"730 784 LINE",
"70 784 LINE",
"70 0 LINE"
);
},
{
closed = 1;
nodes = (
"155 734 LINE",
"400 734 LINE",
"400 570 LINE",
"155 570 LINE"
);
}
);
width = 800;
}
);
unicode = 00C6;
},
{
glyphname = B;
lastChange = "2020-04-03 15:03:06 +0000";
layers = (
{
layerId = "8A89AD82-2B0C-40F6-97CA-3AF9ED9FF3A8";
paths = (
{
closed = 1;
nodes = (
"450 0 LINE",
"450 570 LINE",
"400 570 LINE",
"400 784 LINE",
"70 784 LINE",
"70 0 LINE"
);
},
{
closed = 1;
nodes = (
"153 520 LINE",
"400 520 LINE",
"400 48 LINE",
"153 48 LINE"
);
},
{
closed = 1;
nodes = (
"153 736 LINE",
"385 736 LINE",
"385 570 LINE",
"153 570 LINE"
);
}
);
width = 520;
},
{
layerId = "18468F94-9FC9-4171-B83A-16111EF84EF0";
paths = (
{
closed = 1;
nodes = (
"450 0 LINE",
"450 570 LINE",
"400 570 LINE",
"400 784 LINE",
"70 784 LINE",
"70 0 LINE"
);
},
{
closed = 1;
nodes = (
"155 520 LINE",
"400 520 LINE",
"400 50 LINE",
"155 50 LINE"
);
},
{
closed = 1;
nodes = (
"155 734 LINE",
"360 734 LINE",
"360 570 LINE",
"155 570 LINE"
);
}
);
width = 520;
}
);
unicode = 0042;
},
{
glyphname = C;
lastChange = "2020-04-03 15:02:58 +0000";
layers = (
{
layerId = "8A89AD82-2B0C-40F6-97CA-3AF9ED9FF3A8";
paths = (
{
closed = 1;
nodes = (
"400 0 LINE",
"400 48 LINE",
"153 48 LINE",
"153 736 LINE",
"400 736 LINE",
"400 784 LINE",
"70 784 LINE",
"70 0 LINE"
);
}
);
width = 470;
},
{
layerId = "18468F94-9FC9-4171-B83A-16111EF84EF0";
paths = (
{
closed = 1;
nodes = (
"400 0 LINE",
"400 50 LINE",
"155 50 LINE",
"155 734 LINE",
"400 734 LINE",
"400 784 LINE",
"70 784 LINE",
"70 0 LINE"
);
}
);
width = 470;
}
);
unicode = 0043;
},
{
glyphname = Ccedilla;
lastChange = "2020-06-29 15:39:45 +0000";
layers = (
{
layerId = "8A89AD82-2B0C-40F6-97CA-3AF9ED9FF3A8";
paths = (
{
closed = 1;
nodes = (
"205 0 LINE",
"205 -145 LINE",
"265 -145 LINE",
"265 0 LINE",
"400 0 LINE",
"400 48 LINE",
"153 48 LINE",
"153 736 LINE",
"400 736 LINE",
"400 784 LINE",
"70 784 LINE",
"70 0 LINE"
);
}
);
width = 470;
},
{
layerId = "18468F94-9FC9-4171-B83A-16111EF84EF0";
paths = (
{
closed = 1;
nodes = (
"205 0 LINE",
"205 -145 LINE",
"265 -145 LINE",
"265 0 LINE",
"400 0 LINE",
"400 50 LINE",
"155 50 LINE",
"155 734 LINE",
"400 734 LINE",
"400 784 LINE",
"70 784 LINE",
"70 0 LINE"
);
}
);
width = 470;
}
);
unicode = 00C7;
},
{
glyphname = D;
lastChange = "2020-04-05 11:51:37 +0000";
layers = (
{
layerId = "8A89AD82-2B0C-40F6-97CA-3AF9ED9FF3A8";
paths = (
{
closed = 1;
nodes = (
"70 0 LINE",
"350 0 LINE",
"350 98 LINE",
"450 98 LINE",
"450 784 LINE",
"70 784 LINE"
);
},
{
closed = 1;
nodes = (
"153 736 LINE",
"400 736 LINE",
"400 113 LINE",
"335 113 LINE",
"335 48 LINE",
"153 48 LINE"
);
}
);
width = 520;
},
{
layerId = "18468F94-9FC9-4171-B83A-16111EF84EF0";
paths = (
{
closed = 1;
nodes = (
"70 0 LINE",
"350 0 LINE",
"350 98 LINE",
"450 98 LINE",
"450 784 LINE",
"70 784 LINE"
);
},
{
closed = 1;
nodes = (
"155 734 LINE",
"400 734 LINE",
"400 138 LINE",
"310 138 LINE",
"310 50 LINE",
"155 50 LINE"
);
}
);
width = 520;
}
);
unicode = 0044;
},
{
glyphname = E;
lastChange = "2020-04-03 15:16:36 +0000";
layers = (
{
layerId = "8A89AD82-2B0C-40F6-97CA-3AF9ED9FF3A8";
paths = (
{
closed = 1;
nodes = (
"400 0 LINE",
"400 48 LINE",
"153 48 LINE",
"153 522 LINE",
"400 522 LINE",
"400 570 LINE",
"153 570 LINE",
"153 736 LINE",
"400 736 LINE",
"400 784 LINE",
"70 784 LINE",
"70 0 LINE"
);
}
);
width = 470;
},
{
layerId = "18468F94-9FC9-4171-B83A-16111EF84EF0";
paths = (
{
closed = 1;
nodes = (
"400 0 LINE",
"400 50 LINE",
"155 50 LINE",
"155 520 LINE",
"400 520 LINE",
"400 570 LINE",
"155 570 LINE",
"155 734 LINE",
"400 734 LINE",
"400 784 LINE",
"70 784 LINE",
"70 0 LINE"
);
}
);
width = 470;
}
);
unicode = 0045;
},
{
glyphname = Eacute;
lastChange = "2020-05-30 14:31:42 +0000";
layers = (
{
layerId = "8A89AD82-2B0C-40F6-97CA-3AF9ED9FF3A8";
paths = (
{
closed = 1;
nodes = (
"400 0 LINE",
"400 48 LINE",
"153 48 LINE",
"153 522 LINE",
"400 522 LINE",
"400 570 LINE",
"153 570 LINE",
"153 736 LINE",
"400 736 LINE",
"400 784 LINE",
"70 784 LINE",
"70 0 LINE"
);
},
{
closed = 1;
nodes = (
"400 950 LINE",
"400 998 LINE",
"235 998 LINE",
"235 950 LINE"
);
}
);
width = 470;
},
{
layerId = "18468F94-9FC9-4171-B83A-16111EF84EF0";
paths = (
{
closed = 1;
nodes = (
"400 0 LINE",
"400 50 LINE",
"155 50 LINE",
"155 520 LINE",
"400 520 LINE",
"400 570 LINE",
"155 570 LINE",
"155 734 LINE",
"400 734 LINE",
"400 784 LINE",
"70 784 LINE",
"70 0 LINE"
);
},
{
closed = 1;
nodes = (
"400 948 LINE",
"400 998 LINE",
"235 998 LINE",
"235 948 LINE"
);
}
);
width = 470;
}
);
unicode = 00C9;
},
{
glyphname = Ecircumflex;
lastChange = "2020-05-30 14:31:35 +0000";
layers = (
{
layerId = "8A89AD82-2B0C-40F6-97CA-3AF9ED9FF3A8";
paths = (
{
closed = 1;
nodes = (
"400 0 LINE",
"400 48 LINE",
"153 48 LINE",
"153 522 LINE",
"400 522 LINE",
"400 570 LINE",
"153 570 LINE",
"153 736 LINE",
"400 736 LINE",
"400 784 LINE",
"70 784 LINE",
"70 0 LINE"
);
},
{
closed = 1;
nodes = (
"400 950 LINE",
"400 998 LINE",
"70 998 LINE",
"70 950 LINE"
);
}
);
width = 470;
},
{
layerId = "18468F94-9FC9-4171-B83A-16111EF84EF0";
paths = (
{
closed = 1;
nodes = (
"400 0 LINE",
"400 50 LINE",
"155 50 LINE",
"155 520 LINE",
"400 520 LINE",
"400 570 LINE",
"155 570 LINE",
"155 734 LINE",
"400 734 LINE",
"400 784 LINE",
"70 784 LINE",
"70 0 LINE"
);
},
{
closed = 1;
nodes = (
"400 948 LINE",
"400 998 LINE",
"70 998 LINE",
"70 948 LINE"
);
}
);
width = 470;
}
);
unicode = 00CA;
},
{
glyphname = Edieresis;
lastChange = "2020-05-30 14:32:27 +0000";
layers = (
{
layerId = "8A89AD82-2B0C-40F6-97CA-3AF9ED9FF3A8";
paths = (
{
closed = 1;
nodes = (
"400 0 LINE",
"400 48 LINE",
"153 48 LINE",
"153 522 LINE",
"400 522 LINE",
"400 570 LINE",
"153 570 LINE",
"153 736 LINE",
"400 736 LINE",
"400 784 LINE",
"70 784 LINE",
"70 0 LINE"
);
},
{
closed = 1;
nodes = (
"276 998 LINE",
"276 950 LINE",
"359 950 LINE",
"359 998 LINE"
);
},
{
closed = 1;
nodes = (
"110 998 LINE",
"110 950 LINE",
"193 950 LINE",
"193 998 LINE"
);
}
);
width = 470;
},
{
layerId = "18468F94-9FC9-4171-B83A-16111EF84EF0";
paths = (
{
closed = 1;
nodes = (
"400 0 LINE",
"400 50 LINE",
"155 50 LINE",
"155 520 LINE",
"400 520 LINE",
"400 570 LINE",
"155 570 LINE",
"155 734 LINE",
"400 734 LINE",
"400 784 LINE",
"70 784 LINE",
"70 0 LINE"
);
},
{
closed = 1;
nodes = (
"278 998 LINE",
"278 948 LINE",
"363 948 LINE",
"363 998 LINE"
);
},
{
closed = 1;
nodes = (
"108 998 LINE",
"108 948 LINE",
"193 948 LINE",
"193 998 LINE"
);
}
);
width = 470;
}
);
unicode = 00CB;
},
{
glyphname = Egrave;
lastChange = "2020-05-30 14:32:08 +0000";
layers = (
{
layerId = "8A89AD82-2B0C-40F6-97CA-3AF9ED9FF3A8";
paths = (
{
closed = 1;
nodes = (
"400 0 LINE",
"400 48 LINE",
"153 48 LINE",
"153 522 LINE",
"400 522 LINE",
"400 570 LINE",
"153 570 LINE",
"153 736 LINE",
"400 736 LINE",
"400 784 LINE",
"70 784 LINE",
"70 0 LINE"
);
},
{
closed = 1;
nodes = (
"235 950 LINE",
"235 998 LINE",
"70 998 LINE",
"70 950 LINE"
);
}
);
width = 470;
},
{
layerId = "18468F94-9FC9-4171-B83A-16111EF84EF0";
paths = (
{
closed = 1;
nodes = (
"400 0 LINE",
"400 50 LINE",
"155 50 LINE",
"155 520 LINE",
"400 520 LINE",
"400 570 LINE",
"155 570 LINE",
"155 734 LINE",
"400 734 LINE",
"400 784 LINE",
"70 784 LINE",
"70 0 LINE"
);
},
{
closed = 1;
nodes = (
"235 948 LINE",
"235 998 LINE",
"70 998 LINE",
"70 948 LINE"
);
}
);
width = 470;
}
);
unicode = 00C8;
},
{
glyphname = F;
lastChange = "2020-06-29 15:41:10 +0000";
layers = (
{
layerId = "8A89AD82-2B0C-40F6-97CA-3AF9ED9FF3A8";
paths = (
{
closed = 1;
nodes = (
"153 0 LINE",
"153 522 LINE",
"400 522 LINE",
"400 570 LINE",
"153 570 LINE",
"153 736 LINE",
"400 736 LINE",
"400 784 LINE",
"70 784 LINE",
"70 0 LINE"
);
}
);
width = 430;
},
{
layerId = "18468F94-9FC9-4171-B83A-16111EF84EF0";
paths = (
{
closed = 1;
nodes = (
"155 0 LINE",
"155 520 LINE",
"400 520 LINE",
"400 570 LINE",
"155 570 LINE",
"155 734 LINE",
"400 734 LINE",
"400 784 LINE",
"70 784 LINE",
"70 0 LINE"
);
}
);
width = 430;
}
);
unicode = 0046;
},
{
glyphname = G;
lastChange = "2020-04-03 15:03:27 +0000";
layers = (
{
layerId = "8A89AD82-2B0C-40F6-97CA-3AF9ED9FF3A8";
paths = (
{
closed = 1;
nodes = (
"400 0 LINE",
"400 570 LINE",
"234 570 LINE",
"234 522 LINE",
"385 522 LINE",
"385 48 LINE",
"153 48 LINE",
"153 736 LINE",
"400 736 LINE",
"400 784 LINE",
"70 784 LINE",
"70 0 LINE"
);
}
);
width = 470;
},
{
layerId = "18468F94-9FC9-4171-B83A-16111EF84EF0";
paths = (
{
closed = 1;
nodes = (
"400 0 LINE",
"400 570 LINE",
"230 570 LINE",
"230 520 LINE",
"360 520 LINE",
"360 50 LINE",
"155 50 LINE",
"155 734 LINE",
"400 734 LINE",
"400 784 LINE",
"70 784 LINE",
"70 0 LINE"
);
}
);
width = 470;
}
);
unicode = 0047;
},
{
glyphname = H;
lastChange = "2020-04-05 11:47:02 +0000";
layers = (
{
layerId = "8A89AD82-2B0C-40F6-97CA-3AF9ED9FF3A8";
paths = (
{
closed = 1;
nodes = (
"153 0 LINE",
"153 522 LINE",
"400 522 LINE",
"400 0 LINE",
"450 0 LINE",
"450 784 LINE",
"400 784 LINE",
"400 570 LINE",
"153 570 LINE",
"153 784 LINE",
"70 784 LINE",
"70 0 LINE"
);
}
);
width = 520;
},
{
layerId = "18468F94-9FC9-4171-B83A-16111EF84EF0";
paths = (
{
closed = 1;
nodes = (
"155 0 LINE",
"155 520 LINE",
"400 520 LINE",
"400 0 LINE",
"450 0 LINE",
"450 784 LINE",
"400 784 LINE",
"400 570 LINE",
"155 570 LINE",
"155 784 LINE",
"70 784 LINE",
"70 0 LINE"
);
}
);
width = 520;
}
);
unicode = 0048;
},
{
glyphname = I;
lastChange = "2020-06-27 15:15:18 +0000";
layers = (
{
layerId = "8A89AD82-2B0C-40F6-97CA-3AF9ED9FF3A8";
paths = (
{
closed = 1;
nodes = (
"153 0 LINE",
"153 784 LINE",
"70 784 LINE",
"70 0 LINE"
);
}
);
width = 223;
},
{
layerId = "18468F94-9FC9-4171-B83A-16111EF84EF0";
paths = (
{
closed = 1;
nodes = (
"155 0 LINE",
"155 784 LINE",
"70 784 LINE",
"70 0 LINE"
);
}
);
width = 225;
}
);
unicode = 0049;
},
{
glyphname = Iacute;
lastChange = "2020-06-29 15:25:57 +0000";
layers = (
{
layerId = "8A89AD82-2B0C-40F6-97CA-3AF9ED9FF3A8";
paths = (
{
closed = 1;
nodes = (
"153 0 LINE",
"153 784 LINE",
"70 784 LINE",
"70 0 LINE"
);
},
{
closed = 1;
nodes = (
"236 950 LINE",
"236 998 LINE",
"70 998 LINE",
"70 950 LINE"
);
}
);
width = 225;
},
{
layerId = "18468F94-9FC9-4171-B83A-16111EF84EF0";
paths = (
{
closed = 1;
nodes = (
"155 0 LINE",
"155 784 LINE",
"70 784 LINE",
"70 0 LINE"
);
},
{
closed = 1;
nodes = (
"236 948 LINE",
"236 998 LINE",
"70 998 LINE",
"70 948 LINE"
);
}
);
width = 225;
}
);
unicode = 00CD;
},
{
glyphname = Icircumflex;
lastChange = "2020-06-29 15:26:28 +0000";
layers = (
{
layerId = "8A89AD82-2B0C-40F6-97CA-3AF9ED9FF3A8";
paths = (
{
closed = 1;
nodes = (
"153 0 LINE",
"153 784 LINE",
"70 784 LINE",
"70 0 LINE"
);
},
{
closed = 1;
nodes = (
"236 950 LINE",
"236 998 LINE",
"-13 998 LINE",
"-13 950 LINE"
);
}
);
width = 223;
},
{
layerId = "18468F94-9FC9-4171-B83A-16111EF84EF0";
paths = (
{
closed = 1;
nodes = (
"155 0 LINE",
"155 784 LINE",
"70 784 LINE",
"70 0 LINE"
);
},
{
closed = 1;
nodes = (
"237 948 LINE",
"237 998 LINE",
"-12 998 LINE",
"-12 948 LINE"
);
}
);
width = 225;
}
);
unicode = 00CE;
},
{
glyphname = Idieresis;
lastChange = "2020-06-29 15:29:11 +0000";
layers = (
{
layerId = "8A89AD82-2B0C-40F6-97CA-3AF9ED9FF3A8";
paths = (
{
closed = 1;
nodes = (
"153 0 LINE",
"153 784 LINE",
"70 784 LINE",
"70 0 LINE"
);
},
{
closed = 1;
nodes = (
"153 998 LINE",
"153 950 LINE",
"236 950 LINE",
"236 998 LINE"
);
},
{
closed = 1;
nodes = (
"-13 998 LINE",
"-13 950 LINE",
"70 950 LINE",
"70 998 LINE"
);
}
);
width = 223;
},
{
layerId = "18468F94-9FC9-4171-B83A-16111EF84EF0";
paths = (
{
closed = 1;
nodes = (
"155 0 LINE",
"155 784 LINE",
"70 784 LINE",
"70 0 LINE"
);
},
{
closed = 1;
nodes = (
"155 998 LINE",
"155 948 LINE",
"240 948 LINE",
"240 998 LINE"
);
},
{
closed = 1;
nodes = (
"-15 998 LINE",
"-15 948 LINE",
"70 948 LINE",
"70 998 LINE"
);
}
);
width = 225;
}
);
unicode = 00CF;
},
{
glyphname = Igrave;
lastChange = "2020-06-29 15:29:35 +0000";
layers = (
{
layerId = "8A89AD82-2B0C-40F6-97CA-3AF9ED9FF3A8";
paths = (
{
closed = 1;
nodes = (
"153 0 LINE",
"153 784 LINE",
"70 784 LINE",
"70 0 LINE"
);
},
{
closed = 1;
nodes = (
"153 950 LINE",
"153 998 LINE",
"-13 998 LINE",
"-13 950 LINE"
);
}
);
width = 223;
},
{
layerId = "18468F94-9FC9-4171-B83A-16111EF84EF0";
paths = (
{
closed = 1;
nodes = (
"155 0 LINE",
"155 784 LINE",
"70 784 LINE",
"70 0 LINE"
);
},
{
closed = 1;
nodes = (
"155 948 LINE",
"155 998 LINE",
"-11 998 LINE",
"-11 948 LINE"
);
}
);
width = 225;
}
);
unicode = 00CC;
},
{
glyphname = J;
lastChange = "2020-06-29 15:42:08 +0000";
layers = (
{
layerId = "8A89AD82-2B0C-40F6-97CA-3AF9ED9FF3A8";
paths = (
{
closed = 1;
nodes = (
"258 0 LINE",
"258 784 LINE",
"175 784 LINE",
"175 48 LINE",
"30 48 LINE",
"30 0 LINE"
);
}
);
width = 328;
},
{
layerId = "18468F94-9FC9-4171-B83A-16111EF84EF0";
paths = (
{
closed = 1;
nodes = (
"258 0 LINE",
"258 784 LINE",
"173 784 LINE",
"173 50 LINE",
"30 50 LINE",
"30 0 LINE"
);
}
);
width = 328;
}
);
unicode = 004A;
},
{
glyphname = K;
lastChange = "2020-04-04 12:40:28 +0000";
layers = (
{
layerId = "8A89AD82-2B0C-40F6-97CA-3AF9ED9FF3A8";
paths = (
{
closed = 1;
nodes = (
"153 0 LINE",
"153 522 LINE",
"400 522 LINE",
"400 0 LINE",
"450 0 LINE",
"450 570 LINE",
"400 570 LINE",
"400 784 LINE",
"385 784 LINE",
"385 570 LINE",
"153 570 LINE",
"153 784 LINE",
"70 784 LINE",
"70 0 LINE"
);
}
);
width = 520;
},
{
layerId = "18468F94-9FC9-4171-B83A-16111EF84EF0";
paths = (
{
closed = 1;
nodes = (
"155 0 LINE",
"155 520 LINE",
"400 520 LINE",
"400 0 LINE",
"450 0 LINE",
"450 570 LINE",
"400 570 LINE",
"400 784 LINE",
"350 784 LINE",
"350 570 LINE",
"155 570 LINE",
"155 784 LINE",
"70 784 LINE",
"70 0 LINE"
);
}
);
width = 520;
}
);
unicode = 004B;
},
{
glyphname = L;
lastChange = "2020-06-29 15:42:52 +0000";
layers = (
{
layerId = "8A89AD82-2B0C-40F6-97CA-3AF9ED9FF3A8";
paths = (
{
closed = 1;
nodes = (
"400 0 LINE",
"400 48 LINE",
"153 48 LINE",
"153 784 LINE",
"70 784 LINE",
"70 0 LINE"
);
}
);
width = 430;
},
{
layerId = "18468F94-9FC9-4171-B83A-16111EF84EF0";
paths = (
{
closed = 1;
nodes = (
"400 0 LINE",
"400 50 LINE",
"153 50 LINE",
"153 784 LINE",
"70 784 LINE",
"70 0 LINE"
);
}
);
width = 430;
}
);
unicode = 004C;
},
{
glyphname = M;
lastChange = "2020-06-25 15:06:33 +0000";
layers = (
{
layerId = "8A89AD82-2B0C-40F6-97CA-3AF9ED9FF3A8";
paths = (
{
closed = 1;
nodes = (
"70 784 LINE",
"70 0 LINE",
"153 0 LINE",
"153 736 LINE",
"382 736 LINE",
"382 0 LINE",
"397 0 LINE",
"397 736 LINE",
"626 736 LINE",
"626 0 LINE",
"709 0 LINE",
"709 784 LINE"
);
}
);
width = 779;
},
{
layerId = "18468F94-9FC9-4171-B83A-16111EF84EF0";
paths = (
{
closed = 1;
nodes = (
"70 784 LINE",
"70 0 LINE",
"155 0 LINE",
"155 736 LINE",
"365 736 LINE",
"365 0 LINE",
"415 0 LINE",
"415 736 LINE",
"625 736 LINE",
"625 0 LINE",
"710 0 LINE",
"710 784 LINE"
);
}
);
width = 780;
}
);
unicode = 004D;
},
{
glyphname = N;
lastChange = "2020-05-07 09:42:30 +0000";
layers = (
{
layerId = "8A89AD82-2B0C-40F6-97CA-3AF9ED9FF3A8";
paths = (
{
closed = 1;
nodes = (
"500 0 LINE",
"500 784 LINE",
"485 784 LINE",
"485 48 LINE",
"402 48 LINE",
"402 570 LINE",
"319 570 LINE",
"319 784 LINE",
"70 784 LINE",
"70 0 LINE",
"153 0 LINE",
"153 736 LINE",
"236 736 LINE",
"236 522 LINE",
"319 522 LINE",
"319 0 LINE"
);
}
);
width = 570;
},
{
layerId = "18468F94-9FC9-4171-B83A-16111EF84EF0";
paths = (
{
closed = 1;
nodes = (
"506 0 LINE",
"506 784 LINE",
"456 784 LINE",
"456 48 LINE",
"406 48 LINE",
"406 570 LINE",
"321 570 LINE",
"321 784 LINE",
"70 784 LINE",
"70 0 LINE",
"155 0 LINE",
"155 736 LINE",
"236 736 LINE",
"236 522 LINE",
"321 522 LINE",
"321 0 LINE"
);
}
);
width = 576;
}
);
unicode = 004E;
},
{
glyphname = Ntilde;
lastChange = "2020-06-29 15:34:30 +0000";
layers = (
{
layerId = "8A89AD82-2B0C-40F6-97CA-3AF9ED9FF3A8";
paths = (
{
closed = 1;
nodes = (
"500 0 LINE",
"500 784 LINE",
"485 784 LINE",
"485 48 LINE",
"402 48 LINE",
"402 570 LINE",
"319 570 LINE",
"319 784 LINE",
"70 784 LINE",
"70 0 LINE",
"153 0 LINE",
"153 736 LINE",
"236 736 LINE",
"236 522 LINE",
"319 522 LINE",
"319 0 LINE"
);
},
{
closed = 1;
nodes = (
"194 903 LINE",
"194 958 LINE",
"277 958 LINE",
"277 903 LINE",
"390 903 LINE",
"390 998 LINE",
"375 998 LINE",
"375 943 LINE",
"292 943 LINE",
"292 998 LINE",
"179 998 LINE",
"179 903 LINE"
);
}
);
width = 570;
},
{
layerId = "18468F94-9FC9-4171-B83A-16111EF84EF0";
paths = (
{
closed = 1;
nodes = (
"506 0 LINE",
"506 784 LINE",
"456 784 LINE",
"456 48 LINE",
"406 48 LINE",
"406 570 LINE",
"321 570 LINE",
"321 784 LINE",
"70 784 LINE",
"70 0 LINE",
"155 0 LINE",
"155 736 LINE",
"236 736 LINE",
"236 522 LINE",
"321 522 LINE",
"321 0 LINE"
);
},
{
closed = 1;
nodes = (
"195 903 LINE",
"195 958 LINE",
"280 958 LINE",
"280 903 LINE",
"395 903 LINE",
"395 998 LINE",
"380 998 LINE",
"380 943 LINE",
"295 943 LINE",
"295 998 LINE",
"180 998 LINE",
"180 903 LINE"
);
}
);
width = 576;
}
);
unicode = 00D1;
},
{
glyphname = O;
lastChange = "2020-04-05 11:45:48 +0000";
layers = (
{
layerId = "8A89AD82-2B0C-40F6-97CA-3AF9ED9FF3A8";
paths = (
{
closed = 1;
nodes = (
"70 784 LINE",
"70 0 LINE",
"450 0 LINE",
"450 784 LINE"
);
},
{
closed = 1;
nodes = (
"153 736 LINE",
"435 736 LINE",
"435 48 LINE",
"153 48 LINE"
);
}
);
width = 520;
},
{
layerId = "18468F94-9FC9-4171-B83A-16111EF84EF0";
paths = (
{
closed = 1;
nodes = (
"70 784 LINE",
"70 0 LINE",
"450 0 LINE",
"450 784 LINE"
);
},
{
closed = 1;
nodes = (
"155 734 LINE",
"400 734 LINE",
"400 48 LINE",
"155 48 LINE"
);
}
);
width = 520;
}
);
unicode = 004F;
},
{
glyphname = Oacute;
lastChange = "2020-06-29 15:30:47 +0000";
layers = (
{
layerId = "8A89AD82-2B0C-40F6-97CA-3AF9ED9FF3A8";
paths = (
{
closed = 1;
nodes = (
"70 784 LINE",
"70 0 LINE",
"450 0 LINE",
"450 784 LINE"
);
},
{
closed = 1;
nodes = (
"153 736 LINE",
"435 736 LINE",
"435 48 LINE",
"153 48 LINE"
);
},
{
closed = 1;
nodes = (
"450 950 LINE",
"450 998 LINE",
"260 998 LINE",
"260 950 LINE"
);
}
);
width = 520;
},
{
layerId = "18468F94-9FC9-4171-B83A-16111EF84EF0";
paths = (
{
closed = 1;
nodes = (
"70 784 LINE",
"70 0 LINE",
"450 0 LINE",
"450 784 LINE"
);
},
{
closed = 1;
nodes = (
"155 734 LINE",
"400 734 LINE",
"400 48 LINE",
"155 48 LINE"
);
},
{
closed = 1;
nodes = (
"450 948 LINE",
"450 998 LINE",
"260 998 LINE",
"260 948 LINE"
);
}
);
width = 520;
}
);
unicode = 00D3;
},
{
glyphname = Ocircumflex;
lastChange = "2020-06-29 15:33:30 +0000";
layers = (
{
layerId = "8A89AD82-2B0C-40F6-97CA-3AF9ED9FF3A8";
paths = (
{
closed = 1;
nodes = (
"70 784 LINE",
"70 0 LINE",
"450 0 LINE",
"450 784 LINE"
);
},
{
closed = 1;
nodes = (
"153 736 LINE",
"435 736 LINE",
"435 48 LINE",
"153 48 LINE"
);
},
{
closed = 1;
nodes = (
"450 950 LINE",
"450 998 LINE",
"70 998 LINE",
"70 950 LINE"
);
}
);
width = 520;
},
{
layerId = "18468F94-9FC9-4171-B83A-16111EF84EF0";
paths = (
{
closed = 1;
nodes = (
"70 784 LINE",
"70 0 LINE",
"450 0 LINE",
"450 784 LINE"
);
},
{
closed = 1;
nodes = (
"155 734 LINE",
"400 734 LINE",
"400 48 LINE",
"155 48 LINE"
);
},
{
closed = 1;
nodes = (
"450 948 LINE",
"450 998 LINE",
"70 998 LINE",
"70 948 LINE"
);
}
);
width = 520;
}
);
unicode = 00D4;
},
{
glyphname = Odieresis;
lastChange = "2020-06-29 15:31:26 +0000";
layers = (
{
layerId = "8A89AD82-2B0C-40F6-97CA-3AF9ED9FF3A8";
paths = (
{
closed = 1;
nodes = (
"301 998 LINE",
"301 950 LINE",
"384 950 LINE",
"384 998 LINE"
);
},
{
closed = 1;
nodes = (
"135 998 LINE",
"135 950 LINE",
"218 950 LINE",
"218 998 LINE"
);
},
{
closed = 1;
nodes = (
"70 784 LINE",
"70 0 LINE",
"450 0 LINE",
"450 784 LINE"
);
},
{
closed = 1;
nodes = (
"153 736 LINE",
"435 736 LINE",
"435 48 LINE",
"153 48 LINE"
);
}
);
width = 520;
},
{
layerId = "18468F94-9FC9-4171-B83A-16111EF84EF0";
paths = (
{
closed = 1;
nodes = (
"70 784 LINE",
"70 0 LINE",
"450 0 LINE",
"450 784 LINE"
);
},
{
closed = 1;
nodes = (
"155 734 LINE",
"400 734 LINE",
"400 48 LINE",
"155 48 LINE"
);
},
{
closed = 1;
nodes = (
"302 998 LINE",
"302 948 LINE",
"387 948 LINE",
"387 998 LINE"
);
},
{
closed = 1;
nodes = (
"132 998 LINE",
"132 948 LINE",
"217 948 LINE",
"217 998 LINE"
);
}
);
width = 520;
}
);
unicode = 00D6;
},
{
glyphname = Ograve;
lastChange = "2020-06-29 15:31:59 +0000";
layers = (
{
layerId = "8A89AD82-2B0C-40F6-97CA-3AF9ED9FF3A8";
paths = (
{
closed = 1;
nodes = (
"70 784 LINE",
"70 0 LINE",
"450 0 LINE",
"450 784 LINE"
);
},
{
closed = 1;
nodes = (
"153 736 LINE",
"435 736 LINE",
"435 48 LINE",
"153 48 LINE"
);
},
{
closed = 1;
nodes = (
"260 950 LINE",
"260 998 LINE",
"70 998 LINE",
"70 950 LINE"
);
}
);
width = 520;
},
{
layerId = "18468F94-9FC9-4171-B83A-16111EF84EF0";
paths = (
{
closed = 1;
nodes = (
"70 784 LINE",
"70 0 LINE",
"450 0 LINE",
"450 784 LINE"
);
},
{
closed = 1;
nodes = (
"155 734 LINE",
"400 734 LINE",
"400 48 LINE",
"155 48 LINE"
);
},
{
closed = 1;
nodes = (
"260 948 LINE",
"260 998 LINE",
"70 998 LINE",
"70 948 LINE"
);
}
);
width = 520;
}
);
unicode = 00D2;
},
{
glyphname = Otilde;
lastChange = "2020-06-29 15:32:12 +0000";
layers = (
{
layerId = "8A89AD82-2B0C-40F6-97CA-3AF9ED9FF3A8";
paths = (
{
closed = 1;
nodes = (
"70 784 LINE",
"70 0 LINE",
"450 0 LINE",
"450 784 LINE"
);
},
{
closed = 1;
nodes = (
"153 736 LINE",
"435 736 LINE",
"435 48 LINE",
"153 48 LINE"
);
},
{
closed = 1;
nodes = (
"169 903 LINE",
"169 958 LINE",
"252 958 LINE",
"252 903 LINE",
"365 903 LINE",
"365 998 LINE",
"350 998 LINE",
"350 943 LINE",
"267 943 LINE",
"267 998 LINE",
"154 998 LINE",
"154 903 LINE"
);
}
);
width = 520;
},
{
layerId = "18468F94-9FC9-4171-B83A-16111EF84EF0";
paths = (
{
closed = 1;
nodes = (
"70 784 LINE",
"70 0 LINE",
"450 0 LINE",
"450 784 LINE"
);
},
{
closed = 1;
nodes = (
"155 734 LINE",
"400 734 LINE",
"400 48 LINE",
"155 48 LINE"
);
},
{
closed = 1;
nodes = (
"167 903 LINE",
"167 958 LINE",
"252 958 LINE",
"252 903 LINE",
"367 903 LINE",
"367 998 LINE",
"352 998 LINE",
"352 943 LINE",
"267 943 LINE",
"267 998 LINE",
"152 998 LINE",
"152 903 LINE"
);
}
);
width = 520;
}
);
unicode = 00D5;
},
{
glyphname = OE;
lastChange = "2020-06-29 15:35:12 +0000";
layers = (
{
layerId = "8A89AD82-2B0C-40F6-97CA-3AF9ED9FF3A8";
paths = (
{
closed = 1;
nodes = (
"765 0 LINE",
"765 48 LINE",
"518 48 LINE",
"518 522 LINE",
"765 522 LINE",
"765 570 LINE",
"518 570 LINE",
"518 736 LINE",
"765 736 LINE",
"765 784 LINE",
"70 784 LINE",
"70 0 LINE"
);
},
{
closed = 1;
nodes = (
"153 736 LINE",
"435 736 LINE",
"435 48 LINE",
"153 48 LINE"
);
}
);
width = 835;
},
{
layerId = "18468F94-9FC9-4171-B83A-16111EF84EF0";
paths = (
{
closed = 1;
nodes = (
"730 0 LINE",
"730 50 LINE",
"485 50 LINE",
"485 520 LINE",
"730 520 LINE",
"730 570 LINE",
"485 570 LINE",
"485 734 LINE",
"730 734 LINE",
"730 784 LINE",
"70 784 LINE",
"70 0 LINE"
);
},
{
closed = 1;
nodes = (
"155 734 LINE",
"400 734 LINE",
"400 48 LINE",
"155 48 LINE"
);
}
);
width = 800;
}
);
unicode = 0152;
},
{
glyphname = P;
lastChange = "2020-06-29 15:43:11 +0000";
layers = (
{
layerId = "8A89AD82-2B0C-40F6-97CA-3AF9ED9FF3A8";
paths = (
{
closed = 1;
nodes = (
"70 784 LINE",
"70 0 LINE",
"153 0 LINE",
"153 522 LINE",
"400 522 LINE",
"400 784 LINE"
);
},
{
closed = 1;
nodes = (
"153 736 LINE",
"385 736 LINE",
"385 570 LINE",
"153 570 LINE"
);
}
);
width = 430;
},
{
layerId = "18468F94-9FC9-4171-B83A-16111EF84EF0";
paths = (
{
closed = 1;
nodes = (
"70 784 LINE",
"70 0 LINE",
"155 0 LINE",
"155 520 LINE",
"400 520 LINE",
"400 784 LINE"
);
},
{
closed = 1;
nodes = (
"155 734 LINE",
"350 734 LINE",
"350 570 LINE",
"155 570 LINE"
);
}
);
width = 430;
}
);
unicode = 0050;
},
{
glyphname = Q;
lastChange = "2020-04-05 11:46:28 +0000";
layers = (
{
layerId = "8A89AD82-2B0C-40F6-97CA-3AF9ED9FF3A8";
paths = (
{
closed = 1;
nodes = (
"367 0 LINE",
"367 -145 LINE",
"450 -145 LINE",
"450 784 LINE",
"70 784 LINE",
"70 0 LINE"
);
},
{
closed = 1;
nodes = (
"85 736 LINE",
"367 736 LINE",
"367 48 LINE",
"85 48 LINE"
);
}
);
width = 520;
},
{
layerId = "18468F94-9FC9-4171-B83A-16111EF84EF0";
paths = (
{
closed = 1;
nodes = (
"365 0 LINE",
"365 -145 LINE",
"450 -145 LINE",
"450 784 LINE",
"70 784 LINE",
"70 0 LINE"
);
},
{
closed = 1;
nodes = (
"120 734 LINE",
"365 734 LINE",
"365 50 LINE",
"120 50 LINE"
);
}
);
width = 520;
}
);
unicode = 0051;
},
{
glyphname = R;
lastChange = "2020-04-03 15:04:08 +0000";
layers = (
{
layerId = "8A89AD82-2B0C-40F6-97CA-3AF9ED9FF3A8";
paths = (
{
closed = 1;
nodes = (
"70 784 LINE",
"70 0 LINE",
"153 0 LINE",
"153 522 LINE",
"400 522 LINE",
"400 0 LINE",
"450 0 LINE",
"450 570 LINE",
"400 570 LINE",
"400 784 LINE"
);
},
{
closed = 1;
nodes = (
"153 736 LINE",
"385 736 LINE",
"385 570 LINE",
"153 570 LINE"
);
}
);
width = 520;
},
{
layerId = "18468F94-9FC9-4171-B83A-16111EF84EF0";
paths = (
{
closed = 1;
nodes = (
"70 784 LINE",
"70 0 LINE",
"155 0 LINE",
"155 520 LINE",
"400 520 LINE",
"400 0 LINE",
"450 0 LINE",
"450 570 LINE",
"400 570 LINE",
"400 784 LINE"
);
},
{
closed = 1;
nodes = (
"155 734 LINE",
"360 734 LINE",
"360 570 LINE",
"155 570 LINE"
);
}
);
width = 520;
}
);
unicode = 0052;
},
{
glyphname = S;
lastChange = "2020-06-25 15:06:53 +0000";
layers = (
{
layerId = "8A89AD82-2B0C-40F6-97CA-3AF9ED9FF3A8";
paths = (
{
closed = 1;
nodes = (
"400 784 LINE",
"70 784 LINE",
"70 522 LINE",
"385 522 LINE",
"385 48 LINE",
"70 48 LINE",
"70 0 LINE",
"400 0 LINE",
"400 570 LINE",
"153 570 LINE",
"153 736 LINE",
"400 736 LINE"
);
}
);
width = 470;
},
{
layerId = "18468F94-9FC9-4171-B83A-16111EF84EF0";
paths = (
{
closed = 1;
nodes = (
"400 784 LINE",
"70 784 LINE",
"70 520 LINE",
"347 520 LINE",
"347 50 LINE",
"70 50 LINE",
"70 0 LINE",
"400 0 LINE",
"400 570 LINE",
"153 570 LINE",
"153 734 LINE",
"400 734 LINE"
);
}
);
width = 470;
}
);
unicode = 0053;
},
{
glyphname = T;
lastChange = "2020-06-29 15:59:28 +0000";
layers = (
{
layerId = "8A89AD82-2B0C-40F6-97CA-3AF9ED9FF3A8";
paths = (
{
closed = 1;
nodes = (
"154 736 LINE",
"154 0 LINE",
"237 0 LINE",
"237 736 LINE",
"361 736 LINE",
"361 784 LINE",
"30 784 LINE",
"30 736 LINE"
);
}
);
width = 391;
},
{
layerId = "18468F94-9FC9-4171-B83A-16111EF84EF0";
paths = (
{
closed = 1;
nodes = (
"153 734 LINE",
"153 0 LINE",
"238 0 LINE",
"238 734 LINE",
"361 734 LINE",
"361 784 LINE",
"30 784 LINE",
"30 734 LINE"
);
}
);
width = 391;
}
);
unicode = 0054;
},
{
glyphname = U;
lastChange = "2020-04-05 11:44:33 +0000";
layers = (
{
layerId = "8A89AD82-2B0C-40F6-97CA-3AF9ED9FF3A8";
paths = (
{
closed = 1;
nodes = (
"450 784 LINE",
"435 784 LINE",
"435 48 LINE",
"153 48 LINE",
"153 784 LINE",
"70 784 LINE",
"70 0 LINE",
"450 0 LINE"
);
}
);
width = 520;
},
{
layerId = "18468F94-9FC9-4171-B83A-16111EF84EF0";
paths = (
{
closed = 1;
nodes = (
"450 784 LINE",
"400 784 LINE",
"400 50 LINE",
"155 50 LINE",
"155 784 LINE",
"70 784 LINE",
"70 0 LINE",
"450 0 LINE"
);
}
);
width = 520;
}
);
unicode = 0055;
},
{
glyphname = Uacute;
lastChange = "2020-06-29 15:35:58 +0000";
layers = (
{
layerId = "8A89AD82-2B0C-40F6-97CA-3AF9ED9FF3A8";
paths = (
{
closed = 1;
nodes = (
"450 784 LINE",
"435 784 LINE",
"435 48 LINE",
"153 48 LINE",
"153 784 LINE",
"70 784 LINE",
"70 0 LINE",
"450 0 LINE"
);
},
{
closed = 1;
nodes = (
"450 950 LINE",
"450 998 LINE",
"260 998 LINE",
"260 950 LINE"
);
}
);
width = 520;
},
{
layerId = "18468F94-9FC9-4171-B83A-16111EF84EF0";
paths = (
{
closed = 1;
nodes = (
"450 784 LINE",
"400 784 LINE",
"400 50 LINE",
"155 50 LINE",
"155 784 LINE",
"70 784 LINE",
"70 0 LINE",
"450 0 LINE"
);
},
{
closed = 1;
nodes = (
"450 948 LINE",
"450 998 LINE",
"260 998 LINE",
"260 948 LINE"
);
}
);
width = 520;
}
);
unicode = 00DA;
},
{
glyphname = Ucircumflex;
lastChange = "2020-06-29 15:36:16 +0000";
layers = (
{
layerId = "8A89AD82-2B0C-40F6-97CA-3AF9ED9FF3A8";
paths = (
{
closed = 1;
nodes = (
"450 784 LINE",
"435 784 LINE",
"435 48 LINE",
"153 48 LINE",
"153 784 LINE",
"70 784 LINE",
"70 0 LINE",
"450 0 LINE"
);
},
{
closed = 1;
nodes = (
"450 950 LINE",
"450 998 LINE",
"70 998 LINE",
"70 950 LINE"
);
}
);
width = 520;
},
{
layerId = "18468F94-9FC9-4171-B83A-16111EF84EF0";
paths = (
{
closed = 1;
nodes = (
"450 784 LINE",
"400 784 LINE",
"400 50 LINE",
"155 50 LINE",
"155 784 LINE",
"70 784 LINE",
"70 0 LINE",
"450 0 LINE"
);
},
{
closed = 1;
nodes = (
"450 948 LINE",
"450 998 LINE",
"70 998 LINE",
"70 948 LINE"
);
}
);
width = 520;
}
);
unicode = 00DB;
},
{
glyphname = Udieresis;
lastChange = "2020-06-29 15:36:43 +0000";
layers = (
{
layerId = "8A89AD82-2B0C-40F6-97CA-3AF9ED9FF3A8";
paths = (
{
closed = 1;
nodes = (
"450 784 LINE",
"435 784 LINE",
"435 48 LINE",
"153 48 LINE",
"153 784 LINE",
"70 784 LINE",
"70 0 LINE",
"450 0 LINE"
);
},
{
closed = 1;
nodes = (
"301 998 LINE",
"301 950 LINE",
"384 950 LINE",
"384 998 LINE"
);
},
{
closed = 1;
nodes = (
"135 998 LINE",
"135 950 LINE",
"218 950 LINE",
"218 998 LINE"
);
}
);
width = 520;
},
{
layerId = "18468F94-9FC9-4171-B83A-16111EF84EF0";
paths = (
{
closed = 1;
nodes = (
"450 784 LINE",
"400 784 LINE",
"400 50 LINE",
"155 50 LINE",
"155 784 LINE",
"70 784 LINE",
"70 0 LINE",
"450 0 LINE"
);
},
{
closed = 1;
nodes = (
"302 998 LINE",
"302 948 LINE",
"387 948 LINE",
"387 998 LINE"
);
},
{
closed = 1;
nodes = (
"132 998 LINE",
"132 948 LINE",
"217 948 LINE",
"217 998 LINE"
);
}
);
width = 520;
}
);
unicode = 00DC;
},
{
glyphname = Ugrave;
lastChange = "2020-06-29 15:37:21 +0000";
layers = (
{
layerId = "8A89AD82-2B0C-40F6-97CA-3AF9ED9FF3A8";
paths = (
{
closed = 1;
nodes = (
"450 784 LINE",
"435 784 LINE",
"435 48 LINE",
"153 48 LINE",
"153 784 LINE",
"70 784 LINE",
"70 0 LINE",
"450 0 LINE"
);
},
{
closed = 1;
nodes = (
"260 950 LINE",
"260 998 LINE",
"70 998 LINE",
"70 950 LINE"
);
}
);
width = 520;
},
{
layerId = "18468F94-9FC9-4171-B83A-16111EF84EF0";
paths = (
{
closed = 1;
nodes = (
"450 784 LINE",
"400 784 LINE",
"400 50 LINE",
"155 50 LINE",
"155 784 LINE",
"70 784 LINE",
"70 0 LINE",
"450 0 LINE"
);
},
{
closed = 1;
nodes = (
"260 948 LINE",
"260 998 LINE",
"70 998 LINE",
"70 948 LINE"
);
}
);
width = 520;
}
);
unicode = 00D9;
},
{
glyphname = V;
lastChange = "2020-06-29 15:43:38 +0000";
layers = (
{
layerId = "8A89AD82-2B0C-40F6-97CA-3AF9ED9FF3A8";
paths = (
{
closed = 1;
nodes = (
"430 0 LINE",
"430 784 LINE",
"415 784 LINE",
"415 48 LINE",
"216 48 LINE",
"216 570 LINE",
"133 570 LINE",
"133 784 LINE",
"50 784 LINE",
"50 522 LINE",
"133 522 LINE",
"133 0 LINE"
);
}
);
width = 500;
},
{
layerId = "18468F94-9FC9-4171-B83A-16111EF84EF0";
paths = (
{
closed = 1;
nodes = (
"430 0 LINE",
"430 784 LINE",
"380 784 LINE",
"380 50 LINE",
"220 50 LINE",
"220 570 LINE",
"135 570 LINE",
"135 784 LINE",
"50 784 LINE",
"50 520 LINE",
"135 520 LINE",
"135 0 LINE"
);
}
);
width = 500;
}
);
unicode = 0056;
},
{
glyphname = W;
lastChange = "2020-07-31 15:04:23 +0000";
layers = (
{
layerId = "8A89AD82-2B0C-40F6-97CA-3AF9ED9FF3A8";
paths = (
{
closed = 1;
nodes = (
"709 784 LINE",
"626 784 LINE",
"626 48 LINE",
"397 48 LINE",
"397 784 LINE",
"382 784 LINE",
"382 48 LINE",
"153 48 LINE",
"153 784 LINE",
"70 784 LINE",
"70 0 LINE",
"709 0 LINE"
);
}
);
width = 779;
},
{
layerId = "18468F94-9FC9-4171-B83A-16111EF84EF0";
paths = (
{
closed = 1;
nodes = (
"710 784 LINE",
"625 784 LINE",
"625 48 LINE",
"415 48 LINE",
"415 784 LINE",
"365 784 LINE",
"365 48 LINE",
"155 48 LINE",
"155 784 LINE",
"70 784 LINE",
"70 0 LINE",
"710 0 LINE"
);
}
);
width = 780;
}
);
unicode = 0057;
},
{
glyphname = X;
lastChange = "2020-04-05 11:29:51 +0000";
layers = (
{
layerId = "8A89AD82-2B0C-40F6-97CA-3AF9ED9FF3A8";
paths = (
{
closed = 1;
nodes = (
"153 0 LINE",
"153 253 LINE",
"349 253 LINE",
"349 0 LINE",
"399 0 LINE",
"399 268 LINE",
"276 268 LINE",
"276 522 LINE",
"399 522 LINE",
"399 784 LINE",
"349 784 LINE",
"349 570 LINE",
"153 570 LINE",
"153 784 LINE",
"70 784 LINE",
"70 522 LINE",
"193 522 LINE",
"193 268 LINE",
"70 268 LINE",
"70 0 LINE"
);
}
);
width = 469;
},
{
layerId = "18468F94-9FC9-4171-B83A-16111EF84EF0";
paths = (
{
closed = 1;
nodes = (
"155 0 LINE",
"155 241 LINE",
"350 241 LINE",
"350 0 LINE",
"400 0 LINE",
"400 281 LINE",
"278 281 LINE",
"278 522 LINE",
"400 522 LINE",
"400 784 LINE",
"350 784 LINE",
"350 570 LINE",
"155 570 LINE",
"155 784 LINE",
"70 784 LINE",
"70 522 LINE",
"193 522 LINE",
"193 281 LINE",
"70 281 LINE",
"70 0 LINE"
);
}
);
width = 470;
}
);
unicode = 0058;
},
{
glyphname = Y;
lastChange = "2020-06-29 15:43:52 +0000";
layers = (
{
layerId = "8A89AD82-2B0C-40F6-97CA-3AF9ED9FF3A8";
paths = (
{
closed = 1;
nodes = (
"173 522 LINE",
"173 0 LINE",
"256 0 LINE",
"256 522 LINE",
"379 522 LINE",
"379 784 LINE",
"329 784 LINE",
"329 570 LINE",
"133 570 LINE",
"133 784 LINE",
"50 784 LINE",
"50 522 LINE"
);
}
);
width = 429;
},
{
layerId = "18468F94-9FC9-4171-B83A-16111EF84EF0";
paths = (
{
closed = 1;
nodes = (
"172 520 LINE",
"172 0 LINE",
"257 0 LINE",
"257 520 LINE",
"379 520 LINE",
"379 784 LINE",
"294 784 LINE",
"294 570 LINE",
"135 570 LINE",
"135 784 LINE",
"50 784 LINE",
"50 520 LINE"
);
}
);
width = 429;
}
);
unicode = 0059;
},
{
glyphname = Z;
lastChange = "2020-06-30 11:18:54 +0000";
layers = (
{
layerId = "8A89AD82-2B0C-40F6-97CA-3AF9ED9FF3A8";
paths = (
{
closed = 1;
nodes = (
"400 784 LINE",
"70 784 LINE",
"70 736 LINE",
"317 736 LINE",
"317 398 LINE",
"227 398 LINE",
"227 268 LINE",
"70 268 LINE",
"70 0 LINE",
"400 0 LINE",
"400 48 LINE",
"153 48 LINE",
"153 253 LINE",
"242 253 LINE",
"242 383 LINE",
"400 383 LINE"
);
}
);
width = 470;
},
{
layerId = "18468F94-9FC9-4171-B83A-16111EF84EF0";
paths = (
{
closed = 1;
nodes = (
"400 784 LINE",
"70 784 LINE",
"70 734 LINE",
"315 734 LINE",
"315 411 LINE",
"215 411 LINE",
"215 281 LINE",
"70 281 LINE",
"70 0 LINE",
"400 0 LINE",
"400 50 LINE",
"155 50 LINE",
"155 241 LINE",
"255 241 LINE",
"255 371 LINE",
"400 371 LINE"
);
}
);
width = 470;
}
);
unicode = 005A;
},
{
glyphname = a;
lastChange = "2020-06-25 15:01:25 +0000";
layers = (
{
layerId = "8A89AD82-2B0C-40F6-97CA-3AF9ED9FF3A8";
paths = (
{
closed = 1;
nodes = (
"70 570 LINE",
"70 522 LINE",
"317 522 LINE",
"317 268 LINE",
"70 268 LINE",
"70 0 LINE",
"400 0 LINE",
"400 570 LINE"
);
},
{
closed = 1;
nodes = (
"85 253 LINE",
"317 253 LINE",
"317 48 LINE",
"85 48 LINE"
);
}
);
width = 470;
},
{
layerId = "18468F94-9FC9-4171-B83A-16111EF84EF0";
paths = (
{
closed = 1;
nodes = (
"70 570 LINE",
"70 520 LINE",
"315 520 LINE",
"315 281 LINE",
"70 281 LINE",
"70 0 LINE",
"400 0 LINE",
"400 570 LINE"
);
},
{
closed = 1;
nodes = (
"110 241 LINE",
"315 241 LINE",
"315 50 LINE",
"110 50 LINE"
);
}
);
width = 470;
}
);
unicode = 0061;
},
{
glyphname = aacute;
lastChange = "2020-06-27 15:52:57 +0000";
layers = (
{
layerId = "8A89AD82-2B0C-40F6-97CA-3AF9ED9FF3A8";
paths = (
{
closed = 1;
nodes = (
"70 570 LINE",
"70 522 LINE",
"317 522 LINE",
"317 268 LINE",
"70 268 LINE",
"70 0 LINE",
"400 0 LINE",
"400 570 LINE"
);
},
{
closed = 1;
nodes = (
"85 253 LINE",
"317 253 LINE",
"317 48 LINE",
"85 48 LINE"
);
},
{
closed = 1;
nodes = (
"400 736 LINE",
"400 784 LINE",
"235 784 LINE",
"235 736 LINE"
);
}
);
width = 470;
},
{
layerId = "18468F94-9FC9-4171-B83A-16111EF84EF0";
paths = (
{
closed = 1;
nodes = (
"70 570 LINE",
"70 520 LINE",
"315 520 LINE",
"315 281 LINE",
"70 281 LINE",
"70 0 LINE",
"400 0 LINE",
"400 570 LINE"
);
},
{
closed = 1;
nodes = (
"110 241 LINE",
"315 241 LINE",
"315 50 LINE",
"110 50 LINE"
);
},
{
closed = 1;
nodes = (
"400 734 LINE",
"400 784 LINE",
"235 784 LINE",
"235 734 LINE"
);
}
);
width = 470;
}
);
unicode = 00E1;
},
{
glyphname = acircumflex;
lastChange = "2020-01-09 16:37:06 +0000";
layers = (
{
layerId = "8A89AD82-2B0C-40F6-97CA-3AF9ED9FF3A8";
paths = (
{
closed = 1;
nodes = (
"70 570 LINE",
"70 522 LINE",
"317 522 LINE",
"317 268 LINE",
"70 268 LINE",
"70 0 LINE",
"400 0 LINE",
"400 570 LINE"
);
},
{
closed = 1;
nodes = (
"85 253 LINE",
"317 253 LINE",
"317 48 LINE",
"85 48 LINE"
);
},
{
closed = 1;
nodes = (
"70 736 LINE",
"70 784 LINE",
"400 784 LINE",
"400 736 LINE"
);
}
);
width = 470;
},
{
layerId = "18468F94-9FC9-4171-B83A-16111EF84EF0";
paths = (
{
closed = 1;
nodes = (
"70 570 LINE",
"70 520 LINE",
"315 520 LINE",
"315 281 LINE",
"70 281 LINE",
"70 0 LINE",
"400 0 LINE",
"400 570 LINE"
);
},
{
closed = 1;
nodes = (
"110 241 LINE",
"315 241 LINE",
"315 50 LINE",
"110 50 LINE"
);
},
{
closed = 1;
nodes = (
"70 734 LINE",
"70 784 LINE",
"400 784 LINE",
"400 734 LINE"
);
}
);
width = 470;
}
);
unicode = 00E2;
},
{
glyphname = adieresis;
lastChange = "2020-05-30 14:26:59 +0000";
layers = (
{
layerId = "8A89AD82-2B0C-40F6-97CA-3AF9ED9FF3A8";
paths = (
{
closed = 1;
nodes = (
"276 784 LINE",
"276 736 LINE",
"359 736 LINE",
"359 784 LINE"
);
},
{
closed = 1;
nodes = (
"110 784 LINE",
"110 736 LINE",
"193 736 LINE",
"193 784 LINE"
);
},
{
closed = 1;
nodes = (
"70 570 LINE",
"70 522 LINE",
"317 522 LINE",
"317 268 LINE",
"70 268 LINE",
"70 0 LINE",
"400 0 LINE",
"400 570 LINE"
);
},
{
closed = 1;
nodes = (
"85 253 LINE",
"317 253 LINE",
"317 48 LINE",
"85 48 LINE"
);
}
);
width = 470;
},
{
layerId = "18468F94-9FC9-4171-B83A-16111EF84EF0";
paths = (
{
closed = 1;
nodes = (
"70 570 LINE",
"70 520 LINE",
"315 520 LINE",
"315 281 LINE",
"70 281 LINE",
"70 0 LINE",
"400 0 LINE",
"400 570 LINE"
);
},
{
closed = 1;
nodes = (
"110 241 LINE",
"315 241 LINE",
"315 50 LINE",
"110 50 LINE"
);
},
{
closed = 1;
nodes = (
"278 784 LINE",
"278 734 LINE",
"363 734 LINE",
"363 784 LINE"
);
},
{
closed = 1;
nodes = (
"108 784 LINE",
"108 734 LINE",
"193 734 LINE",
"193 784 LINE"
);
}
);
width = 470;
}
);
unicode = 00E4;
},
{
glyphname = agrave;
lastChange = "2020-01-09 16:37:50 +0000";
layers = (
{
layerId = "8A89AD82-2B0C-40F6-97CA-3AF9ED9FF3A8";
paths = (
{
closed = 1;
nodes = (
"70 570 LINE",
"70 522 LINE",
"317 522 LINE",
"317 268 LINE",
"70 268 LINE",
"70 0 LINE",
"400 0 LINE",
"400 570 LINE"
);
},
{
closed = 1;
nodes = (
"85 253 LINE",
"317 253 LINE",
"317 48 LINE",
"85 48 LINE"
);
},
{
closed = 1;
nodes = (
"235 736 LINE",
"235 784 LINE",
"70 784 LINE",
"70 736 LINE"
);
}
);
width = 470;
},
{
layerId = "18468F94-9FC9-4171-B83A-16111EF84EF0";
paths = (
{
closed = 1;
nodes = (
"70 570 LINE",
"70 520 LINE",
"315 520 LINE",
"315 281 LINE",
"70 281 LINE",
"70 0 LINE",
"400 0 LINE",
"400 570 LINE"
);
},
{
closed = 1;
nodes = (
"110 241 LINE",
"315 241 LINE",
"315 50 LINE",
"110 50 LINE"
);
},
{
closed = 1;
nodes = (
"235 734 LINE",
"235 784 LINE",
"70 784 LINE",
"70 734 LINE"
);
}
);
width = 470;
}
);
unicode = 00E0;
},
{
glyphname = atilde;
lastChange = "2020-07-31 15:02:04 +0000";
layers = (
{
layerId = "8A89AD82-2B0C-40F6-97CA-3AF9ED9FF3A8";
paths = (
{
closed = 1;
nodes = (
"70 570 LINE",
"70 522 LINE",
"317 522 LINE",
"317 268 LINE",
"70 268 LINE",
"70 0 LINE",
"400 0 LINE",
"400 570 LINE"
);
},
{
closed = 1;
nodes = (
"85 253 LINE",
"317 253 LINE",
"317 48 LINE",
"85 48 LINE"
);
},
{
closed = 1;
nodes = (
"144 689 LINE",
"144 744 LINE",
"227 744 LINE",
"227 689 LINE",
"340 689 LINE",
"340 784 LINE",
"325 784 LINE",
"325 729 LINE",
"242 729 LINE",
"242 784 LINE",
"129 784 LINE",
"129 689 LINE"
);
}
);
width = 470;
},
{
layerId = "18468F94-9FC9-4171-B83A-16111EF84EF0";
paths = (
{
closed = 1;
nodes = (
"70 570 LINE",
"70 520 LINE",
"315 520 LINE",
"315 281 LINE",
"70 281 LINE",
"70 0 LINE",
"400 0 LINE",
"400 570 LINE"
);
},
{
closed = 1;
nodes = (
"110 241 LINE",
"315 241 LINE",
"315 50 LINE",
"110 50 LINE"
);
},
{
closed = 1;
nodes = (
"142 689 LINE",
"142 744 LINE",
"227 744 LINE",
"227 689 LINE",
"342 689 LINE",
"342 784 LINE",
"327 784 LINE",
"327 729 LINE",
"242 729 LINE",
"242 784 LINE",
"127 784 LINE",
"127 689 LINE"
);
}
);
width = 470;
}
);
unicode = 00E3;
},
{
glyphname = ae;
lastChange = "2020-01-09 16:38:02 +0000";
layers = (
{
layerId = "8A89AD82-2B0C-40F6-97CA-3AF9ED9FF3A8";
paths = (
{
closed = 1;
nodes = (
"649 570 LINE",
"70 570 LINE",
"70 522 LINE",
"318 522 LINE",
"318 268 LINE",
"70 268 LINE",
"70 0 LINE",
"649 0 LINE",
"649 48 LINE",
"401 48 LINE",
"401 253 LINE",
"649 253 LINE"
);
},
{
closed = 1;
nodes = (
"634 268 LINE",
"401 268 LINE",
"401 522 LINE",
"634 522 LINE"
);
},
{
closed = 1;
nodes = (
"85 253 LINE",
"318 253 LINE",
"318 48 LINE",
"85 48 LINE"
);
}
);
width = 719;
},
{
layerId = "18468F94-9FC9-4171-B83A-16111EF84EF0";
paths = (
{
closed = 1;
nodes = (
"649 570 LINE",
"70 570 LINE",
"70 520 LINE",
"317 520 LINE",
"317 281 LINE",
"70 281 LINE",
"70 0 LINE",
"649 0 LINE",
"649 50 LINE",
"402 50 LINE",
"402 241 LINE",
"649 241 LINE"
);
},
{
closed = 1;
nodes = (
"609 281 LINE",
"402 281 LINE",
"402 520 LINE",
"609 520 LINE"
);
},
{
closed = 1;
nodes = (
"110 241 LINE",
"317 241 LINE",
"317 50 LINE",
"110 50 LINE"
);
}
);
width = 719;
}
);
unicode = 00E6;
},
{
glyphname = b;
lastChange = "2020-04-04 12:42:21 +0000";
layers = (
{
layerId = "8A89AD82-2B0C-40F6-97CA-3AF9ED9FF3A8";
paths = (
{
closed = 1;
nodes = (
"153 570 LINE",
"153 784 LINE",
"70 784 LINE",
"70 0 LINE",
"400 0 LINE",
"400 570 LINE"
);
},
{
closed = 1;
nodes = (
"153 48 LINE",
"153 522 LINE",
"385 522 LINE",
"385 48 LINE"
);
}
);
width = 470;
},
{
layerId = "18468F94-9FC9-4171-B83A-16111EF84EF0";
paths = (
{
closed = 1;
nodes = (
"155 570 LINE",
"155 784 LINE",
"70 784 LINE",
"70 0 LINE",
"400 0 LINE",
"400 570 LINE"
);
},
{
closed = 1;
nodes = (
"155 50 LINE",
"155 520 LINE",
"360 520 LINE",
"360 50 LINE"
);
}
);
width = 470;
}
);
unicode = 0062;
},
{
glyphname = c;
lastChange = "2020-01-08 17:57:21 +0000";
layers = (
{
layerId = "8A89AD82-2B0C-40F6-97CA-3AF9ED9FF3A8";
paths = (
{
closed = 1;
nodes = (
"400 570 LINE",
"70 570 LINE",
"70 0 LINE",
"400 0 LINE",
"400 48 LINE",
"153 48 LINE",
"153 522 LINE",
"400 522 LINE"
);
}
);
width = 470;
},
{
layerId = "18468F94-9FC9-4171-B83A-16111EF84EF0";
paths = (
{
closed = 1;
nodes = (
"400 570 LINE",
"70 570 LINE",
"70 0 LINE",
"400 0 LINE",
"400 50 LINE",
"155 50 LINE",
"155 520 LINE",
"400 520 LINE"
);
}
);
width = 470;
}
);
unicode = 0063;
},
{
glyphname = ccedilla;
lastChange = "2020-06-27 16:09:15 +0000";
layers = (
{
layerId = "8A89AD82-2B0C-40F6-97CA-3AF9ED9FF3A8";
paths = (
{
closed = 1;
nodes = (
"400 570 LINE",
"70 570 LINE",
"70 0 LINE",
"205 0 LINE",
"205 -145 LINE",
"265 -145 LINE",
"265 0 LINE",
"400 0 LINE",
"400 48 LINE",
"153 48 LINE",
"153 522 LINE",
"400 522 LINE"
);
}
);
width = 470;
},
{
layerId = "18468F94-9FC9-4171-B83A-16111EF84EF0";
paths = (
{
closed = 1;
nodes = (
"265 -145 LINE",
"265 0 LINE",
"400 0 LINE",
"400 50 LINE",
"155 50 LINE",
"155 520 LINE",
"400 520 LINE",
"400 570 LINE",
"70 570 LINE",
"70 0 LINE",
"205 0 LINE",
"205 -145 LINE"
);
}
);
width = 470;
}
);
unicode = 00E7;
},
{
glyphname = d;
lastChange = "2020-01-09 15:04:51 +0000";
layers = (
{
layerId = "8A89AD82-2B0C-40F6-97CA-3AF9ED9FF3A8";
paths = (
{
closed = 1;
nodes = (
"317 570 LINE",
"70 570 LINE",
"70 0 LINE",
"400 0 LINE",
"400 784 LINE",
"317 784 LINE"
);
},
{
closed = 1;
nodes = (
"85 48 LINE",
"85 522 LINE",
"317 522 LINE",
"317 48 LINE"
);
}
);
width = 470;
},
{
layerId = "18468F94-9FC9-4171-B83A-16111EF84EF0";
paths = (
{
closed = 1;
nodes = (
"315 570 LINE",
"70 570 LINE",
"70 0 LINE",
"400 0 LINE",
"400 784 LINE",
"315 784 LINE"
);
},
{
closed = 1;
nodes = (
"110 50 LINE",
"110 520 LINE",
"315 520 LINE",
"315 50 LINE"
);
}
);
width = 470;
}
);
unicode = 0064;
},
{
glyphname = e;
lastChange = "2020-08-16 16:10:43 +0000";
layers = (
{
layerId = "8A89AD82-2B0C-40F6-97CA-3AF9ED9FF3A8";
paths = (
{
closed = 1;
nodes = (
"400 0 LINE",
"400 48 LINE",
"153 48 LINE",
"153 253 LINE",
"400 253 LINE",
"400 570 LINE",
"70 570 LINE",
"70 0 LINE"
);
},
{
closed = 1;
nodes = (
"153 522 LINE",
"385 522 LINE",
"385 268 LINE",
"153 268 LINE"
);
}
);
width = 470;
},
{
background = {
paths = (
{
closed = 1;
nodes = (
"400 570 LINE",
"70 570 LINE",
"70 0 LINE",
"400 0 LINE",
"400 50 LINE",
"155 50 LINE",
"155 241 LINE",
"400 241 LINE"
);
},
{
closed = 1;
nodes = (
"360 281 LINE",
"155 281 LINE",
"155 520 LINE",
"360 520 LINE"
);
}
);
};
layerId = "18468F94-9FC9-4171-B83A-16111EF84EF0";
paths = (
{
closed = 1;
nodes = (
"400 0 LINE",
"400 50 LINE",
"155 50 LINE",
"155 241 LINE",
"400 241 LINE",
"400 570 LINE",
"70 570 LINE",
"70 0 LINE"
);
},
{
closed = 1;
nodes = (
"155 520 LINE",
"360 520 LINE",
"360 281 LINE",
"155 281 LINE"
);
}
);
width = 470;
}
);
unicode = 0065;
},
{
glyphname = eacute;
lastChange = "2020-01-09 19:30:11 +0000";
layers = (
{
layerId = "8A89AD82-2B0C-40F6-97CA-3AF9ED9FF3A8";
paths = (
{
closed = 1;
nodes = (
"400 570 LINE",
"70 570 LINE",
"70 0 LINE",
"400 0 LINE",
"400 48 LINE",
"153 48 LINE",
"153 253 LINE",
"400 253 LINE"
);
},
{
closed = 1;
nodes = (
"385 268 LINE",
"153 268 LINE",
"153 522 LINE",
"385 522 LINE"
);
},
{
closed = 1;
nodes = (
"400 736 LINE",
"400 784 LINE",
"235 784 LINE",
"235 736 LINE"
);
}
);
width = 470;
},
{
layerId = "18468F94-9FC9-4171-B83A-16111EF84EF0";
paths = (
{
closed = 1;
nodes = (
"400 570 LINE",
"70 570 LINE",
"70 0 LINE",
"400 0 LINE",
"400 50 LINE",
"155 50 LINE",
"155 241 LINE",
"400 241 LINE"
);
},
{
closed = 1;
nodes = (
"360 281 LINE",
"155 281 LINE",
"155 520 LINE",
"360 520 LINE"
);
},
{
closed = 1;
nodes = (
"400 734 LINE",
"400 784 LINE",
"235 784 LINE",
"235 734 LINE"
);
}
);
width = 470;
}
);
unicode = 00E9;
},
{
glyphname = ecircumflex;
lastChange = "2020-01-09 19:30:24 +0000";
layers = (
{
layerId = "8A89AD82-2B0C-40F6-97CA-3AF9ED9FF3A8";
paths = (
{
closed = 1;
nodes = (
"70 736 LINE",
"70 784 LINE",
"400 784 LINE",
"400 736 LINE"
);
},
{
closed = 1;
nodes = (
"400 570 LINE",
"70 570 LINE",
"70 0 LINE",
"400 0 LINE",
"400 48 LINE",
"153 48 LINE",
"153 253 LINE",
"400 253 LINE"
);
},
{
closed = 1;
nodes = (
"385 268 LINE",
"153 268 LINE",
"153 522 LINE",
"385 522 LINE"
);
}
);
width = 470;
},
{
layerId = "18468F94-9FC9-4171-B83A-16111EF84EF0";
paths = (
{
closed = 1;
nodes = (
"400 570 LINE",
"70 570 LINE",
"70 0 LINE",
"400 0 LINE",
"400 50 LINE",
"155 50 LINE",
"155 241 LINE",
"400 241 LINE"
);
},
{
closed = 1;
nodes = (
"360 281 LINE",
"155 281 LINE",
"155 520 LINE",
"360 520 LINE"
);
},
{
closed = 1;
nodes = (
"70 734 LINE",
"70 784 LINE",
"400 784 LINE",
"400 734 LINE"
);
}
);
width = 470;
}
);
unicode = 00EA;
},
{
glyphname = edieresis;
lastChange = "2020-05-30 14:27:31 +0000";
layers = (
{
layerId = "8A89AD82-2B0C-40F6-97CA-3AF9ED9FF3A8";
paths = (
{
closed = 1;
nodes = (
"276 784 LINE",
"276 736 LINE",
"359 736 LINE",
"359 784 LINE"
);
},
{
closed = 1;
nodes = (
"110 784 LINE",
"110 736 LINE",
"193 736 LINE",
"193 784 LINE"
);
},
{
closed = 1;
nodes = (
"400 570 LINE",
"70 570 LINE",
"70 0 LINE",
"400 0 LINE",
"400 48 LINE",
"153 48 LINE",
"153 253 LINE",
"400 253 LINE"
);
},
{
closed = 1;
nodes = (
"385 268 LINE",
"153 268 LINE",
"153 522 LINE",
"385 522 LINE"
);
}
);
width = 470;
},
{
layerId = "18468F94-9FC9-4171-B83A-16111EF84EF0";
paths = (
{
closed = 1;
nodes = (
"400 570 LINE",
"70 570 LINE",
"70 0 LINE",
"400 0 LINE",
"400 50 LINE",
"155 50 LINE",
"155 241 LINE",
"400 241 LINE"
);
},
{
closed = 1;
nodes = (
"360 281 LINE",
"155 281 LINE",
"155 520 LINE",
"360 520 LINE"
);
},
{
closed = 1;
nodes = (
"278 784 LINE",
"278 734 LINE",
"363 734 LINE",
"363 784 LINE"
);
},
{
closed = 1;
nodes = (
"108 784 LINE",
"108 734 LINE",
"193 734 LINE",
"193 784 LINE"
);
}
);
width = 470;
}
);
unicode = 00EB;
},
{
glyphname = egrave;
lastChange = "2020-01-09 19:30:53 +0000";
layers = (
{
layerId = "8A89AD82-2B0C-40F6-97CA-3AF9ED9FF3A8";
paths = (
{
closed = 1;
nodes = (
"400 570 LINE",
"70 570 LINE",
"70 0 LINE",
"400 0 LINE",
"400 48 LINE",
"153 48 LINE",
"153 253 LINE",
"400 253 LINE"
);
},
{
closed = 1;
nodes = (
"385 268 LINE",
"153 268 LINE",
"153 522 LINE",
"385 522 LINE"
);
},
{
closed = 1;
nodes = (
"235 736 LINE",
"235 784 LINE",
"70 784 LINE",
"70 736 LINE"
);
}
);
width = 470;
},
{
layerId = "18468F94-9FC9-4171-B83A-16111EF84EF0";
paths = (
{
closed = 1;
nodes = (
"400 570 LINE",
"70 570 LINE",
"70 0 LINE",
"400 0 LINE",
"400 50 LINE",
"155 50 LINE",
"155 241 LINE",
"400 241 LINE"
);
},
{
closed = 1;
nodes = (
"360 281 LINE",
"155 281 LINE",
"155 520 LINE",
"360 520 LINE"
);
},
{
closed = 1;
nodes = (
"235 734 LINE",
"235 784 LINE",
"70 784 LINE",
"70 734 LINE"
);
}
);
width = 470;
}
);
unicode = 00E8;
},
{
glyphname = f;
lastChange = "2020-05-06 11:03:19 +0000";
layers = (
{
layerId = "8A89AD82-2B0C-40F6-97CA-3AF9ED9FF3A8";
paths = (
{
closed = 1;
nodes = (
"298 784 LINE",
"70 784 LINE",
"70 0 LINE",
"153 0 LINE",
"153 522 LINE",
"298 522 LINE",
"298 570 LINE",
"153 570 LINE",
"153 736 LINE",
"298 736 LINE"
);
}
);
width = 328;
},
{
layerId = "18468F94-9FC9-4171-B83A-16111EF84EF0";
paths = (
{
closed = 1;
nodes = (
"300 784 LINE",
"70 784 LINE",
"70 0 LINE",
"155 0 LINE",
"155 520 LINE",
"300 520 LINE",
"300 570 LINE",
"155 570 LINE",
"155 734 LINE",
"300 734 LINE"
);
}
);
width = 330;
}
);
unicode = 0066;
},
{
glyphname = g;
lastChange = "2020-05-02 15:08:18 +0000";
layers = (
{
layerId = "8A89AD82-2B0C-40F6-97CA-3AF9ED9FF3A8";
paths = (
{
closed = 1;
nodes = (
"70 570 LINE",
"70 0 LINE",
"317 0 LINE",
"317 -213 LINE",
"70 -213 LINE",
"70 -261 LINE",
"400 -261 LINE",
"400 570 LINE"
);
},
{
closed = 1;
nodes = (
"86 48 LINE",
"86 522 LINE",
"317 522 LINE",
"317 48 LINE"
);
}
);
width = 470;
},
{
layerId = "18468F94-9FC9-4171-B83A-16111EF84EF0";
paths = (
{
closed = 1;
nodes = (
"71 570 LINE",
"71 0 LINE",
"315 0 LINE",
"315 -211 LINE",
"70 -211 LINE",
"70 -261 LINE",
"400 -261 LINE",
"400 570 LINE"
);
},
{
closed = 1;
nodes = (
"111 50 LINE",
"111 520 LINE",
"315 520 LINE",
"315 50 LINE"
);
}
);
width = 470;
}
);
unicode = 0067;
},
{
glyphname = h;
lastChange = "2020-01-09 15:06:48 +0000";
layers = (
{
layerId = "8A89AD82-2B0C-40F6-97CA-3AF9ED9FF3A8";
paths = (
{
closed = 1;
nodes = (
"153 570 LINE",
"153 784 LINE",
"70 784 LINE",
"70 0 LINE",
"153 0 LINE",
"153 522 LINE",
"385 522 LINE",
"385 0 LINE",
"400 0 LINE",
"400 570 LINE"
);
}
);
width = 470;
},
{
layerId = "18468F94-9FC9-4171-B83A-16111EF84EF0";
paths = (
{
closed = 1;
nodes = (
"155 570 LINE",
"155 784 LINE",
"70 784 LINE",
"70 0 LINE",
"155 0 LINE",
"155 520 LINE",
"360 520 LINE",
"360 0 LINE",
"400 0 LINE",
"400 570 LINE"
);
}
);
width = 470;
}
);
unicode = 0068;
},
{
glyphname = i;
lastChange = "2020-01-08 18:15:25 +0000";
layers = (
{
layerId = "8A89AD82-2B0C-40F6-97CA-3AF9ED9FF3A8";
paths = (
{
closed = 1;
nodes = (
"70 0 LINE",
"70 570 LINE",
"153 570 LINE",
"153 0 LINE"
);
},
{
closed = 1;
nodes = (
"70 784 LINE",
"70 736 LINE",
"153 736 LINE",
"153 784 LINE"
);
}
);
width = 223;
},
{
layerId = "18468F94-9FC9-4171-B83A-16111EF84EF0";
paths = (
{
closed = 1;
nodes = (
"70 0 LINE",
"70 570 LINE",
"155 570 LINE",
"155 0 LINE"
);
},
{
closed = 1;
nodes = (
"70 784 LINE",
"70 734 LINE",
"155 734 LINE",
"155 784 LINE"
);
}
);
width = 225;
}
);
unicode = 0069;
},
{
glyphname = iacute;
lastChange = "2020-01-09 21:42:14 +0000";
layers = (
{
layerId = "8A89AD82-2B0C-40F6-97CA-3AF9ED9FF3A8";
paths = (
{
closed = 1;
nodes = (
"235 736 LINE",
"235 784 LINE",
"70 784 LINE",
"70 736 LINE"
);
},
{
closed = 1;
nodes = (
"70 0 LINE",
"70 570 LINE",
"153 570 LINE",
"153 0 LINE"
);
}
);
width = 223;
},
{
layerId = "18468F94-9FC9-4171-B83A-16111EF84EF0";
paths = (
{
closed = 1;
nodes = (
"70 0 LINE",
"70 570 LINE",
"155 570 LINE",
"155 0 LINE"
);
},
{
closed = 1;
nodes = (
"235 734 LINE",
"235 784 LINE",
"70 784 LINE",
"70 734 LINE"
);
}
);
width = 223;
}
);
unicode = 00ED;
},
{
glyphname = icircumflex;
lastChange = "2020-01-09 20:58:16 +0000";
layers = (
{
layerId = "8A89AD82-2B0C-40F6-97CA-3AF9ED9FF3A8";
paths = (
{
closed = 1;
nodes = (
"-54 736 LINE",
"-54 784 LINE",
"276 784 LINE",
"276 736 LINE"
);
},
{
closed = 1;
nodes = (
"70 0 LINE",
"70 570 LINE",
"153 570 LINE",
"153 0 LINE"
);
}
);
width = 222;
},
{
layerId = "18468F94-9FC9-4171-B83A-16111EF84EF0";
paths = (
{
closed = 1;
nodes = (
"70 0 LINE",
"70 570 LINE",
"155 570 LINE",
"155 0 LINE"
);
},
{
closed = 1;
nodes = (
"-52 734 LINE",
"-52 784 LINE",
"278 784 LINE",
"278 734 LINE"
);
}
);
width = 226;
}
);
unicode = 00EE;
},
{
glyphname = idieresis;
lastChange = "2020-05-30 14:25:24 +0000";
layers = (
{
layerId = "8A89AD82-2B0C-40F6-97CA-3AF9ED9FF3A8";
paths = (
{
closed = 1;
nodes = (
"70 0 LINE",
"70 570 LINE",
"153 570 LINE",
"153 0 LINE"
);
},
{
closed = 1;
nodes = (
"153 784 LINE",
"153 736 LINE",
"236 736 LINE",
"236 784 LINE"
);
},
{
closed = 1;
nodes = (
"-13 784 LINE",
"-13 736 LINE",
"70 736 LINE",
"70 784 LINE"
);
}
);
width = 223;
},
{
layerId = "18468F94-9FC9-4171-B83A-16111EF84EF0";
paths = (
{
closed = 1;
nodes = (
"70 0 LINE",
"70 570 LINE",
"155 570 LINE",
"155 0 LINE"
);
},
{
closed = 1;
nodes = (
"155 784 LINE",
"155 734 LINE",
"240 734 LINE",
"240 784 LINE"
);
},
{
closed = 1;
nodes = (
"-15 784 LINE",
"-15 734 LINE",
"70 734 LINE",
"70 784 LINE"
);
}
);
width = 225;
}
);
unicode = 00EF;
},
{
glyphname = igrave;
lastChange = "2020-01-09 21:41:52 +0000";
layers = (
{
layerId = "8A89AD82-2B0C-40F6-97CA-3AF9ED9FF3A8";
paths = (
{
closed = 1;
nodes = (
"153 736 LINE",
"153 784 LINE",
"-12 784 LINE",
"-12 736 LINE"
);
},
{
closed = 1;
nodes = (
"70 0 LINE",
"70 570 LINE",
"153 570 LINE",
"153 0 LINE"
);
}
);
width = 223;
},
{
layerId = "18468F94-9FC9-4171-B83A-16111EF84EF0";
paths = (
{
closed = 1;
nodes = (
"68 0 LINE",
"68 570 LINE",
"153 570 LINE",
"153 0 LINE"
);
},
{
closed = 1;
nodes = (
"153 736 LINE",
"153 784 LINE",
"-12 784 LINE",
"-12 736 LINE"
);
}
);
width = 223;
}
);
unicode = 00EC;
},
{
glyphname = j;
lastChange = "2020-08-16 16:10:34 +0000";
layers = (
{
layerId = "8A89AD82-2B0C-40F6-97CA-3AF9ED9FF3A8";
paths = (
{
closed = 1;
nodes = (
"153 -261 LINE",
"153 570 LINE",
"70 570 LINE",
"70 -261 LINE"
);
},
{
closed = 1;
nodes = (
"153 736 LINE",
"153 784 LINE",
"70 784 LINE",
"70 736 LINE"
);
}
);
width = 223;
},
{
layerId = "18468F94-9FC9-4171-B83A-16111EF84EF0";
paths = (
{
closed = 1;
nodes = (
"155 -261 LINE",
"155 570 LINE",
"70 570 LINE",
"74 -261 LINE"
);
},
{
closed = 1;
nodes = (
"155 736 LINE",
"155 784 LINE",
"70 784 LINE",
"70 736 LINE"
);
}
);
width = 225;
}
);
unicode = 006A;
},
{
glyphname = k;
lastChange = "2020-06-25 15:17:08 +0000";
layers = (
{
layerId = "8A89AD82-2B0C-40F6-97CA-3AF9ED9FF3A8";
paths = (
{
closed = 1;
nodes = (
"355 268 LINE",
"153 268 LINE",
"153 784 LINE",
"70 784 LINE",
"70 0 LINE",
"153 0 LINE",
"153 253 LINE",
"370 253 LINE",
"370 0 LINE",
"453 0 LINE",
"453 268 LINE",
"370 268 LINE",
"370 570 LINE",
"355 570 LINE"
);
}
);
width = 513;
},
{
layerId = "18468F94-9FC9-4171-B83A-16111EF84EF0";
paths = (
{
closed = 1;
nodes = (
"320 281 LINE",
"155 281 LINE",
"155 784 LINE",
"70 784 LINE",
"70 0 LINE",
"155 0 LINE",
"155 241 LINE",
"360 241 LINE",
"360 0 LINE",
"400 0 LINE",
"400 281 LINE",
"360 281 LINE",
"360 570 LINE",
"320 570 LINE"
);
}
);
width = 460;
}
);
unicode = 006B;
},
{
glyphname = l;
lastChange = "2020-05-06 10:58:11 +0000";
layers = (
{
layerId = "8A89AD82-2B0C-40F6-97CA-3AF9ED9FF3A8";
paths = (
{
closed = 1;
nodes = (
"70 0 LINE",
"70 784 LINE",
"153 784 LINE",
"153 0 LINE"
);
}
);
width = 223;
},
{
layerId = "18468F94-9FC9-4171-B83A-16111EF84EF0";
paths = (
{
closed = 1;
nodes = (
"70 0 LINE",
"70 784 LINE",
"155 784 LINE",
"155 0 LINE"
);
}
);
width = 225;
}
);
unicode = 006C;
},
{
glyphname = m;
lastChange = "2020-04-03 15:32:02 +0000";
layers = (
{
layerId = "8A89AD82-2B0C-40F6-97CA-3AF9ED9FF3A8";
paths = (
{
closed = 1;
nodes = (
"70 570 LINE",
"70 0 LINE",
"153 0 LINE",
"153 522 LINE",
"383 522 LINE",
"383 0 LINE",
"398 0 LINE",
"398 522 LINE",
"628 522 LINE",
"628 0 LINE",
"711 0 LINE",
"711 570 LINE"
);
}
);
width = 781;
},
{
layerId = "18468F94-9FC9-4171-B83A-16111EF84EF0";
paths = (
{
closed = 1;
nodes = (
"70 570 LINE",
"70 0 LINE",
"155 0 LINE",
"155 520 LINE",
"365 520 LINE",
"365 0 LINE",
"415 0 LINE",
"415 520 LINE",
"625 520 LINE",
"625 0 LINE",
"710 0 LINE",
"710 570 LINE"
);
}
);
width = 780;
}
);
unicode = 006D;
},
{
glyphname = n;
lastChange = "2020-06-25 15:10:59 +0000";
layers = (
{
layerId = "8A89AD82-2B0C-40F6-97CA-3AF9ED9FF3A8";
paths = (
{
closed = 1;
nodes = (
"70 570 LINE",
"70 0 LINE",
"153 0 LINE",
"153 522 LINE",
"385 522 LINE",
"385 0 LINE",
"400 0 LINE",
"400 570 LINE"
);
}
);
width = 470;
},
{
layerId = "18468F94-9FC9-4171-B83A-16111EF84EF0";
paths = (
{
closed = 1;
nodes = (
"70 570 LINE",
"70 0 LINE",
"155 0 LINE",
"155 520 LINE",
"360 520 LINE",
"360 0 LINE",
"400 0 LINE",
"400 570 LINE"
);
}
);
width = 470;
}
);
unicode = 006E;
},
{
glyphname = ntilde;
lastChange = "2020-07-31 15:02:34 +0000";
layers = (
{
layerId = "8A89AD82-2B0C-40F6-97CA-3AF9ED9FF3A8";
paths = (
{
closed = 1;
nodes = (
"70 570 LINE",
"70 0 LINE",
"153 0 LINE",
"153 522 LINE",
"385 522 LINE",
"385 0 LINE",
"400 0 LINE",
"400 570 LINE"
);
},
{
closed = 1;
nodes = (
"144 689 LINE",
"144 744 LINE",
"227 744 LINE",
"227 689 LINE",
"340 689 LINE",
"340 784 LINE",
"325 784 LINE",
"325 729 LINE",
"242 729 LINE",
"242 784 LINE",
"129 784 LINE",
"129 689 LINE"
);
}
);
width = 470;
},
{
layerId = "18468F94-9FC9-4171-B83A-16111EF84EF0";
paths = (
{
closed = 1;
nodes = (
"70 570 LINE",
"70 0 LINE",
"155 0 LINE",
"155 520 LINE",
"360 520 LINE",
"360 0 LINE",
"400 0 LINE",
"400 570 LINE"
);
},
{
closed = 1;
nodes = (
"142 689 LINE",
"142 744 LINE",
"227 744 LINE",
"227 689 LINE",
"342 689 LINE",
"342 784 LINE",
"327 784 LINE",
"327 729 LINE",
"242 729 LINE",
"242 784 LINE",
"127 784 LINE",
"127 689 LINE"
);
}
);
width = 470;
}
);
unicode = 00F1;
},
{
glyphname = o;
lastChange = "2020-05-06 10:44:53 +0000";
layers = (
{
layerId = "8A89AD82-2B0C-40F6-97CA-3AF9ED9FF3A8";
paths = (
{
closed = 1;
nodes = (
"70 570 LINE",
"70 0 LINE",
"400 0 LINE",
"400 570 LINE"
);
},
{
closed = 1;
nodes = (
"153 522 LINE",
"385 522 LINE",
"385 48 LINE",
"153 48 LINE"
);
}
);
width = 470;
},
{
layerId = "18468F94-9FC9-4171-B83A-16111EF84EF0";
paths = (
{
closed = 1;
nodes = (
"70 570 LINE",
"70 0 LINE",
"400 0 LINE",
"400 570 LINE"
);
},
{
closed = 1;
nodes = (
"155 520 LINE",
"360 520 LINE",
"360 50 LINE",
"155 50 LINE"
);
}
);
width = 470;
}
);
unicode = 006F;
},
{
glyphname = oacute;
lastChange = "2020-01-09 15:18:22 +0000";
layers = (
{
layerId = "8A89AD82-2B0C-40F6-97CA-3AF9ED9FF3A8";
paths = (
{
closed = 1;
nodes = (
"70 570 LINE",
"70 0 LINE",
"400 0 LINE",
"400 570 LINE"
);
},
{
closed = 1;
nodes = (
"153 522 LINE",
"385 522 LINE",
"385 48 LINE",
"153 48 LINE"
);
},
{
closed = 1;
nodes = (
"400 736 LINE",
"400 784 LINE",
"235 784 LINE",
"235 736 LINE"
);
}
);
width = 470;
},
{
layerId = "18468F94-9FC9-4171-B83A-16111EF84EF0";
paths = (
{
closed = 1;
nodes = (
"70 570 LINE",
"70 0 LINE",
"400 0 LINE",
"400 570 LINE"
);
},
{
closed = 1;
nodes = (
"155 520 LINE",
"360 520 LINE",
"360 50 LINE",
"155 50 LINE"
);
},
{
closed = 1;
nodes = (
"400 734 LINE",
"400 784 LINE",
"235 784 LINE",
"235 734 LINE"
);
}
);
width = 470;
}
);
unicode = 00F3;
},
{
glyphname = ocircumflex;
lastChange = "2020-01-09 15:18:26 +0000";
layers = (
{
layerId = "8A89AD82-2B0C-40F6-97CA-3AF9ED9FF3A8";
paths = (
{
closed = 1;
nodes = (
"70 736 LINE",
"70 784 LINE",
"400 784 LINE",
"400 736 LINE"
);
},
{
closed = 1;
nodes = (
"70 570 LINE",
"70 0 LINE",
"400 0 LINE",
"400 570 LINE"
);
},
{
closed = 1;
nodes = (
"153 522 LINE",
"385 522 LINE",
"385 48 LINE",
"153 48 LINE"
);
}
);
width = 470;
},
{
layerId = "18468F94-9FC9-4171-B83A-16111EF84EF0";
paths = (
{
closed = 1;
nodes = (
"70 570 LINE",
"70 0 LINE",
"400 0 LINE",
"400 570 LINE"
);
},
{
closed = 1;
nodes = (
"155 520 LINE",
"360 520 LINE",
"360 50 LINE",
"155 50 LINE"
);
},
{
closed = 1;
nodes = (
"70 734 LINE",
"70 784 LINE",
"400 784 LINE",
"400 734 LINE"
);
}
);
width = 470;
}
);
unicode = 00F4;
},
{
glyphname = odieresis;
lastChange = "2020-05-30 14:27:46 +0000";
layers = (
{
layerId = "8A89AD82-2B0C-40F6-97CA-3AF9ED9FF3A8";
paths = (
{
closed = 1;
nodes = (
"70 570 LINE",
"70 0 LINE",
"400 0 LINE",
"400 570 LINE"
);
},
{
closed = 1;
nodes = (
"153 522 LINE",
"385 522 LINE",
"385 48 LINE",
"153 48 LINE"
);
},
{
closed = 1;
nodes = (
"276 784 LINE",
"276 736 LINE",
"359 736 LINE",
"359 784 LINE"
);
},
{
closed = 1;
nodes = (
"110 784 LINE",
"110 736 LINE",
"193 736 LINE",
"193 784 LINE"
);
}
);
width = 470;
},
{
layerId = "18468F94-9FC9-4171-B83A-16111EF84EF0";
paths = (
{
closed = 1;
nodes = (
"70 570 LINE",
"70 0 LINE",
"400 0 LINE",
"400 570 LINE"
);
},
{
closed = 1;
nodes = (
"155 520 LINE",
"360 520 LINE",
"360 50 LINE",
"155 50 LINE"
);
},
{
closed = 1;
nodes = (
"278 784 LINE",
"278 734 LINE",
"363 734 LINE",
"363 784 LINE"
);
},
{
closed = 1;
nodes = (
"108 784 LINE",
"108 734 LINE",
"193 734 LINE",
"193 784 LINE"
);
}
);
width = 470;
}
);
unicode = 00F6;
},
{
glyphname = ograve;
lastChange = "2020-01-09 15:18:35 +0000";
layers = (
{
layerId = "8A89AD82-2B0C-40F6-97CA-3AF9ED9FF3A8";
paths = (
{
closed = 1;
nodes = (
"70 570 LINE",
"70 0 LINE",
"400 0 LINE",
"400 570 LINE"
);
},
{
closed = 1;
nodes = (
"153 522 LINE",
"385 522 LINE",
"385 48 LINE",
"153 48 LINE"
);
},
{
closed = 1;
nodes = (
"235 736 LINE",
"235 784 LINE",
"70 784 LINE",
"70 736 LINE"
);
}
);
width = 470;
},
{
layerId = "18468F94-9FC9-4171-B83A-16111EF84EF0";
paths = (
{
closed = 1;
nodes = (
"70 570 LINE",
"70 0 LINE",
"400 0 LINE",
"400 570 LINE"
);
},
{
closed = 1;
nodes = (
"155 520 LINE",
"360 520 LINE",
"360 50 LINE",
"155 50 LINE"
);
},
{
closed = 1;
nodes = (
"235 734 LINE",
"235 784 LINE",
"70 784 LINE",
"70 734 LINE"
);
}
);
width = 470;
}
);
unicode = 00F2;
},
{
glyphname = otilde;
lastChange = "2020-07-31 15:03:21 +0000";
layers = (
{
layerId = "8A89AD82-2B0C-40F6-97CA-3AF9ED9FF3A8";
paths = (
{
closed = 1;
nodes = (
"70 570 LINE",
"70 0 LINE",
"400 0 LINE",
"400 570 LINE"
);
},
{
closed = 1;
nodes = (
"153 522 LINE",
"385 522 LINE",
"385 48 LINE",
"153 48 LINE"
);
},
{
closed = 1;
nodes = (
"144 689 LINE",
"144 744 LINE",
"227 744 LINE",
"227 689 LINE",
"340 689 LINE",
"340 784 LINE",
"325 784 LINE",
"325 729 LINE",
"242 729 LINE",
"242 784 LINE",
"129 784 LINE",
"129 689 LINE"
);
}
);
width = 470;
},
{
layerId = "18468F94-9FC9-4171-B83A-16111EF84EF0";
paths = (
{
closed = 1;
nodes = (
"70 570 LINE",
"70 0 LINE",
"400 0 LINE",
"400 570 LINE"
);
},
{
closed = 1;
nodes = (
"155 520 LINE",
"360 520 LINE",
"360 50 LINE",
"155 50 LINE"
);
},
{
closed = 1;
nodes = (
"142 689 LINE",
"142 744 LINE",
"227 744 LINE",
"227 689 LINE",
"342 689 LINE",
"342 784 LINE",
"327 784 LINE",
"327 729 LINE",
"242 729 LINE",
"242 784 LINE",
"127 784 LINE",
"127 689 LINE"
);
}
);
width = 470;
}
);
unicode = 00F5;
},
{
glyphname = oe;
lastChange = "2020-01-09 20:46:04 +0000";
layers = (
{
layerId = "8A89AD82-2B0C-40F6-97CA-3AF9ED9FF3A8";
paths = (
{
closed = 1;
nodes = (
"710 570 LINE",
"70 570 LINE",
"70 0 LINE",
"711 0 LINE",
"711 48 LINE",
"463 48 LINE",
"463 253 LINE",
"710 253 LINE"
);
},
{
closed = 1;
nodes = (
"695 522 LINE",
"695 268 LINE",
"463 268 LINE",
"463 522 LINE"
);
},
{
closed = 1;
nodes = (
"153 48 LINE",
"153 522 LINE",
"380 522 LINE",
"380 48 LINE"
);
}
);
width = 781;
},
{
layerId = "18468F94-9FC9-4171-B83A-16111EF84EF0";
paths = (
{
closed = 1;
nodes = (
"710 570 LINE",
"70 570 LINE",
"70 0 LINE",
"711 0 LINE",
"711 50 LINE",
"464 50 LINE",
"464 241 LINE",
"710 241 LINE"
);
},
{
closed = 1;
nodes = (
"670 520 LINE",
"670 281 LINE",
"464 281 LINE",
"464 520 LINE"
);
},
{
closed = 1;
nodes = (
"155 50 LINE",
"155 520 LINE",
"379 520 LINE",
"379 50 LINE"
);
}
);
width = 781;
}
);
unicode = 0153;
},
{
glyphname = p;
lastChange = "2020-05-02 15:08:28 +0000";
layers = (
{
layerId = "8A89AD82-2B0C-40F6-97CA-3AF9ED9FF3A8";
paths = (
{
closed = 1;
nodes = (
"70 570 LINE",
"70 -261 LINE",
"153 -261 LINE",
"153 0 LINE",
"400 0 LINE",
"400 570 LINE"
);
},
{
closed = 1;
nodes = (
"153 522 LINE",
"385 522 LINE",
"385 48 LINE",
"153 48 LINE"
);
}
);
width = 470;
},
{
layerId = "18468F94-9FC9-4171-B83A-16111EF84EF0";
paths = (
{
closed = 1;
nodes = (
"70 570 LINE",
"70 -261 LINE",
"155 -261 LINE",
"155 0 LINE",
"400 0 LINE",
"400 570 LINE"
);
},
{
closed = 1;
nodes = (
"155 520 LINE",
"360 520 LINE",
"360 50 LINE",
"155 50 LINE"
);
}
);
width = 470;
}
);
unicode = 0070;
},
{
glyphname = q;
lastChange = "2020-01-09 15:19:03 +0000";
layers = (
{
layerId = "8A89AD82-2B0C-40F6-97CA-3AF9ED9FF3A8";
paths = (
{
closed = 1;
nodes = (
"70 570 LINE",
"70 0 LINE",
"317 0 LINE",
"317 -261 LINE",
"400 -261 LINE",
"400 570 LINE"
);
},
{
closed = 1;
nodes = (
"85 522 LINE",
"317 522 LINE",
"317 48 LINE",
"85 48 LINE"
);
}
);
width = 470;
},
{
layerId = "18468F94-9FC9-4171-B83A-16111EF84EF0";
paths = (
{
closed = 1;
nodes = (
"70 570 LINE",
"70 0 LINE",
"315 0 LINE",
"315 -261 LINE",
"400 -261 LINE",
"400 570 LINE"
);
},
{
closed = 1;
nodes = (
"110 520 LINE",
"315 520 LINE",
"315 50 LINE",
"110 50 LINE"
);
}
);
width = 470;
}
);
unicode = 0071;
},
{
glyphname = r;
lastChange = "2020-05-06 10:45:53 +0000";
layers = (
{
layerId = "8A89AD82-2B0C-40F6-97CA-3AF9ED9FF3A8";
paths = (
{
closed = 1;
nodes = (
"70 570 LINE",
"70 0 LINE",
"153 0 LINE",
"153 522 LINE",
"298 522 LINE",
"298 570 LINE"
);
}
);
width = 328;
},
{
layerId = "18468F94-9FC9-4171-B83A-16111EF84EF0";
paths = (
{
closed = 1;
nodes = (
"70 570 LINE",
"70 0 LINE",
"155 0 LINE",
"155 520 LINE",
"300 520 LINE",
"300 570 LINE"
);
}
);
width = 330;
}
);
unicode = 0072;
},
{
glyphname = s;
lastChange = "2020-07-30 21:22:26 +0000";
layers = (
{
layerId = "8A89AD82-2B0C-40F6-97CA-3AF9ED9FF3A8";
paths = (
{
closed = 1;
nodes = (
"400 268 LINE",
"153 268 LINE",
"153 522 LINE",
"400 522 LINE",
"400 570 LINE",
"70 570 LINE",
"70 253 LINE",
"385 253 LINE",
"385 48 LINE",
"70 48 LINE",
"70 0 LINE",
"400 0 LINE"
);
}
);
width = 470;
},
{
layerId = "18468F94-9FC9-4171-B83A-16111EF84EF0";
paths = (
{
closed = 1;
nodes = (
"400 281 LINE",
"155 281 LINE",
"155 520 LINE",
"400 520 LINE",
"400 570 LINE",
"70 570 LINE",
"70 241 LINE",
"360 241 LINE",
"360 50 LINE",
"70 50 LINE",
"70 0 LINE",
"400 0 LINE"
);
}
);
width = 470;
}
);
unicode = 0073;
},
{
glyphname = t;
lastChange = "2020-05-02 14:18:13 +0000";
layers = (
{
layerId = "8A89AD82-2B0C-40F6-97CA-3AF9ED9FF3A8";
paths = (
{
closed = 1;
nodes = (
"153 570 LINE",
"153 784 LINE",
"70 784 LINE",
"70 0 LINE",
"153 0 LINE",
"153 522 LINE",
"298 522 LINE",
"298 570 LINE"
);
}
);
width = 328;
},
{
layerId = "18468F94-9FC9-4171-B83A-16111EF84EF0";
paths = (
{
closed = 1;
nodes = (
"155 570 LINE",
"155 784 LINE",
"70 784 LINE",
"70 0 LINE",
"155 0 LINE",
"155 520 LINE",
"300 520 LINE",
"300 570 LINE"
);
}
);
width = 330;
}
);
unicode = 0074;
},
{
glyphname = u;
lastChange = "2020-04-04 12:42:21 +0000";
layers = (
{
layerId = "8A89AD82-2B0C-40F6-97CA-3AF9ED9FF3A8";
paths = (
{
closed = 1;
nodes = (
"385 570 LINE",
"385 48 LINE",
"153 48 LINE",
"153 570 LINE",
"70 570 LINE",
"70 0 LINE",
"400 0 LINE",
"400 570 LINE"
);
}
);
width = 470;
},
{
layerId = "18468F94-9FC9-4171-B83A-16111EF84EF0";
paths = (
{
closed = 1;
nodes = (
"360 570 LINE",
"360 50 LINE",
"155 50 LINE",
"155 570 LINE",
"70 570 LINE",
"70 0 LINE",
"400 0 LINE",
"400 570 LINE"
);
}
);
width = 470;
}
);
unicode = 0075;
},
{
glyphname = uacute;
lastChange = "2020-01-09 15:21:24 +0000";
layers = (
{
layerId = "8A89AD82-2B0C-40F6-97CA-3AF9ED9FF3A8";
paths = (
{
closed = 1;
nodes = (
"385 570 LINE",
"385 48 LINE",
"153 48 LINE",
"153 570 LINE",
"70 570 LINE",
"70 0 LINE",
"400 0 LINE",
"400 570 LINE"
);
},
{
closed = 1;
nodes = (
"400 736 LINE",
"400 784 LINE",
"235 784 LINE",
"235 736 LINE"
);
}
);
width = 470;
},
{
layerId = "18468F94-9FC9-4171-B83A-16111EF84EF0";
paths = (
{
closed = 1;
nodes = (
"360 570 LINE",
"360 50 LINE",
"155 50 LINE",
"155 570 LINE",
"70 570 LINE",
"70 0 LINE",
"400 0 LINE",
"400 570 LINE"
);
},
{
closed = 1;
nodes = (
"400 734 LINE",
"400 784 LINE",
"235 784 LINE",
"235 734 LINE"
);
}
);
width = 470;
}
);
unicode = 00FA;
},
{
glyphname = ucircumflex;
lastChange = "2020-01-09 15:21:29 +0000";
layers = (
{
layerId = "8A89AD82-2B0C-40F6-97CA-3AF9ED9FF3A8";
paths = (
{
closed = 1;
nodes = (
"385 570 LINE",
"385 48 LINE",
"153 48 LINE",
"153 570 LINE",
"70 570 LINE",
"70 0 LINE",
"400 0 LINE",
"400 570 LINE"
);
},
{
closed = 1;
nodes = (
"70 736 LINE",
"70 784 LINE",
"400 784 LINE",
"400 736 LINE"
);
}
);
width = 470;
},
{
layerId = "18468F94-9FC9-4171-B83A-16111EF84EF0";
paths = (
{
closed = 1;
nodes = (
"360 570 LINE",
"360 50 LINE",
"155 50 LINE",
"155 570 LINE",
"70 570 LINE",
"70 0 LINE",
"400 0 LINE",
"400 570 LINE"
);
},
{
closed = 1;
nodes = (
"70 734 LINE",
"70 784 LINE",
"400 784 LINE",
"400 734 LINE"
);
}
);
width = 470;
}
);
unicode = 00FB;
},
{
glyphname = udieresis;
lastChange = "2020-05-30 14:29:02 +0000";
layers = (
{
layerId = "8A89AD82-2B0C-40F6-97CA-3AF9ED9FF3A8";
paths = (
{
closed = 1;
nodes = (
"385 570 LINE",
"385 48 LINE",
"153 48 LINE",
"153 570 LINE",
"70 570 LINE",
"70 0 LINE",
"400 0 LINE",
"400 570 LINE"
);
},
{
closed = 1;
nodes = (
"276 784 LINE",
"276 736 LINE",
"359 736 LINE",
"359 784 LINE"
);
},
{
closed = 1;
nodes = (
"110 784 LINE",
"110 736 LINE",
"193 736 LINE",
"193 784 LINE"
);
}
);
width = 470;
},
{
layerId = "18468F94-9FC9-4171-B83A-16111EF84EF0";
paths = (
{
closed = 1;
nodes = (
"360 570 LINE",
"360 50 LINE",
"155 50 LINE",
"155 570 LINE",
"70 570 LINE",
"70 0 LINE",
"400 0 LINE",
"400 570 LINE"
);
},
{
closed = 1;
nodes = (
"278 784 LINE",
"278 734 LINE",
"363 734 LINE",
"363 784 LINE"
);
},
{
closed = 1;
nodes = (
"108 784 LINE",
"108 734 LINE",
"193 734 LINE",
"193 784 LINE"
);
}
);
width = 470;
}
);
unicode = 00FC;
},
{
glyphname = ugrave;
lastChange = "2020-01-09 15:21:37 +0000";
layers = (
{
layerId = "8A89AD82-2B0C-40F6-97CA-3AF9ED9FF3A8";
paths = (
{
closed = 1;
nodes = (
"385 570 LINE",
"385 48 LINE",
"153 48 LINE",
"153 570 LINE",
"70 570 LINE",
"70 0 LINE",
"400 0 LINE",
"400 570 LINE"
);
},
{
closed = 1;
nodes = (
"235 736 LINE",
"235 784 LINE",
"70 784 LINE",
"70 736 LINE"
);
}
);
width = 470;
},
{
layerId = "18468F94-9FC9-4171-B83A-16111EF84EF0";
paths = (
{
closed = 1;
nodes = (
"360 570 LINE",
"360 50 LINE",
"155 50 LINE",
"155 570 LINE",
"70 570 LINE",
"70 0 LINE",
"400 0 LINE",
"400 570 LINE"
);
},
{
closed = 1;
nodes = (
"235 734 LINE",
"235 784 LINE",
"70 784 LINE",
"70 734 LINE"
);
}
);
width = 470;
}
);
unicode = 00F9;
},
{
glyphname = v;
lastChange = "2020-06-25 15:17:29 +0000";
layers = (
{
layerId = "8A89AD82-2B0C-40F6-97CA-3AF9ED9FF3A8";
paths = (
{
closed = 1;
nodes = (
"375 48 LINE",
"226 48 LINE",
"226 268 LINE",
"143 268 LINE",
"143 570 LINE",
"60 570 LINE",
"60 253 LINE",
"143 253 LINE",
"143 0 LINE",
"390 0 LINE",
"390 570 LINE",
"375 570 LINE"
);
}
);
width = 460;
},
{
layerId = "18468F94-9FC9-4171-B83A-16111EF84EF0";
paths = (
{
closed = 1;
nodes = (
"350 50 LINE",
"230 50 LINE",
"230 281 LINE",
"145 281 LINE",
"145 570 LINE",
"60 570 LINE",
"60 241 LINE",
"145 241 LINE",
"145 0 LINE",
"390 0 LINE",
"390 570 LINE",
"350 570 LINE"
);
}
);
width = 460;
}
);
unicode = 0076;
},
{
glyphname = w;
lastChange = "2020-04-03 15:32:16 +0000";
layers = (
{
layerId = "8A89AD82-2B0C-40F6-97CA-3AF9ED9FF3A8";
paths = (
{
closed = 1;
nodes = (
"711 570 LINE",
"628 570 LINE",
"628 48 LINE",
"398 48 LINE",
"398 570 LINE",
"383 570 LINE",
"383 48 LINE",
"153 48 LINE",
"153 570 LINE",
"70 570 LINE",
"70 0 LINE",
"711 0 LINE"
);
}
);
width = 781;
},
{
layerId = "18468F94-9FC9-4171-B83A-16111EF84EF0";
paths = (
{
closed = 1;
nodes = (
"710 570 LINE",
"625 570 LINE",
"625 50 LINE",
"415 50 LINE",
"415 570 LINE",
"365 570 LINE",
"365 50 LINE",
"155 50 LINE",
"155 570 LINE",
"70 570 LINE",
"70 0 LINE",
"710 0 LINE"
);
}
);
width = 780;
}
);
unicode = 0077;
},
{
glyphname = x;
lastChange = "2020-06-25 15:17:20 +0000";
layers = (
{
layerId = "8A89AD82-2B0C-40F6-97CA-3AF9ED9FF3A8";
paths = (
{
closed = 1;
nodes = (
"483 268 LINE",
"483 570 LINE",
"468 570 LINE",
"468 268 LINE",
"236 268 LINE",
"236 570 LINE",
"153 570 LINE",
"153 268 LINE",
"70 268 LINE",
"70 0 LINE",
"153 0 LINE",
"153 253 LINE",
"483 253 LINE",
"483 0 LINE",
"566 0 LINE",
"566 268 LINE"
);
}
);
width = 626;
},
{
layerId = "18468F94-9FC9-4171-B83A-16111EF84EF0";
paths = (
{
closed = 1;
nodes = (
"471 281 LINE",
"471 570 LINE",
"431 570 LINE",
"431 281 LINE",
"230 281 LINE",
"230 570 LINE",
"145 570 LINE",
"145 281 LINE",
"60 281 LINE",
"60 0 LINE",
"145 0 LINE",
"145 241 LINE",
"471 241 LINE",
"471 0 LINE",
"556 0 LINE",
"556 281 LINE"
);
}
);
width = 616;
}
);
unicode = 0078;
},
{
glyphname = y;
lastChange = "2020-01-09 15:21:57 +0000";
layers = (
{
layerId = "8A89AD82-2B0C-40F6-97CA-3AF9ED9FF3A8";
paths = (
{
closed = 1;
nodes = (
"317 570 LINE",
"317 48 LINE",
"85 48 LINE",
"85 570 LINE",
"70 570 LINE",
"70 0 LINE",
"317 0 LINE",
"317 -213 LINE",
"70 -213 LINE",
"70 -261 LINE",
"400 -261 LINE",
"400 570 LINE"
);
}
);
width = 470;
},
{
layerId = "18468F94-9FC9-4171-B83A-16111EF84EF0";
paths = (
{
closed = 1;
nodes = (
"315 570 LINE",
"315 50 LINE",
"110 50 LINE",
"110 570 LINE",
"70 570 LINE",
"70 0 LINE",
"315 0 LINE",
"315 -211 LINE",
"70 -211 LINE",
"70 -261 LINE",
"400 -261 LINE",
"400 570 LINE"
);
}
);
width = 470;
}
);
unicode = 0079;
},
{
glyphname = z;
lastChange = "2020-06-30 11:14:43 +0000";
layers = (
{
layerId = "8A89AD82-2B0C-40F6-97CA-3AF9ED9FF3A8";
paths = (
{
closed = 1;
nodes = (
"400 570 LINE",
"70 570 LINE",
"70 522 LINE",
"317 522 LINE",
"317 268 LINE",
"227 268 LINE",
"227 178 LINE",
"70 178 LINE",
"70 0 LINE",
"400 0 LINE",
"400 48 LINE",
"153 48 LINE",
"153 163 LINE",
"242 163 LINE",
"242 253 LINE",
"400 253 LINE"
);
}
);
width = 470;
},
{
layerId = "18468F94-9FC9-4171-B83A-16111EF84EF0";
paths = (
{
closed = 1;
nodes = (
"400 570 LINE",
"70 570 LINE",
"70 520 LINE",
"315 520 LINE",
"315 281 LINE",
"215 281 LINE",
"215 181 LINE",
"70 181 LINE",
"70 0 LINE",
"400 0 LINE",
"400 50 LINE",
"155 50 LINE",
"155 141 LINE",
"255 141 LINE",
"255 241 LINE",
"400 241 LINE"
);
}
);
width = 470;
}
);
unicode = 007A;
},
{
glyphname = f_f;
lastChange = "2020-06-25 15:25:10 +0000";
layers = (
{
layerId = "8A89AD82-2B0C-40F6-97CA-3AF9ED9FF3A8";
paths = (
{
closed = 1;
nodes = (
"153 0 LINE",
"153 522 LINE",
"381 522 LINE",
"381 0 LINE",
"464 0 LINE",
"464 522 LINE",
"609 522 LINE",
"609 570 LINE",
"464 570 LINE",
"464 736 LINE",
"609 736 LINE",
"609 784 LINE",
"381 784 LINE",
"381 570 LINE",
"153 570 LINE",
"153 736 LINE",
"298 736 LINE",
"298 784 LINE",
"70 784 LINE",
"70 0 LINE"
);
}
);
width = 639;
},
{
layerId = "18468F94-9FC9-4171-B83A-16111EF84EF0";
paths = (
{
closed = 1;
nodes = (
"155 0 LINE",
"155 520 LINE",
"385 520 LINE",
"385 0 LINE",
"470 0 LINE",
"470 520 LINE",
"615 520 LINE",
"615 570 LINE",
"470 570 LINE",
"470 734 LINE",
"615 734 LINE",
"615 784 LINE",
"385 784 LINE",
"385 570 LINE",
"155 570 LINE",
"155 734 LINE",
"300 734 LINE",
"300 784 LINE",
"70 784 LINE",
"70 0 LINE"
);
}
);
width = 645;
}
);
rightMetricsKey = f;
},
{
glyphname = f_f_i;
lastChange = "2020-01-09 22:36:09 +0000";
layers = (
{
layerId = "8A89AD82-2B0C-40F6-97CA-3AF9ED9FF3A8";
paths = (
{
closed = 1;
nodes = (
"70 784 LINE",
"298 784 LINE",
"298 736 LINE",
"153 736 LINE",
"153 570 LINE",
"381 570 LINE",
"381 784 LINE",
"609 784 LINE",
"609 736 LINE",
"464 736 LINE",
"464 570 LINE",
"775 570 LINE",
"775 0 LINE",
"692 0 LINE",
"692 522 LINE",
"464 522 LINE",
"464 0 LINE",
"381 0 LINE",
"381 522 LINE",
"153 522 LINE",
"153 0 LINE",
"70 0 LINE"
);
},
{
closed = 1;
nodes = (
"775 736 LINE",
"775 784 LINE",
"692 784 LINE",
"692 736 LINE"
);
}
);
width = 845;
},
{
layerId = "18468F94-9FC9-4171-B83A-16111EF84EF0";
paths = (
{
closed = 1;
nodes = (
"70 784 LINE",
"300 784 LINE",
"300 734 LINE",
"155 734 LINE",
"155 570 LINE",
"385 570 LINE",
"385 784 LINE",
"615 784 LINE",
"615 734 LINE",
"470 734 LINE",
"470 570 LINE",
"785 570 LINE",
"785 0 LINE",
"700 0 LINE",
"700 520 LINE",
"470 520 LINE",
"470 0 LINE",
"385 0 LINE",
"385 520 LINE",
"155 520 LINE",
"155 0 LINE",
"70 0 LINE"
);
},
{
closed = 1;
nodes = (
"785 734 LINE",
"785 784 LINE",
"700 784 LINE",
"700 734 LINE"
);
}
);
width = 855;
}
);
rightMetricsKey = i;
},
{
glyphname = f_h;
lastChange = "2020-01-09 22:36:59 +0000";
layers = (
{
layerId = "8A89AD82-2B0C-40F6-97CA-3AF9ED9FF3A8";
paths = (
{
closed = 1;
nodes = (
"153 0 LINE",
"153 522 LINE",
"298 522 LINE",
"298 570 LINE",
"153 570 LINE",
"153 736 LINE",
"381 736 LINE",
"381 0 LINE",
"464 0 LINE",
"464 522 LINE",
"696 522 LINE",
"696 0 LINE",
"711 0 LINE",
"711 570 LINE",
"464 570 LINE",
"464 784 LINE",
"70 784 LINE",
"70 0 LINE"
);
}
);
width = 781;
},
{
layerId = "18468F94-9FC9-4171-B83A-16111EF84EF0";
paths = (
{
closed = 1;
nodes = (
"155 0 LINE",
"155 520 LINE",
"300 520 LINE",
"300 570 LINE",
"155 570 LINE",
"155 734 LINE",
"385 734 LINE",
"385 0 LINE",
"470 0 LINE",
"470 520 LINE",
"675 520 LINE",
"675 0 LINE",
"715 0 LINE",
"715 570 LINE",
"470 570 LINE",
"470 784 LINE",
"70 784 LINE",
"70 0 LINE"
);
}
);
width = 785;
}
);
},
{
glyphname = f_i;
lastChange = "2020-07-30 21:22:00 +0000";
layers = (
{
layerId = "8A89AD82-2B0C-40F6-97CA-3AF9ED9FF3A8";
paths = (
{
closed = 1;
nodes = (
"70 784 LINE",
"298 784 LINE",
"298 736 LINE",
"153 736 LINE",
"153 570 LINE",
"464 570 LINE",
"464 0 LINE",
"381 0 LINE",
"381 522 LINE",
"153 522 LINE",
"153 0 LINE",
"70 0 LINE"
);
},
{
closed = 1;
nodes = (
"464 736 LINE",
"464 784 LINE",
"381 784 LINE",
"381 736 LINE"
);
}
);
width = 534;
},
{
layerId = "18468F94-9FC9-4171-B83A-16111EF84EF0";
paths = (
{
closed = 1;
nodes = (
"70 784 LINE",
"300 784 LINE",
"300 734 LINE",
"155 734 LINE",
"155 570 LINE",
"470 570 LINE",
"470 0 LINE",
"385 0 LINE",
"385 520 LINE",
"155 520 LINE",
"155 0 LINE",
"70 0 LINE"
);
},
{
closed = 1;
nodes = (
"470 734 LINE",
"470 784 LINE",
"385 784 LINE",
"385 734 LINE"
);
}
);
width = 540;
}
);
leftMetricsKey = f;
},
{
glyphname = icircumflex_b;
lastChange = "2020-01-09 21:39:22 +0000";
layers = (
{
layerId = "8A89AD82-2B0C-40F6-97CA-3AF9ED9FF3A8";
paths = (
{
closed = 1;
nodes = (
"70 0 LINE",
"70 570 LINE",
"153 570 LINE",
"153 0 LINE"
);
},
{
closed = 1;
nodes = (
"375 570 LINE",
"375 784 LINE",
"-54 784 LINE",
"-54 736 LINE",
"292 736 LINE",
"292 0 LINE",
"622 0 LINE",
"622 570 LINE"
);
},
{
closed = 1;
nodes = (
"375 48 LINE",
"375 522 LINE",
"607 522 LINE",
"607 48 LINE"
);
}
);
width = 692;
},
{
layerId = "18468F94-9FC9-4171-B83A-16111EF84EF0";
paths = (
{
closed = 1;
nodes = (
"70 0 LINE",
"70 570 LINE",
"155 570 LINE",
"155 0 LINE"
);
},
{
closed = 1;
nodes = (
"381 570 LINE",
"381 784 LINE",
"-52 784 LINE",
"-52 734 LINE",
"296 734 LINE",
"296 0 LINE",
"626 0 LINE",
"626 570 LINE"
);
},
{
closed = 1;
nodes = (
"381 50 LINE",
"381 520 LINE",
"586 520 LINE",
"586 50 LINE"
);
}
);
width = 696;
}
);
leftMetricsKey = icircumflex;
rightMetricsKey = b;
},
{
glyphname = icircumflex_f;
lastChange = "2020-06-25 15:25:04 +0000";
layers = (
{
layerId = "8A89AD82-2B0C-40F6-97CA-3AF9ED9FF3A8";
paths = (
{
closed = 1;
nodes = (
"70 0 LINE",
"70 570 LINE",
"153 570 LINE",
"153 0 LINE"
);
},
{
closed = 1;
nodes = (
"520 784 LINE",
"-54 784 LINE",
"-54 736 LINE",
"292 736 LINE",
"292 0 LINE",
"375 0 LINE",
"375 522 LINE",
"520 522 LINE",
"520 570 LINE",
"375 570 LINE",
"375 736 LINE",
"520 736 LINE"
);
}
);
width = 550;
},
{
layerId = "18468F94-9FC9-4171-B83A-16111EF84EF0";
paths = (
{
closed = 1;
nodes = (
"72 0 LINE",
"72 570 LINE",
"155 570 LINE",
"155 0 LINE"
);
},
{
closed = 1;
nodes = (
"522 784 LINE",
"-52 784 LINE",
"-52 736 LINE",
"294 736 LINE",
"294 0 LINE",
"377 0 LINE",
"377 522 LINE",
"522 522 LINE",
"522 570 LINE",
"377 570 LINE",
"377 736 LINE",
"522 736 LINE"
);
}
);
width = 552;
}
);
leftMetricsKey = icircumflex;
rightMetricsKey = f;
},
{
glyphname = icircumflex_h;
lastChange = "2020-01-09 21:18:08 +0000";
layers = (
{
layerId = "8A89AD82-2B0C-40F6-97CA-3AF9ED9FF3A8";
paths = (
{
closed = 1;
nodes = (
"70 0 LINE",
"70 570 LINE",
"153 570 LINE",
"153 0 LINE"
);
},
{
closed = 1;
nodes = (
"375 570 LINE",
"375 784 LINE",
"-54 784 LINE",
"-54 736 LINE",
"292 736 LINE",
"292 0 LINE",
"375 0 LINE",
"375 522 LINE",
"607 522 LINE",
"607 0 LINE",
"622 0 LINE",
"622 570 LINE"
);
}
);
width = 692;
},
{
layerId = "18468F94-9FC9-4171-B83A-16111EF84EF0";
paths = (
{
closed = 1;
nodes = (
"70 0 LINE",
"70 570 LINE",
"155 570 LINE",
"155 0 LINE"
);
},
{
closed = 1;
nodes = (
"381 570 LINE",
"381 784 LINE",
"-52 784 LINE",
"-52 734 LINE",
"296 734 LINE",
"296 0 LINE",
"381 0 LINE",
"381 520 LINE",
"586 520 LINE",
"586 0 LINE",
"626 0 LINE",
"626 570 LINE"
);
}
);
width = 696;
}
);
leftMetricsKey = icircumflex;
rightMetricsKey = h;
},
{
glyphname = icircumflex_k;
lastChange = "2020-06-25 15:24:52 +0000";
layers = (
{
layerId = "8A89AD82-2B0C-40F6-97CA-3AF9ED9FF3A8";
paths = (
{
closed = 1;
nodes = (
"70 0 LINE",
"70 570 LINE",
"153 570 LINE",
"153 0 LINE"
);
},
{
closed = 1;
nodes = (
"577 268 LINE",
"375 268 LINE",
"375 784 LINE",
"-54 784 LINE",
"-54 736 LINE",
"292 736 LINE",
"292 0 LINE",
"375 0 LINE",
"375 253 LINE",
"592 253 LINE",
"592 0 LINE",
"675 0 LINE",
"675 268 LINE",
"592 268 LINE",
"592 570 LINE",
"577 570 LINE"
);
}
);
width = 735;
},
{
layerId = "18468F94-9FC9-4171-B83A-16111EF84EF0";
paths = (
{
closed = 1;
nodes = (
"70 0 LINE",
"70 570 LINE",
"155 570 LINE",
"155 0 LINE"
);
},
{
closed = 1;
nodes = (
"545 281 LINE",
"381 281 LINE",
"381 784 LINE",
"-52 784 LINE",
"-52 734 LINE",
"296 734 LINE",
"296 0 LINE",
"381 0 LINE",
"381 241 LINE",
"585 241 LINE",
"585 0 LINE",
"625 0 LINE",
"625 281 LINE",
"585 281 LINE",
"585 570 LINE",
"545 570 LINE"
);
}
);
width = 685;
}
);
leftMetricsKey = icircumflex;
rightMetricsKey = k;
},
{
glyphname = icircumflex_l;
lastChange = "2020-01-09 21:37:51 +0000";
layers = (
{
layerId = "8A89AD82-2B0C-40F6-97CA-3AF9ED9FF3A8";
paths = (
{
closed = 1;
nodes = (
"70 0 LINE",
"70 570 LINE",
"153 570 LINE",
"153 0 LINE"
);
},
{
closed = 1;
nodes = (
"292 0 LINE",
"292 736 LINE",
"-54 736 LINE",
"-54 784 LINE",
"375 784 LINE",
"375 0 LINE"
);
}
);
width = 445;
},
{
layerId = "18468F94-9FC9-4171-B83A-16111EF84EF0";
paths = (
{
closed = 1;
nodes = (
"70 0 LINE",
"70 570 LINE",
"155 570 LINE",
"155 0 LINE"
);
},
{
closed = 1;
nodes = (
"296 0 LINE",
"296 734 LINE",
"-52 734 LINE",
"-52 784 LINE",
"381 784 LINE",
"381 0 LINE"
);
}
);
width = 451;
}
);
leftMetricsKey = icircumflex;
rightMetricsKey = l;
},
{
glyphname = icircumflex_t;
lastChange = "2020-06-25 15:25:14 +0000";
layers = (
{
layerId = "8A89AD82-2B0C-40F6-97CA-3AF9ED9FF3A8";
paths = (
{
closed = 1;
nodes = (
"70 0 LINE",
"70 570 LINE",
"153 570 LINE",
"153 0 LINE"
);
},
{
closed = 1;
nodes = (
"375 570 LINE",
"375 784 LINE",
"-54 784 LINE",
"-54 736 LINE",
"292 736 LINE",
"292 0 LINE",
"375 0 LINE",
"375 522 LINE",
"520 522 LINE",
"520 570 LINE"
);
}
);
width = 550;
},
{
layerId = "18468F94-9FC9-4171-B83A-16111EF84EF0";
paths = (
{
closed = 1;
nodes = (
"70 0 LINE",
"70 570 LINE",
"155 570 LINE",
"155 0 LINE"
);
},
{
closed = 1;
nodes = (
"363 570 LINE",
"363 784 LINE",
"-52 784 LINE",
"-52 734 LINE",
"278 734 LINE",
"278 0 LINE",
"363 0 LINE",
"363 520 LINE",
"508 520 LINE",
"508 570 LINE"
);
}
);
width = 538;
}
);
leftMetricsKey = icircumflex;
rightMetricsKey = t;
},
{
glyphname = t_t;
lastChange = "2020-05-02 14:18:16 +0000";
layers = (
{
layerId = "8A89AD82-2B0C-40F6-97CA-3AF9ED9FF3A8";
paths = (
{
closed = 1;
nodes = (
"153 0 LINE",
"153 522 LINE",
"323 522 LINE",
"323 0 LINE",
"406 0 LINE",
"406 522 LINE",
"551 522 LINE",
"551 570 LINE",
"406 570 LINE",
"406 784 LINE",
"323 784 LINE",
"323 570 LINE",
"153 570 LINE",
"153 784 LINE",
"70 784 LINE",
"70 0 LINE"
);
}
);
width = 581;
},
{
layerId = "18468F94-9FC9-4171-B83A-16111EF84EF0";
paths = (
{
closed = 1;
nodes = (
"155 0 LINE",
"155 520 LINE",
"325 520 LINE",
"325 0 LINE",
"410 0 LINE",
"410 520 LINE",
"555 520 LINE",
"555 570 LINE",
"410 570 LINE",
"410 784 LINE",
"325 784 LINE",
"325 570 LINE",
"155 570 LINE",
"155 784 LINE",
"70 784 LINE",
"70 0 LINE"
);
}
);
width = 585;
}
);
leftMetricsKey = t;
rightMetricsKey = t;
},
{
glyphname = zero;
lastChange = "2020-07-01 09:16:06 +0000";
layers = (
{
layerId = "8A89AD82-2B0C-40F6-97CA-3AF9ED9FF3A8";
paths = (
{
closed = 1;
nodes = (
"70 784 LINE",
"70 0 LINE",
"400 0 LINE",
"400 784 LINE"
);
},
{
closed = 1;
nodes = (
"153 736 LINE",
"317 736 LINE",
"317 48 LINE",
"153 48 LINE"
);
}
);
width = 470;
},
{
layerId = "18468F94-9FC9-4171-B83A-16111EF84EF0";
paths = (
{
closed = 1;
nodes = (
"70 784 LINE",
"70 0 LINE",
"400 0 LINE",
"400 784 LINE"
);
},
{
closed = 1;
nodes = (
"155 734 LINE",
"315 734 LINE",
"315 50 LINE",
"155 50 LINE"
);
}
);
width = 470;
}
);
unicode = 0030;
},
{
glyphname = one;
lastChange = "2020-07-31 15:08:29 +0000";
layers = (
{
layerId = "8A89AD82-2B0C-40F6-97CA-3AF9ED9FF3A8";
paths = (
{
closed = 1;
nodes = (
"278 784 LINE",
"70 784 LINE",
"70 736 LINE",
"195 736 LINE",
"195 0 LINE",
"278 0 LINE"
);
}
);
width = 348;
},
{
layerId = "18468F94-9FC9-4171-B83A-16111EF84EF0";
paths = (
{
closed = 1;
nodes = (
"298 784 LINE",
"70 784 LINE",
"70 734 LINE",
"213 734 LINE",
"213 0 LINE",
"298 0 LINE"
);
}
);
width = 368;
}
);
unicode = 0031;
},
{
glyphname = two;
lastChange = "2020-01-09 15:22:19 +0000";
layers = (
{
layerId = "8A89AD82-2B0C-40F6-97CA-3AF9ED9FF3A8";
paths = (
{
closed = 1;
nodes = (
"70 784 LINE",
"400 784 LINE",
"400 522 LINE",
"153 522 LINE",
"153 48 LINE",
"400 48 LINE",
"400 0 LINE",
"70 0 LINE",
"70 570 LINE",
"385 570 LINE",
"385 736 LINE",
"70 736 LINE"
);
}
);
width = 470;
},
{
layerId = "18468F94-9FC9-4171-B83A-16111EF84EF0";
paths = (
{
closed = 1;
nodes = (
"70 784 LINE",
"400 784 LINE",
"400 520 LINE",
"155 520 LINE",
"155 50 LINE",
"400 50 LINE",
"400 0 LINE",
"70 0 LINE",
"70 570 LINE",
"360 570 LINE",
"360 734 LINE",
"70 734 LINE"
);
}
);
width = 470;
}
);
unicode = 0032;
},
{
glyphname = three;
lastChange = "2020-01-08 18:30:11 +0000";
layers = (
{
layerId = "8A89AD82-2B0C-40F6-97CA-3AF9ED9FF3A8";
paths = (
{
closed = 1;
nodes = (
"70 784 LINE",
"70 736 LINE",
"317 736 LINE",
"317 570 LINE",
"70 570 LINE",
"70 522 LINE",
"317 522 LINE",
"317 48 LINE",
"70 48 LINE",
"70 0 LINE",
"400 0 LINE",
"400 784 LINE"
);
}
);
width = 470;
},
{
layerId = "18468F94-9FC9-4171-B83A-16111EF84EF0";
paths = (
{
closed = 1;
nodes = (
"70 784 LINE",
"70 734 LINE",
"315 734 LINE",
"315 570 LINE",
"70 570 LINE",
"70 520 LINE",
"315 520 LINE",
"315 50 LINE",
"70 50 LINE",
"70 0 LINE",
"400 0 LINE",
"400 784 LINE"
);
}
);
width = 470;
}
);
unicode = 0033;
},
{
glyphname = four;
lastChange = "2020-01-09 20:53:27 +0000";
layers = (
{
layerId = "8A89AD82-2B0C-40F6-97CA-3AF9ED9FF3A8";
paths = (
{
closed = 1;
nodes = (
"318 268 LINE",
"153 268 LINE",
"153 784 LINE",
"70 784 LINE",
"70 253 LINE",
"318 253 LINE",
"318 0 LINE",
"401 0 LINE",
"401 784 LINE",
"318 784 LINE"
);
}
);
width = 471;
},
{
layerId = "18468F94-9FC9-4171-B83A-16111EF84EF0";
paths = (
{
closed = 1;
nodes = (
"316 276 LINE",
"155 276 LINE",
"155 784 LINE",
"70 784 LINE",
"70 246 LINE",
"318 246 LINE",
"318 0 LINE",
"401 0 LINE",
"401 784 LINE",
"316 784 LINE"
);
}
);
width = 471;
}
);
unicode = 0034;
},
{
glyphname = five;
lastChange = "2020-01-09 20:54:07 +0000";
layers = (
{
layerId = "8A89AD82-2B0C-40F6-97CA-3AF9ED9FF3A8";
paths = (
{
closed = 1;
nodes = (
"400 784 LINE",
"70 784 LINE",
"70 522 LINE",
"317 522 LINE",
"317 48 LINE",
"70 48 LINE",
"70 0 LINE",
"400 0 LINE",
"400 570 LINE",
"85 570 LINE",
"85 736 LINE",
"400 736 LINE"
);
}
);
width = 470;
},
{
layerId = "18468F94-9FC9-4171-B83A-16111EF84EF0";
paths = (
{
closed = 1;
nodes = (
"400 784 LINE",
"70 784 LINE",
"70 520 LINE",
"315 520 LINE",
"315 48 LINE",
"70 48 LINE",
"70 0 LINE",
"400 0 LINE",
"400 570 LINE",
"110 570 LINE",
"110 734 LINE",
"400 734 LINE"
);
}
);
width = 470;
}
);
unicode = 0035;
},
{
glyphname = six;
lastChange = "2020-01-09 15:22:47 +0000";
layers = (
{
layerId = "8A89AD82-2B0C-40F6-97CA-3AF9ED9FF3A8";
paths = (
{
closed = 1;
nodes = (
"400 784 LINE",
"70 784 LINE",
"70 0 LINE",
"400 0 LINE",
"400 570 LINE",
"153 570 LINE",
"153 736 LINE",
"400 736 LINE"
);
},
{
closed = 1;
nodes = (
"385 48 LINE",
"153 48 LINE",
"153 522 LINE",
"385 522 LINE"
);
}
);
width = 470;
},
{
layerId = "18468F94-9FC9-4171-B83A-16111EF84EF0";
paths = (
{
closed = 1;
nodes = (
"400 784 LINE",
"70 784 LINE",
"70 0 LINE",
"400 0 LINE",
"400 570 LINE",
"155 570 LINE",
"155 734 LINE",
"400 734 LINE"
);
},
{
closed = 1;
nodes = (
"360 50 LINE",
"155 50 LINE",
"155 520 LINE",
"360 520 LINE"
);
}
);
width = 470;
}
);
unicode = 0036;
},
{
glyphname = seven;
lastChange = "2020-05-02 15:02:02 +0000";
layers = (
{
layerId = "8A89AD82-2B0C-40F6-97CA-3AF9ED9FF3A8";
paths = (
{
closed = 1;
nodes = (
"315 734 LINE",
"315 570 LINE",
"230 570 LINE",
"230 0 LINE",
"315 0 LINE",
"315 522 LINE",
"400 522 LINE",
"400 784 LINE",
"70 784 LINE",
"70 734 LINE"
);
}
);
width = 470;
},
{
layerId = "18468F94-9FC9-4171-B83A-16111EF84EF0";
paths = (
{
closed = 1;
nodes = (
"315 734 LINE",
"315 570 LINE",
"230 570 LINE",
"230 0 LINE",
"315 0 LINE",
"315 520 LINE",
"400 520 LINE",
"400 784 LINE",
"70 784 LINE",
"70 734 LINE"
);
}
);
width = 470;
}
);
unicode = 0037;
},
{
glyphname = eight;
lastChange = "2020-01-09 19:15:29 +0000";
layers = (
{
layerId = "8A89AD82-2B0C-40F6-97CA-3AF9ED9FF3A8";
paths = (
{
closed = 1;
nodes = (
"70 784 LINE",
"70 0 LINE",
"400 0 LINE",
"400 784 LINE"
);
},
{
closed = 1;
nodes = (
"317 48 LINE",
"153 48 LINE",
"153 522 LINE",
"317 522 LINE"
);
},
{
closed = 1;
nodes = (
"153 570 LINE",
"153 736 LINE",
"317 736 LINE",
"317 570 LINE"
);
}
);
width = 470;
},
{
layerId = "18468F94-9FC9-4171-B83A-16111EF84EF0";
paths = (
{
closed = 1;
nodes = (
"70 784 LINE",
"70 0 LINE",
"400 0 LINE",
"400 784 LINE"
);
},
{
closed = 1;
nodes = (
"315 50 LINE",
"155 50 LINE",
"155 520 LINE",
"315 520 LINE"
);
},
{
closed = 1;
nodes = (
"155 570 LINE",
"155 734 LINE",
"315 734 LINE",
"315 570 LINE"
);
}
);
width = 470;
}
);
unicode = 0038;
},
{
glyphname = nine;
lastChange = "2020-01-09 15:28:12 +0000";
layers = (
{
layerId = "8A89AD82-2B0C-40F6-97CA-3AF9ED9FF3A8";
paths = (
{
closed = 1;
nodes = (
"70 784 LINE",
"70 522 LINE",
"317 522 LINE",
"317 48 LINE",
"70 48 LINE",
"70 0 LINE",
"400 0 LINE",
"400 784 LINE"
);
},
{
closed = 1;
nodes = (
"85 736 LINE",
"317 736 LINE",
"317 570 LINE",
"85 570 LINE"
);
}
);
width = 470;
},
{
layerId = "18468F94-9FC9-4171-B83A-16111EF84EF0";
paths = (
{
closed = 1;
nodes = (
"70 784 LINE",
"70 520 LINE",
"315 520 LINE",
"315 50 LINE",
"70 50 LINE",
"70 0 LINE",
"400 0 LINE",
"400 784 LINE"
);
},
{
closed = 1;
nodes = (
"110 734 LINE",
"315 734 LINE",
"315 570 LINE",
"110 570 LINE"
);
}
);
width = 470;
}
);
unicode = 0039;
},
{
glyphname = period;
lastChange = "2020-04-30 15:06:05 +0000";
layers = (
{
layerId = "8A89AD82-2B0C-40F6-97CA-3AF9ED9FF3A8";
paths = (
{
closed = 1;
nodes = (
"153 0 LINE",
"153 48 LINE",
"70 48 LINE",
"70 0 LINE"
);
}
);
width = 223;
},
{
layerId = "18468F94-9FC9-4171-B83A-16111EF84EF0";
paths = (
{
closed = 1;
nodes = (
"155 0 LINE",
"155 48 LINE",
"70 48 LINE",
"70 0 LINE"
);
}
);
width = 225;
}
);
unicode = 002E;
},
{
glyphname = comma;
lastChange = "2020-05-04 14:28:31 +0000";
layers = (
{
layerId = "8A89AD82-2B0C-40F6-97CA-3AF9ED9FF3A8";
paths = (
{
closed = 1;
nodes = (
"98 -83 LINE",
"98 48 LINE",
"113 48 LINE",
"113 -83 LINE"
);
},
{
closed = 1;
nodes = (
"30 -83 LINE",
"113 -83 LINE",
"113 -131 LINE",
"30 -131 LINE"
);
}
);
width = 183;
},
{
layerId = "18468F94-9FC9-4171-B83A-16111EF84EF0";
paths = (
{
closed = 1;
nodes = (
"75 -85 LINE",
"75 50 LINE",
"115 50 LINE",
"115 -85 LINE"
);
},
{
closed = 1;
nodes = (
"30 -85 LINE",
"115 -85 LINE",
"115 -135 LINE",
"30 -135 LINE"
);
}
);
width = 185;
}
);
unicode = 002C;
},
{
glyphname = colon;
lastChange = "2020-05-02 14:19:50 +0000";
layers = (
{
layerId = "8A89AD82-2B0C-40F6-97CA-3AF9ED9FF3A8";
paths = (
{
closed = 1;
nodes = (
"153 0 LINE",
"153 48 LINE",
"70 48 LINE",
"70 0 LINE"
);
},
{
closed = 1;
nodes = (
"70 426 LINE",
"70 474 LINE",
"153 474 LINE",
"153 426 LINE"
);
}
);
width = 223;
},
{
layerId = "18468F94-9FC9-4171-B83A-16111EF84EF0";
paths = (
{
closed = 1;
nodes = (
"155 0 LINE",
"155 48 LINE",
"70 48 LINE",
"70 0 LINE"
);
},
{
closed = 1;
nodes = (
"70 424 LINE",
"70 472 LINE",
"155 472 LINE",
"155 424 LINE"
);
}
);
width = 225;
}
);
unicode = 003A;
},
{
glyphname = semicolon;
lastChange = "2020-05-02 18:27:26 +0000";
layers = (
{
layerId = "8A89AD82-2B0C-40F6-97CA-3AF9ED9FF3A8";
paths = (
{
closed = 1;
nodes = (
"98 -83 LINE",
"98 48 LINE",
"113 48 LINE",
"113 -83 LINE"
);
},
{
closed = 1;
nodes = (
"30 -83 LINE",
"113 -83 LINE",
"113 -131 LINE",
"30 -131 LINE"
);
},
{
closed = 1;
nodes = (
"147 378 LINE",
"147 426 LINE",
"64 426 LINE",
"64 378 LINE"
);
}
);
width = 217;
},
{
layerId = "18468F94-9FC9-4171-B83A-16111EF84EF0";
paths = (
{
closed = 1;
nodes = (
"75 -85 LINE",
"75 50 LINE",
"115 50 LINE",
"115 -85 LINE"
);
},
{
closed = 1;
nodes = (
"30 -85 LINE",
"115 -85 LINE",
"115 -135 LINE",
"30 -135 LINE"
);
},
{
closed = 1;
nodes = (
"138 374 LINE",
"138 424 LINE",
"53 424 LINE",
"53 374 LINE"
);
}
);
width = 208;
}
);
unicode = 003B;
},
{
glyphname = ellipsis;
lastChange = "2020-06-29 15:57:40 +0000";
layers = (
{
layerId = "8A89AD82-2B0C-40F6-97CA-3AF9ED9FF3A8";
paths = (
{
closed = 1;
nodes = (
"319 0 LINE",
"319 48 LINE",
"236 48 LINE",
"236 0 LINE"
);
},
{
closed = 1;
nodes = (
"153 0 LINE",
"153 48 LINE",
"70 48 LINE",
"70 0 LINE"
);
},
{
closed = 1;
nodes = (
"485 0 LINE",
"485 48 LINE",
"402 48 LINE",
"402 0 LINE"
);
}
);
width = 555;
},
{
layerId = "18468F94-9FC9-4171-B83A-16111EF84EF0";
paths = (
{
closed = 1;
nodes = (
"325 0 LINE",
"325 50 LINE",
"240 50 LINE",
"240 0 LINE"
);
},
{
closed = 1;
nodes = (
"155 0 LINE",
"155 50 LINE",
"70 50 LINE",
"70 0 LINE"
);
},
{
closed = 1;
nodes = (
"495 0 LINE",
"495 50 LINE",
"410 50 LINE",
"410 0 LINE"
);
}
);
width = 565;
}
);
unicode = 2026;
},
{
glyphname = exclam;
lastChange = "2020-01-10 11:09:06 +0000";
layers = (
{
layerId = "18468F94-9FC9-4171-B83A-16111EF84EF0";
paths = (
{
closed = 1;
nodes = (
"155 0 LINE",
"155 49 LINE",
"70 49 LINE",
"70 0 LINE"
);
},
{
closed = 1;
nodes = (
"70 784 LINE",
"70 262 LINE",
"155 262 LINE",
"155 784 LINE"
);
}
);
width = 225;
},
{
layerId = "8A89AD82-2B0C-40F6-97CA-3AF9ED9FF3A8";
paths = (
{
closed = 1;
nodes = (
"153 0 LINE",
"153 49 LINE",
"70 49 LINE",
"70 0 LINE"
);
},
{
closed = 1;
nodes = (
"70 784 LINE",
"70 262 LINE",
"153 262 LINE",
"153 784 LINE"
);
}
);
width = 223;
}
);
unicode = 0021;
},
{
glyphname = question;
lastChange = "2020-04-30 15:25:35 +0000";
layers = (
{
layerId = "18468F94-9FC9-4171-B83A-16111EF84EF0";
paths = (
{
closed = 1;
nodes = (
"70 734 LINE",
"360 734 LINE",
"360 570 LINE",
"155 570 LINE",
"155 241 LINE",
"240 241 LINE",
"240 530 LINE",
"400 530 LINE",
"400 784 LINE",
"70 784 LINE"
);
},
{
closed = 1;
nodes = (
"240 0 LINE",
"240 50 LINE",
"155 50 LINE",
"155 0 LINE"
);
}
);
width = 470;
},
{
layerId = "8A89AD82-2B0C-40F6-97CA-3AF9ED9FF3A8";
paths = (
{
closed = 1;
nodes = (
"70 734 LINE",
"385 734 LINE",
"385 570 LINE",
"153 570 LINE",
"153 241 LINE",
"236 241 LINE",
"236 530 LINE",
"400 530 LINE",
"400 784 LINE",
"70 784 LINE"
);
},
{
closed = 1;
nodes = (
"236 0 LINE",
"236 50 LINE",
"153 50 LINE",
"153 0 LINE"
);
}
);
width = 470;
}
);
unicode = 003F;
},
{
glyphname = bullet;
lastChange = "2020-06-27 14:20:14 +0000";
layers = (
{
layerId = "8A89AD82-2B0C-40F6-97CA-3AF9ED9FF3A8";
paths = (
{
closed = 1;
nodes = (
"302 134 LINE",
"70 134 LINE",
"70 388 LINE",
"302 388 LINE"
);
}
);
width = 372;
},
{
layerId = "18468F94-9FC9-4171-B83A-16111EF84EF0";
paths = (
{
closed = 1;
nodes = (
"70 142 LINE",
"70 381 LINE",
"275 381 LINE",
"275 142 LINE"
);
}
);
width = 345;
}
);
unicode = 2022;
},
{
glyphname = slash;
lastChange = "2020-06-30 11:42:00 +0000";
layers = (
{
layerId = "8A89AD82-2B0C-40F6-97CA-3AF9ED9FF3A8";
paths = (
{
closed = 1;
nodes = (
"70 182 LINE",
"153 182 LINE",
"153 487 LINE",
"236 487 LINE",
"236 784 LINE",
"319 784 LINE",
"319 471 LINE",
"236 471 LINE",
"236 166 LINE",
"153 166 LINE",
"153 -131 LINE",
"70 -131 LINE"
);
}
);
width = 389;
},
{
layerId = "18468F94-9FC9-4171-B83A-16111EF84EF0";
paths = (
{
closed = 1;
nodes = (
"70 194 LINE",
"155 194 LINE",
"155 499 LINE",
"240 499 LINE",
"240 784 LINE",
"325 784 LINE",
"325 459 LINE",
"240 459 LINE",
"240 154 LINE",
"155 154 LINE",
"155 -131 LINE",
"70 -131 LINE"
);
}
);
width = 395;
}
);
unicode = 002F;
},
{
glyphname = backslash;
lastChange = "2020-05-04 14:05:14 +0000";
layers = (
{
layerId = "8A89AD82-2B0C-40F6-97CA-3AF9ED9FF3A8";
paths = (
{
closed = 1;
nodes = (
"236 -131 LINE",
"236 166 LINE",
"153 166 LINE",
"153 471 LINE",
"70 471 LINE",
"70 784 LINE",
"153 784 LINE",
"153 487 LINE",
"236 487 LINE",
"236 182 LINE",
"319 182 LINE",
"319 -131 LINE"
);
}
);
width = 389;
},
{
layerId = "18468F94-9FC9-4171-B83A-16111EF84EF0";
paths = (
{
closed = 1;
nodes = (
"240 -131 LINE",
"240 154 LINE",
"155 154 LINE",
"155 459 LINE",
"70 459 LINE",
"70 784 LINE",
"155 784 LINE",
"155 499 LINE",
"240 499 LINE",
"240 194 LINE",
"325 194 LINE",
"325 -131 LINE"
);
}
);
width = 395;
}
);
unicode = 005C;
},
{
glyphname = parenleft;
lastChange = "2020-05-02 15:37:27 +0000";
layers = (
{
layerId = "8A89AD82-2B0C-40F6-97CA-3AF9ED9FF3A8";
paths = (
{
closed = 1;
nodes = (
"70 701 LINE",
"193 701 LINE",
"193 784 LINE",
"359 784 LINE",
"359 769 LINE",
"276 769 LINE",
"276 686 LINE",
"153 686 LINE",
"153 -115 LINE",
"276 -115 LINE",
"276 -198 LINE",
"359 -198 LINE",
"359 -213 LINE",
"193 -213 LINE",
"193 -130 LINE",
"70 -130 LINE"
);
}
);
width = 359;
},
{
layerId = "18468F94-9FC9-4171-B83A-16111EF84EF0";
paths = (
{
closed = 1;
nodes = (
"70 699 LINE",
"195 699 LINE",
"195 784 LINE",
"365 784 LINE",
"365 744 LINE",
"280 744 LINE",
"280 659 LINE",
"155 659 LINE",
"155 -88 LINE",
"280 -88 LINE",
"280 -173 LINE",
"365 -173 LINE",
"365 -213 LINE",
"195 -213 LINE",
"195 -128 LINE",
"70 -128 LINE"
);
}
);
width = 365;
}
);
unicode = 0028;
},
{
glyphname = parenright;
lastChange = "2020-05-02 15:37:52 +0000";
layers = (
{
layerId = "8A89AD82-2B0C-40F6-97CA-3AF9ED9FF3A8";
paths = (
{
closed = 1;
nodes = (
"166 -130 LINE",
"166 -213 LINE",
"0 -213 LINE",
"0 -198 LINE",
"83 -198 LINE",
"83 -115 LINE",
"206 -115 LINE",
"206 686 LINE",
"83 686 LINE",
"83 769 LINE",
"0 769 LINE",
"0 784 LINE",
"166 784 LINE",
"166 701 LINE",
"289 701 LINE",
"289 -130 LINE"
);
}
);
width = 359;
},
{
layerId = "18468F94-9FC9-4171-B83A-16111EF84EF0";
paths = (
{
closed = 1;
nodes = (
"170 -128 LINE",
"170 -213 LINE",
"0 -213 LINE",
"0 -173 LINE",
"85 -173 LINE",
"85 -88 LINE",
"210 -88 LINE",
"210 659 LINE",
"85 659 LINE",
"85 744 LINE",
"0 744 LINE",
"0 784 LINE",
"170 784 LINE",
"170 699 LINE",
"295 699 LINE",
"295 -128 LINE"
);
}
);
width = 365;
}
);
unicode = 0029;
},
{
glyphname = bracketleft;
lastChange = "2020-05-02 15:39:54 +0000";
layers = (
{
layerId = "8A89AD82-2B0C-40F6-97CA-3AF9ED9FF3A8";
paths = (
{
closed = 1;
nodes = (
"236 784 LINE",
"70 784 LINE",
"70 -213 LINE",
"236 -213 LINE",
"236 -198 LINE",
"153 -198 LINE",
"153 769 LINE",
"236 769 LINE"
);
}
);
width = 306;
},
{
layerId = "18468F94-9FC9-4171-B83A-16111EF84EF0";
paths = (
{
closed = 1;
nodes = (
"240 784 LINE",
"70 784 LINE",
"70 -213 LINE",
"240 -213 LINE",
"240 -173 LINE",
"155 -173 LINE",
"155 744 LINE",
"240 744 LINE"
);
}
);
width = 310;
}
);
unicode = 005B;
},
{
glyphname = bracketright;
lastChange = "2020-05-02 19:28:12 +0000";
layers = (
{
layerId = "8A89AD82-2B0C-40F6-97CA-3AF9ED9FF3A8";
paths = (
{
closed = 1;
nodes = (
"153 769 LINE",
"153 -198 LINE",
"70 -198 LINE",
"70 -213 LINE",
"236 -213 LINE",
"236 784 LINE",
"70 784 LINE",
"70 769 LINE"
);
}
);
width = 306;
},
{
layerId = "18468F94-9FC9-4171-B83A-16111EF84EF0";
paths = (
{
closed = 1;
nodes = (
"155 744 LINE",
"155 -173 LINE",
"70 -173 LINE",
"70 -213 LINE",
"240 -213 LINE",
"240 784 LINE",
"70 784 LINE",
"70 744 LINE"
);
}
);
width = 310;
}
);
unicode = 005D;
},
{
glyphname = hyphen;
lastChange = "2020-06-27 14:42:43 +0000";
layers = (
{
layerId = "8A89AD82-2B0C-40F6-97CA-3AF9ED9FF3A8";
paths = (
{
closed = 1;
nodes = (
"70 253 LINE",
"70 268 LINE",
"400 268 LINE",
"400 253 LINE"
);
}
);
width = 470;
},
{
layerId = "18468F94-9FC9-4171-B83A-16111EF84EF0";
paths = (
{
closed = 1;
nodes = (
"70 241 LINE",
"70 281 LINE",
"400 281 LINE",
"400 241 LINE"
);
}
);
width = 470;
}
);
unicode = 002D;
},
{
glyphname = emdash;
lastChange = "2020-06-27 14:42:57 +0000";
layers = (
{
layerId = "8A89AD82-2B0C-40F6-97CA-3AF9ED9FF3A8";
paths = (
{
closed = 1;
nodes = (
"70 253 LINE",
"70 268 LINE",
"730 268 LINE",
"730 253 LINE"
);
}
);
width = 800;
},
{
layerId = "18468F94-9FC9-4171-B83A-16111EF84EF0";
paths = (
{
closed = 1;
nodes = (
"70 241 LINE",
"70 281 LINE",
"730 281 LINE",
"730 241 LINE"
);
}
);
width = 800;
}
);
unicode = 2014;
},
{
glyphname = underscore;
lastChange = "2020-06-26 14:12:01 +0000";
layers = (
{
layerId = "8A89AD82-2B0C-40F6-97CA-3AF9ED9FF3A8";
paths = (
{
closed = 1;
nodes = (
"500 0 LINE",
"500 -48 LINE",
"70 -48 LINE",
"70 0 LINE"
);
}
);
width = 570;
},
{
layerId = "18468F94-9FC9-4171-B83A-16111EF84EF0";
paths = (
{
closed = 1;
nodes = (
"500 0 LINE",
"500 -50 LINE",
"70 -50 LINE",
"70 0 LINE"
);
}
);
width = 570;
}
);
unicode = 005F;
},
{
glyphname = quotedblleft;
lastChange = "2020-05-06 11:26:26 +0000";
layers = (
{
layerId = "8A89AD82-2B0C-40F6-97CA-3AF9ED9FF3A8";
paths = (
{
closed = 1;
nodes = (
"70 784 LINE",
"85 784 LINE",
"85 653 LINE",
"70 653 LINE"
);
},
{
closed = 1;
nodes = (
"70 605 LINE",
"70 653 LINE",
"153 653 LINE",
"153 605 LINE"
);
},
{
closed = 1;
nodes = (
"193 784 LINE",
"208 784 LINE",
"208 653 LINE",
"193 653 LINE"
);
},
{
closed = 1;
nodes = (
"193 605 LINE",
"193 653 LINE",
"276 653 LINE",
"276 605 LINE"
);
}
);
width = 306;
},
{
layerId = "18468F94-9FC9-4171-B83A-16111EF84EF0";
paths = (
{
closed = 1;
nodes = (
"70 784 LINE",
"110 784 LINE",
"110 649 LINE",
"70 649 LINE"
);
},
{
closed = 1;
nodes = (
"70 599 LINE",
"70 649 LINE",
"155 649 LINE",
"155 599 LINE"
);
},
{
closed = 1;
nodes = (
"70 784 LINE",
"110 784 LINE",
"110 649 LINE",
"70 649 LINE"
);
},
{
closed = 0;
nodes = (
"70 649 LINE",
"155 649 LINE",
"155 599 LINE"
);
},
{
closed = 1;
nodes = (
"195 784 LINE",
"235 784 LINE",
"235 649 LINE",
"195 649 LINE"
);
},
{
closed = 1;
nodes = (
"195 599 LINE",
"195 649 LINE",
"280 649 LINE",
"280 599 LINE"
);
},
{
closed = 1;
nodes = (
"195 784 LINE",
"235 784 LINE",
"235 649 LINE",
"195 649 LINE"
);
},
{
closed = 0;
nodes = (
"195 649 LINE",
"280 649 LINE",
"280 599 LINE"
);
}
);
width = 310;
}
);
unicode = 201C;
},
{
glyphname = quotedblright;
lastChange = "2020-05-06 11:14:43 +0000";
layers = (
{
layerId = "8A89AD82-2B0C-40F6-97CA-3AF9ED9FF3A8";
paths = (
{
closed = 1;
nodes = (
"221 653 LINE",
"221 784 LINE",
"236 784 LINE",
"236 653 LINE"
);
},
{
closed = 1;
nodes = (
"153 653 LINE",
"236 653 LINE",
"236 605 LINE",
"153 605 LINE"
);
},
{
closed = 1;
nodes = (
"98 653 LINE",
"98 784 LINE",
"113 784 LINE",
"113 653 LINE"
);
},
{
closed = 1;
nodes = (
"30 653 LINE",
"113 653 LINE",
"113 605 LINE",
"30 605 LINE"
);
}
);
width = 306;
},
{
layerId = "18468F94-9FC9-4171-B83A-16111EF84EF0";
paths = (
{
closed = 1;
nodes = (
"200 649 LINE",
"200 784 LINE",
"240 784 LINE",
"240 649 LINE"
);
},
{
closed = 1;
nodes = (
"155 649 LINE",
"240 649 LINE",
"240 599 LINE",
"155 599 LINE"
);
},
{
closed = 1;
nodes = (
"200 649 LINE",
"200 784 LINE",
"240 784 LINE",
"240 649 LINE"
);
},
{
closed = 0;
nodes = (
"240 649 LINE",
"155 649 LINE",
"155 599 LINE"
);
},
{
closed = 1;
nodes = (
"75 649 LINE",
"75 784 LINE",
"115 784 LINE",
"115 649 LINE"
);
},
{
closed = 1;
nodes = (
"30 649 LINE",
"115 649 LINE",
"115 599 LINE",
"30 599 LINE"
);
},
{
closed = 1;
nodes = (
"75 649 LINE",
"75 784 LINE",
"115 784 LINE",
"115 649 LINE"
);
},
{
closed = 0;
nodes = (
"115 649 LINE",
"30 649 LINE",
"30 599 LINE"
);
}
);
width = 310;
}
);
unicode = 201D;
},
{
glyphname = quoteright;
lastChange = "2020-05-04 14:32:26 +0000";
layers = (
{
layerId = "8A89AD82-2B0C-40F6-97CA-3AF9ED9FF3A8";
paths = (
{
closed = 1;
nodes = (
"113 605 LINE",
"98 605 LINE",
"98 736 LINE",
"113 736 LINE"
);
},
{
closed = 1;
nodes = (
"113 784 LINE",
"113 736 LINE",
"30 736 LINE",
"30 784 LINE"
);
}
);
width = 183;
},
{
layerId = "18468F94-9FC9-4171-B83A-16111EF84EF0";
paths = (
{
closed = 1;
nodes = (
"115 599 LINE",
"75 599 LINE",
"75 734 LINE",
"115 734 LINE"
);
},
{
closed = 1;
nodes = (
"115 784 LINE",
"115 734 LINE",
"30 734 LINE",
"30 784 LINE"
);
}
);
width = 185;
}
);
unicode = 2019;
},
{
glyphname = guillemetleft;
lastChange = "2020-05-06 11:24:07 +0000";
layers = (
{
layerId = "8A89AD82-2B0C-40F6-97CA-3AF9ED9FF3A8";
paths = (
{
closed = 1;
nodes = (
"70 371 LINE",
"193 371 LINE",
"193 454 LINE",
"359 454 LINE",
"359 439 LINE",
"276 439 LINE",
"276 356 LINE",
"153 356 LINE",
"153 215 LINE",
"276 215 LINE",
"276 132 LINE",
"359 132 LINE",
"359 117 LINE",
"193 117 LINE",
"193 200 LINE",
"70 200 LINE"
);
},
{
closed = 1;
nodes = (
"329 371 LINE",
"452 371 LINE",
"452 454 LINE",
"618 454 LINE",
"618 439 LINE",
"535 439 LINE",
"535 356 LINE",
"412 356 LINE",
"412 215 LINE",
"535 215 LINE",
"535 132 LINE",
"618 132 LINE",
"618 117 LINE",
"452 117 LINE",
"452 200 LINE",
"329 200 LINE"
);
}
);
width = 688;
},
{
layerId = "18468F94-9FC9-4171-B83A-16111EF84EF0";
paths = (
{
closed = 1;
nodes = (
"70 371 LINE",
"195 371 LINE",
"195 454 LINE",
"365 454 LINE",
"365 414 LINE",
"280 414 LINE",
"280 331 LINE",
"155 331 LINE",
"155 240 LINE",
"280 240 LINE",
"280 157 LINE",
"365 157 LINE",
"365 117 LINE",
"195 117 LINE",
"195 200 LINE",
"70 200 LINE"
);
},
{
closed = 1;
nodes = (
"330 371 LINE",
"455 371 LINE",
"455 454 LINE",
"625 454 LINE",
"625 414 LINE",
"540 414 LINE",
"540 331 LINE",
"415 331 LINE",
"415 240 LINE",
"540 240 LINE",
"540 157 LINE",
"625 157 LINE",
"625 117 LINE",
"455 117 LINE",
"455 200 LINE",
"330 200 LINE"
);
}
);
width = 695;
}
);
unicode = 00AB;
},
{
glyphname = guillemetright;
lastChange = "2020-05-06 11:23:58 +0000";
layers = (
{
layerId = "8A89AD82-2B0C-40F6-97CA-3AF9ED9FF3A8";
paths = (
{
closed = 1;
nodes = (
"495 200 LINE",
"495 117 LINE",
"329 117 LINE",
"329 132 LINE",
"412 132 LINE",
"412 215 LINE",
"535 215 LINE",
"535 356 LINE",
"412 356 LINE",
"412 439 LINE",
"329 439 LINE",
"329 454 LINE",
"495 454 LINE",
"495 371 LINE",
"618 371 LINE",
"618 200 LINE"
);
},
{
closed = 1;
nodes = (
"236 200 LINE",
"236 117 LINE",
"70 117 LINE",
"70 132 LINE",
"153 132 LINE",
"153 215 LINE",
"276 215 LINE",
"276 356 LINE",
"153 356 LINE",
"153 439 LINE",
"70 439 LINE",
"70 454 LINE",
"236 454 LINE",
"236 371 LINE",
"359 371 LINE",
"359 200 LINE"
);
}
);
width = 688;
},
{
layerId = "18468F94-9FC9-4171-B83A-16111EF84EF0";
paths = (
{
closed = 1;
nodes = (
"500 200 LINE",
"500 117 LINE",
"330 117 LINE",
"330 157 LINE",
"415 157 LINE",
"415 240 LINE",
"540 240 LINE",
"540 331 LINE",
"415 331 LINE",
"415 414 LINE",
"330 414 LINE",
"330 454 LINE",
"500 454 LINE",
"500 371 LINE",
"625 371 LINE",
"625 200 LINE"
);
},
{
closed = 1;
nodes = (
"240 200 LINE",
"240 117 LINE",
"70 117 LINE",
"70 157 LINE",
"155 157 LINE",
"155 240 LINE",
"280 240 LINE",
"280 331 LINE",
"155 331 LINE",
"155 414 LINE",
"70 414 LINE",
"70 454 LINE",
"240 454 LINE",
"240 371 LINE",
"365 371 LINE",
"365 200 LINE"
);
}
);
width = 695;
}
);
unicode = 00BB;
},
{
glyphname = quotedbl;
lastChange = "2020-05-04 15:27:39 +0000";
layers = (
{
layerId = "8A89AD82-2B0C-40F6-97CA-3AF9ED9FF3A8";
paths = (
{
closed = 1;
nodes = (
"30 701 LINE",
"30 784 LINE",
"70 784 LINE",
"70 701 LINE"
);
},
{
closed = 1;
nodes = (
"110 701 LINE",
"110 784 LINE",
"150 784 LINE",
"150 701 LINE"
);
}
);
width = 220;
},
{
layerId = "18468F94-9FC9-4171-B83A-16111EF84EF0";
paths = (
{
closed = 1;
nodes = (
"30 699 LINE",
"30 784 LINE",
"70 784 LINE",
"70 699 LINE"
);
},
{
closed = 1;
nodes = (
"110 699 LINE",
"110 784 LINE",
"150 784 LINE",
"150 699 LINE"
);
}
);
width = 220;
}
);
unicode = 0022;
},
{
glyphname = quotesingle;
lastChange = "2020-06-27 14:23:29 +0000";
layers = (
{
layerId = "8A89AD82-2B0C-40F6-97CA-3AF9ED9FF3A8";
paths = (
{
closed = 1;
nodes = (
"30 701 LINE",
"30 784 LINE",
"70 784 LINE",
"70 701 LINE"
);
}
);
width = 140;
},
{
layerId = "18468F94-9FC9-4171-B83A-16111EF84EF0";
paths = (
{
closed = 1;
nodes = (
"30 699 LINE",
"30 784 LINE",
"70 784 LINE",
"70 699 LINE"
);
}
);
width = 140;
}
);
unicode = 0027;
},
{
glyphname = .notdef;
lastChange = "2020-07-01 09:54:42 +0000";
layers = (
{
layerId = "8A89AD82-2B0C-40F6-97CA-3AF9ED9FF3A8";
paths = (
{
closed = 1;
nodes = (
"1205 789 LINE",
"983 789 LINE",
"978 789 LINE",
"756 789 LINE",
"751 789 LINE",
"529 789 LINE",
"524 789 LINE",
"302 789 LINE",
"297 789 LINE",
"70 789 LINE",
"70 658 LINE",
"70 653 LINE",
"70 528 LINE",
"70 523 LINE",
"70 397 LINE",
"70 392 LINE",
"70 266 LINE",
"70 261 LINE",
"70 136 LINE",
"70 131 LINE",
"70 0 LINE",
"184 0 LINE",
"189 0 LINE",
"411 0 LINE",
"416 0 LINE",
"638 0 LINE",
"643 0 LINE",
"864 0 LINE",
"869 0 LINE",
"1091 0 LINE",
"1096 0 LINE",
"1323 0 LINE",
"1437 0 LINE",
"1437 131 LINE",
"1437 136 LINE",
"1437 261 LINE",
"1437 266 LINE",
"1437 392 LINE",
"1437 397 LINE",
"1437 523 LINE",
"1437 528 LINE",
"1437 653 LINE",
"1437 658 LINE",
"1437 789 LINE",
"1210 789 LINE"
);
},
{
closed = 1;
nodes = (
"1205 765 LINE",
"1169 765 LINE",
"1164 765 LINE",
"1086 765 LINE",
"1081 765 LINE",
"1004 765 LINE",
"999 765 LINE",
"983 765 LINE",
"983 784 LINE",
"1205 784 LINE"
);
},
{
closed = 1;
nodes = (
"184 131 LINE",
"184 29 LINE",
"96 29 LINE",
"96 131 LINE"
);
},
{
closed = 1;
nodes = (
"173 367 LINE",
"173 290 LINE",
"96 290 LINE",
"96 367 LINE"
);
},
{
closed = 1;
nodes = (
"1210 658 LINE",
"1210 677 LINE",
"1246 677 LINE",
"1246 658 LINE"
);
},
{
closed = 1;
nodes = (
"1251 528 LINE",
"1251 653 LINE",
"1318 653 LINE",
"1318 528 LINE"
);
},
{
closed = 1;
nodes = (
"1210 528 LINE",
"1205 528 LINE",
"1096 528 LINE",
"1096 653 LINE",
"1205 653 LINE",
"1210 653 LINE",
"1246 653 LINE",
"1246 528 LINE"
);
},
{
closed = 1;
nodes = (
"1323 397 LINE",
"1251 397 LINE",
"1251 416 LINE",
"1411 416 LINE",
"1411 397 LINE"
);
},
{
closed = 1;
nodes = (
"1251 372 LINE",
"1251 392 LINE",
"1318 392 LINE",
"1318 372 LINE"
);
},
{
closed = 1;
nodes = (
"1251 290 LINE",
"1251 367 LINE",
"1318 367 LINE",
"1318 290 LINE"
);
},
{
closed = 1;
nodes = (
"1329 367 LINE",
"1329 290 LINE",
"1323 290 LINE",
"1323 367 LINE"
);
},
{
closed = 1;
nodes = (
"256 285 LINE",
"256 266 LINE",
"189 266 LINE",
"189 285 LINE"
);
},
{
closed = 1;
nodes = (
"184 367 LINE",
"184 290 LINE",
"178 290 LINE",
"178 367 LINE"
);
},
{
closed = 1;
nodes = (
"256 367 LINE",
"256 290 LINE",
"189 290 LINE",
"189 367 LINE"
);
},
{
closed = 1;
nodes = (
"256 653 LINE",
"256 528 LINE",
"189 528 LINE",
"189 653 LINE"
);
},
{
closed = 1;
nodes = (
"297 653 LINE",
"302 653 LINE",
"411 653 LINE",
"411 528 LINE",
"302 528 LINE",
"297 528 LINE",
"261 528 LINE",
"261 653 LINE"
);
},
{
closed = 1;
nodes = (
"983 658 LINE",
"983 677 LINE",
"999 677 LINE",
"1004 677 LINE",
"1081 677 LINE",
"1081 658 LINE"
);
},
{
closed = 1;
nodes = (
"1086 421 LINE",
"1086 523 LINE",
"1091 523 LINE",
"1096 523 LINE",
"1205 523 LINE",
"1205 421 LINE"
);
},
{
closed = 1;
nodes = (
"1169 290 LINE",
"1169 367 LINE",
"1246 367 LINE",
"1246 290 LINE"
);
},
{
closed = 1;
nodes = (
"421 285 LINE",
"421 266 LINE",
"416 266 LINE",
"416 285 LINE"
);
},
{
closed = 1;
nodes = (
"338 367 LINE",
"338 290 LINE",
"261 290 LINE",
"261 367 LINE"
);
},
{
closed = 1;
nodes = (
"297 392 LINE",
"302 392 LINE",
"411 392 LINE",
"411 372 LINE",
"343 372 LINE",
"338 372 LINE",
"261 372 LINE",
"261 392 LINE"
);
},
{
closed = 1;
nodes = (
"421 416 LINE",
"421 397 LINE",
"416 397 LINE",
"411 397 LINE",
"302 397 LINE",
"302 416 LINE"
);
},
{
closed = 1;
nodes = (
"421 653 LINE",
"421 528 LINE",
"416 528 LINE",
"416 653 LINE"
);
},
{
closed = 1;
nodes = (
"1086 372 LINE",
"1086 392 LINE",
"1091 392 LINE",
"1091 372 LINE"
);
},
{
closed = 1;
nodes = (
"1004 372 LINE",
"999 372 LINE",
"921 372 LINE",
"921 392 LINE",
"978 392 LINE",
"983 392 LINE",
"1081 392 LINE",
"1081 372 LINE"
);
},
{
closed = 1;
nodes = (
"1004 290 LINE",
"1004 367 LINE",
"1081 367 LINE",
"1081 290 LINE"
);
},
{
closed = 1;
nodes = (
"869 290 LINE",
"869 367 LINE",
"916 367 LINE",
"916 290 LINE"
);
},
{
closed = 1;
nodes = (
"673 290 LINE",
"673 367 LINE",
"751 367 LINE",
"751 290 LINE"
);
},
{
closed = 1;
nodes = (
"508 290 LINE",
"508 367 LINE",
"586 367 LINE",
"586 290 LINE"
);
},
{
closed = 1;
nodes = (
"591 421 LINE",
"591 523 LINE",
"638 523 LINE",
"643 523 LINE",
"751 523 LINE",
"751 421 LINE"
);
},
{
closed = 1;
nodes = (
"869 397 LINE",
"864 397 LINE",
"756 397 LINE",
"756 416 LINE",
"916 416 LINE",
"916 397 LINE"
);
},
{
closed = 1;
nodes = (
"978 416 LINE",
"978 397 LINE",
"921 397 LINE",
"921 416 LINE"
);
},
{
closed = 1;
nodes = (
"638 392 LINE",
"638 372 LINE",
"591 372 LINE",
"591 392 LINE"
);
},
{
closed = 1;
nodes = (
"751 392 LINE",
"751 372 LINE",
"673 372 LINE",
"668 372 LINE",
"643 372 LINE",
"643 392 LINE"
);
},
{
closed = 1;
nodes = (
"864 392 LINE",
"864 372 LINE",
"839 372 LINE",
"834 372 LINE",
"756 372 LINE",
"756 392 LINE"
);
},
{
closed = 1;
nodes = (
"916 392 LINE",
"916 372 LINE",
"869 372 LINE",
"869 392 LINE"
);
},
{
closed = 1;
nodes = (
"643 397 LINE",
"638 397 LINE",
"591 397 LINE",
"591 416 LINE",
"751 416 LINE",
"751 397 LINE"
);
},
{
closed = 1;
nodes = (
"586 416 LINE",
"586 397 LINE",
"529 397 LINE",
"529 416 LINE"
);
},
{
closed = 1;
nodes = (
"529 421 LINE",
"529 523 LINE",
"586 523 LINE",
"586 421 LINE"
);
},
{
closed = 1;
nodes = (
"426 421 LINE",
"426 523 LINE",
"524 523 LINE",
"524 421 LINE"
);
},
{
closed = 1;
nodes = (
"524 397 LINE",
"426 397 LINE",
"426 416 LINE",
"524 416 LINE"
);
},
{
closed = 1;
nodes = (
"529 392 LINE",
"586 392 LINE",
"586 372 LINE",
"508 372 LINE",
"503 372 LINE",
"426 372 LINE",
"426 392 LINE",
"524 392 LINE"
);
},
{
closed = 1;
nodes = (
"416 372 LINE",
"416 392 LINE",
"421 392 LINE",
"421 372 LINE"
);
},
{
closed = 1;
nodes = (
"503 367 LINE",
"503 290 LINE",
"426 290 LINE",
"426 367 LINE"
);
},
{
closed = 1;
nodes = (
"638 367 LINE",
"638 290 LINE",
"591 290 LINE",
"591 367 LINE"
);
},
{
closed = 1;
nodes = (
"668 367 LINE",
"668 290 LINE",
"643 290 LINE",
"643 367 LINE"
);
},
{
closed = 1;
nodes = (
"834 367 LINE",
"834 290 LINE",
"756 290 LINE",
"756 367 LINE"
);
},
{
closed = 1;
nodes = (
"864 367 LINE",
"864 290 LINE",
"839 290 LINE",
"839 367 LINE"
);
},
{
closed = 1;
nodes = (
"999 367 LINE",
"999 290 LINE",
"921 290 LINE",
"921 367 LINE"
);
},
{
closed = 1;
nodes = (
"983 416 LINE",
"1081 416 LINE",
"1081 397 LINE",
"983 397 LINE"
);
},
{
closed = 1;
nodes = (
"983 523 LINE",
"1081 523 LINE",
"1081 421 LINE",
"983 421 LINE"
);
},
{
closed = 1;
nodes = (
"921 421 LINE",
"921 523 LINE",
"978 523 LINE",
"978 421 LINE"
);
},
{
closed = 1;
nodes = (
"756 421 LINE",
"756 523 LINE",
"864 523 LINE",
"869 523 LINE",
"916 523 LINE",
"916 421 LINE"
);
},
{
closed = 1;
nodes = (
"869 653 LINE",
"916 653 LINE",
"916 528 LINE",
"869 528 LINE"
);
},
{
closed = 1;
nodes = (
"756 528 LINE",
"756 653 LINE",
"864 653 LINE",
"864 528 LINE"
);
},
{
closed = 1;
nodes = (
"643 528 LINE",
"643 653 LINE",
"751 653 LINE",
"751 528 LINE"
);
},
{
closed = 1;
nodes = (
"591 528 LINE",
"591 653 LINE",
"638 653 LINE",
"638 528 LINE"
);
},
{
closed = 1;
nodes = (
"529 528 LINE",
"524 528 LINE",
"426 528 LINE",
"426 653 LINE",
"524 653 LINE",
"529 653 LINE",
"586 653 LINE",
"586 528 LINE"
);
},
{
closed = 1;
nodes = (
"421 421 LINE",
"302 421 LINE",
"302 523 LINE",
"411 523 LINE",
"416 523 LINE",
"421 523 LINE"
);
},
{
closed = 1;
nodes = (
"411 367 LINE",
"411 290 LINE",
"343 290 LINE",
"343 367 LINE"
);
},
{
closed = 1;
nodes = (
"421 367 LINE",
"421 290 LINE",
"416 290 LINE",
"416 367 LINE"
);
},
{
closed = 1;
nodes = (
"503 285 LINE",
"508 285 LINE",
"586 285 LINE",
"586 266 LINE",
"529 266 LINE",
"524 266 LINE",
"426 266 LINE",
"426 285 LINE"
);
},
{
closed = 1;
nodes = (
"638 285 LINE",
"638 266 LINE",
"591 266 LINE",
"591 285 LINE"
);
},
{
closed = 1;
nodes = (
"668 285 LINE",
"673 285 LINE",
"751 285 LINE",
"751 266 LINE",
"643 266 LINE",
"643 285 LINE"
);
},
{
closed = 1;
nodes = (
"834 285 LINE",
"839 285 LINE",
"864 285 LINE",
"864 266 LINE",
"756 266 LINE",
"756 285 LINE"
);
},
{
closed = 1;
nodes = (
"916 285 LINE",
"916 266 LINE",
"869 266 LINE",
"869 285 LINE"
);
},
{
closed = 1;
nodes = (
"999 285 LINE",
"1004 285 LINE",
"1081 285 LINE",
"1081 266 LINE",
"983 266 LINE",
"978 266 LINE",
"921 266 LINE",
"921 285 LINE"
);
},
{
closed = 1;
nodes = (
"1091 285 LINE",
"1091 266 LINE",
"1086 266 LINE",
"1086 285 LINE"
);
},
{
closed = 1;
nodes = (
"1086 367 LINE",
"1091 367 LINE",
"1091 290 LINE",
"1086 290 LINE"
);
},
{
closed = 1;
nodes = (
"1164 367 LINE",
"1164 290 LINE",
"1096 290 LINE",
"1096 367 LINE"
);
},
{
closed = 1;
nodes = (
"1164 372 LINE",
"1096 372 LINE",
"1096 392 LINE",
"1205 392 LINE",
"1210 392 LINE",
"1246 392 LINE",
"1246 372 LINE",
"1169 372 LINE"
);
},
{
closed = 1;
nodes = (
"1091 397 LINE",
"1086 397 LINE",
"1086 416 LINE",
"1205 416 LINE",
"1205 397 LINE",
"1096 397 LINE"
);
},
{
closed = 1;
nodes = (
"1086 528 LINE",
"1086 653 LINE",
"1091 653 LINE",
"1091 528 LINE"
);
},
{
closed = 1;
nodes = (
"983 528 LINE",
"978 528 LINE",
"921 528 LINE",
"921 653 LINE",
"978 653 LINE",
"983 653 LINE",
"1081 653 LINE",
"1081 528 LINE"
);
},
{
closed = 1;
nodes = (
"921 658 LINE",
"921 677 LINE",
"978 677 LINE",
"978 658 LINE"
);
},
{
closed = 1;
nodes = (
"869 658 LINE",
"864 658 LINE",
"756 658 LINE",
"756 677 LINE",
"834 677 LINE",
"839 677 LINE",
"916 677 LINE",
"916 658 LINE"
);
},
{
closed = 1;
nodes = (
"643 658 LINE",
"638 658 LINE",
"591 658 LINE",
"591 677 LINE",
"668 677 LINE",
"673 677 LINE",
"751 677 LINE",
"751 658 LINE"
);
},
{
closed = 1;
nodes = (
"529 658 LINE",
"529 677 LINE",
"586 677 LINE",
"586 658 LINE"
);
},
{
closed = 1;
nodes = (
"426 658 LINE",
"426 677 LINE",
"503 677 LINE",
"508 677 LINE",
"524 677 LINE",
"524 658 LINE"
);
},
{
closed = 1;
nodes = (
"416 658 LINE",
"411 658 LINE",
"302 658 LINE",
"302 677 LINE",
"338 677 LINE",
"343 677 LINE",
"421 677 LINE",
"421 658 LINE"
);
},
{
closed = 1;
nodes = (
"261 658 LINE",
"261 677 LINE",
"297 677 LINE",
"297 658 LINE"
);
},
{
closed = 1;
nodes = (
"297 421 LINE",
"261 421 LINE",
"261 523 LINE",
"297 523 LINE"
);
},
{
closed = 1;
nodes = (
"297 397 LINE",
"261 397 LINE",
"261 416 LINE",
"297 416 LINE"
);
},
{
closed = 1;
nodes = (
"189 397 LINE",
"184 397 LINE",
"96 397 LINE",
"96 416 LINE",
"256 416 LINE",
"256 397 LINE"
);
},
{
closed = 1;
nodes = (
"256 372 LINE",
"189 372 LINE",
"189 392 LINE",
"256 392 LINE"
);
},
{
closed = 1;
nodes = (
"338 285 LINE",
"343 285 LINE",
"411 285 LINE",
"411 266 LINE",
"302 266 LINE",
"297 266 LINE",
"261 266 LINE",
"261 285 LINE"
);
},
{
closed = 1;
nodes = (
"297 136 LINE",
"261 136 LINE",
"261 261 LINE",
"297 261 LINE"
);
},
{
closed = 1;
nodes = (
"411 261 LINE",
"416 261 LINE",
"421 261 LINE",
"421 136 LINE",
"416 136 LINE",
"411 136 LINE",
"302 136 LINE",
"302 261 LINE"
);
},
{
closed = 1;
nodes = (
"524 261 LINE",
"524 136 LINE",
"426 136 LINE",
"426 261 LINE"
);
},
{
closed = 1;
nodes = (
"586 261 LINE",
"586 136 LINE",
"529 136 LINE",
"529 261 LINE"
);
},
{
closed = 1;
nodes = (
"638 261 LINE",
"643 261 LINE",
"751 261 LINE",
"751 136 LINE",
"643 136 LINE",
"638 136 LINE",
"591 136 LINE",
"591 261 LINE"
);
},
{
closed = 1;
nodes = (
"864 261 LINE",
"869 261 LINE",
"916 261 LINE",
"916 136 LINE",
"869 136 LINE",
"864 136 LINE",
"756 136 LINE",
"756 261 LINE"
);
},
{
closed = 1;
nodes = (
"978 261 LINE",
"978 136 LINE",
"921 136 LINE",
"921 261 LINE"
);
},
{
closed = 1;
nodes = (
"1081 261 LINE",
"1081 136 LINE",
"983 136 LINE",
"983 261 LINE"
);
},
{
closed = 1;
nodes = (
"1091 261 LINE",
"1096 261 LINE",
"1205 261 LINE",
"1205 136 LINE",
"1096 136 LINE",
"1091 136 LINE",
"1086 136 LINE",
"1086 261 LINE"
);
},
{
closed = 1;
nodes = (
"1246 261 LINE",
"1246 136 LINE",
"1210 136 LINE",
"1210 261 LINE"
);
},
{
closed = 1;
nodes = (
"1205 266 LINE",
"1096 266 LINE",
"1096 285 LINE",
"1164 285 LINE",
"1169 285 LINE",
"1246 285 LINE",
"1246 266 LINE",
"1210 266 LINE"
);
},
{
closed = 1;
nodes = (
"1318 285 LINE",
"1318 266 LINE",
"1251 266 LINE",
"1251 285 LINE"
);
},
{
closed = 1;
nodes = (
"1210 397 LINE",
"1210 416 LINE",
"1246 416 LINE",
"1246 397 LINE"
);
},
{
closed = 1;
nodes = (
"1210 523 LINE",
"1246 523 LINE",
"1246 421 LINE",
"1210 421 LINE"
);
},
{
closed = 1;
nodes = (
"1096 658 LINE",
"1091 658 LINE",
"1086 658 LINE",
"1086 677 LINE",
"1164 677 LINE",
"1169 677 LINE",
"1205 677 LINE",
"1205 658 LINE"
);
},
{
closed = 1;
nodes = (
"1086 682 LINE",
"1086 760 LINE",
"1164 760 LINE",
"1164 682 LINE"
);
},
{
closed = 1;
nodes = (
"1004 682 LINE",
"1004 760 LINE",
"1081 760 LINE",
"1081 682 LINE"
);
},
{
closed = 1;
nodes = (
"983 682 LINE",
"983 760 LINE",
"999 760 LINE",
"999 682 LINE"
);
},
{
closed = 1;
nodes = (
"921 682 LINE",
"921 760 LINE",
"978 760 LINE",
"978 682 LINE"
);
},
{
closed = 1;
nodes = (
"839 682 LINE",
"839 760 LINE",
"916 760 LINE",
"916 682 LINE"
);
},
{
closed = 1;
nodes = (
"756 682 LINE",
"756 760 LINE",
"834 760 LINE",
"834 682 LINE"
);
},
{
closed = 1;
nodes = (
"673 682 LINE",
"673 760 LINE",
"751 760 LINE",
"751 682 LINE"
);
},
{
closed = 1;
nodes = (
"591 682 LINE",
"591 760 LINE",
"668 760 LINE",
"668 682 LINE"
);
},
{
closed = 1;
nodes = (
"529 682 LINE",
"529 760 LINE",
"586 760 LINE",
"586 682 LINE"
);
},
{
closed = 1;
nodes = (
"508 682 LINE",
"508 760 LINE",
"524 760 LINE",
"524 682 LINE"
);
},
{
closed = 1;
nodes = (
"426 682 LINE",
"426 760 LINE",
"503 760 LINE",
"503 682 LINE"
);
},
{
closed = 1;
nodes = (
"343 682 LINE",
"343 760 LINE",
"421 760 LINE",
"421 682 LINE"
);
},
{
closed = 1;
nodes = (
"302 682 LINE",
"302 760 LINE",
"338 760 LINE",
"338 682 LINE"
);
},
{
closed = 1;
nodes = (
"261 682 LINE",
"261 760 LINE",
"297 760 LINE",
"297 682 LINE"
);
},
{
closed = 1;
nodes = (
"178 682 LINE",
"178 760 LINE",
"256 760 LINE",
"256 682 LINE"
);
},
{
closed = 1;
nodes = (
"96 682 LINE",
"96 760 LINE",
"173 760 LINE",
"173 682 LINE"
);
},
{
closed = 1;
nodes = (
"178 677 LINE",
"256 677 LINE",
"256 658 LINE",
"189 658 LINE",
"184 658 LINE",
"96 658 LINE",
"96 677 LINE",
"173 677 LINE"
);
},
{
closed = 1;
nodes = (
"184 528 LINE",
"96 528 LINE",
"96 653 LINE",
"184 653 LINE"
);
},
{
closed = 1;
nodes = (
"189 523 LINE",
"256 523 LINE",
"256 421 LINE",
"96 421 LINE",
"96 523 LINE",
"184 523 LINE"
);
},
{
closed = 1;
nodes = (
"184 392 LINE",
"184 372 LINE",
"178 372 LINE",
"173 372 LINE",
"96 372 LINE",
"96 392 LINE"
);
},
{
closed = 1;
nodes = (
"178 285 LINE",
"184 285 LINE",
"184 266 LINE",
"96 266 LINE",
"96 285 LINE",
"173 285 LINE"
);
},
{
closed = 1;
nodes = (
"189 261 LINE",
"256 261 LINE",
"256 136 LINE",
"189 136 LINE",
"184 136 LINE",
"96 136 LINE",
"96 261 LINE",
"184 261 LINE"
);
},
{
closed = 1;
nodes = (
"256 131 LINE",
"256 29 LINE",
"189 29 LINE",
"189 131 LINE"
);
},
{
closed = 1;
nodes = (
"297 131 LINE",
"302 131 LINE",
"411 131 LINE",
"411 29 LINE",
"261 29 LINE",
"261 131 LINE"
);
},
{
closed = 1;
nodes = (
"421 131 LINE",
"421 29 LINE",
"416 29 LINE",
"416 131 LINE"
);
},
{
closed = 1;
nodes = (
"524 131 LINE",
"529 131 LINE",
"586 131 LINE",
"586 29 LINE",
"426 29 LINE",
"426 131 LINE"
);
},
{
closed = 1;
nodes = (
"638 131 LINE",
"638 29 LINE",
"591 29 LINE",
"591 131 LINE"
);
},
{
closed = 1;
nodes = (
"751 131 LINE",
"751 29 LINE",
"643 29 LINE",
"643 131 LINE"
);
},
{
closed = 1;
nodes = (
"864 131 LINE",
"864 29 LINE",
"756 29 LINE",
"756 131 LINE"
);
},
{
closed = 1;
nodes = (
"916 131 LINE",
"916 29 LINE",
"869 29 LINE",
"869 131 LINE"
);
},
{
closed = 1;
nodes = (
"978 131 LINE",
"983 131 LINE",
"1081 131 LINE",
"1081 29 LINE",
"921 29 LINE",
"921 131 LINE"
);
},
{
closed = 1;
nodes = (
"1091 131 LINE",
"1091 29 LINE",
"1086 29 LINE",
"1086 131 LINE"
);
},
{
closed = 1;
nodes = (
"1205 131 LINE",
"1210 131 LINE",
"1246 131 LINE",
"1246 29 LINE",
"1096 29 LINE",
"1096 131 LINE"
);
},
{
closed = 1;
nodes = (
"1318 131 LINE",
"1318 29 LINE",
"1251 29 LINE",
"1251 131 LINE"
);
},
{
closed = 1;
nodes = (
"1411 131 LINE",
"1411 29 LINE",
"1323 29 LINE",
"1323 131 LINE"
);
},
{
closed = 1;
nodes = (
"1251 136 LINE",
"1251 261 LINE",
"1323 261 LINE",
"1411 261 LINE",
"1411 136 LINE",
"1323 136 LINE"
);
},
{
closed = 1;
nodes = (
"1323 285 LINE",
"1329 285 LINE",
"1334 285 LINE",
"1411 285 LINE",
"1411 266 LINE",
"1323 266 LINE"
);
},
{
closed = 1;
nodes = (
"1334 290 LINE",
"1334 367 LINE",
"1411 367 LINE",
"1411 290 LINE"
);
},
{
closed = 1;
nodes = (
"1329 372 LINE",
"1323 372 LINE",
"1323 392 LINE",
"1411 392 LINE",
"1411 372 LINE",
"1334 372 LINE"
);
},
{
closed = 1;
nodes = (
"1251 523 LINE",
"1323 523 LINE",
"1411 523 LINE",
"1411 421 LINE",
"1251 421 LINE"
);
},
{
closed = 1;
nodes = (
"1323 653 LINE",
"1411 653 LINE",
"1411 528 LINE",
"1323 528 LINE"
);
},
{
closed = 1;
nodes = (
"1251 658 LINE",
"1251 677 LINE",
"1329 677 LINE",
"1334 677 LINE",
"1411 677 LINE",
"1411 658 LINE",
"1323 658 LINE"
);
},
{
closed = 1;
nodes = (
"1334 682 LINE",
"1334 760 LINE",
"1411 760 LINE",
"1411 682 LINE"
);
},
{
closed = 1;
nodes = (
"1251 682 LINE",
"1251 760 LINE",
"1329 760 LINE",
"1329 682 LINE"
);
},
{
closed = 1;
nodes = (
"1210 682 LINE",
"1210 760 LINE",
"1246 760 LINE",
"1246 682 LINE"
);
},
{
closed = 1;
nodes = (
"1169 682 LINE",
"1169 760 LINE",
"1205 760 LINE",
"1205 682 LINE"
);
},
{
closed = 1;
nodes = (
"978 765 LINE",
"921 765 LINE",
"916 765 LINE",
"839 765 LINE",
"834 765 LINE",
"756 765 LINE",
"756 784 LINE",
"978 784 LINE"
);
},
{
closed = 1;
nodes = (
"751 765 LINE",
"673 765 LINE",
"668 765 LINE",
"591 765 LINE",
"586 765 LINE",
"529 765 LINE",
"529 784 LINE",
"751 784 LINE"
);
},
{
closed = 1;
nodes = (
"524 765 LINE",
"508 765 LINE",
"503 765 LINE",
"426 765 LINE",
"421 765 LINE",
"343 765 LINE",
"338 765 LINE",
"302 765 LINE",
"302 784 LINE",
"524 784 LINE"
);
},
{
closed = 1;
nodes = (
"297 784 LINE",
"297 765 LINE",
"261 765 LINE",
"256 765 LINE",
"178 765 LINE",
"173 765 LINE",
"91 765 LINE",
"91 677 LINE",
"91 658 LINE",
"75 658 LINE",
"75 784 LINE"
);
},
{
closed = 1;
nodes = (
"91 653 LINE",
"91 528 LINE",
"75 528 LINE",
"75 653 LINE"
);
},
{
closed = 1;
nodes = (
"91 523 LINE",
"91 421 LINE",
"91 397 LINE",
"75 397 LINE",
"75 523 LINE"
);
},
{
closed = 1;
nodes = (
"91 392 LINE",
"91 372 LINE",
"91 367 LINE",
"91 285 LINE",
"91 266 LINE",
"75 266 LINE",
"75 392 LINE"
);
},
{
closed = 1;
nodes = (
"91 261 LINE",
"91 136 LINE",
"75 136 LINE",
"75 261 LINE"
);
},
{
closed = 1;
nodes = (
"75 131 LINE",
"91 131 LINE",
"91 24 LINE",
"184 24 LINE",
"184 5 LINE",
"75 5 LINE"
);
},
{
closed = 1;
nodes = (
"189 24 LINE",
"411 24 LINE",
"411 5 LINE",
"189 5 LINE"
);
},
{
closed = 1;
nodes = (
"416 24 LINE",
"638 24 LINE",
"638 5 LINE",
"416 5 LINE"
);
},
{
closed = 1;
nodes = (
"643 24 LINE",
"864 24 LINE",
"864 5 LINE",
"643 5 LINE"
);
},
{
closed = 1;
nodes = (
"869 24 LINE",
"1091 24 LINE",
"1091 5 LINE",
"869 5 LINE"
);
},
{
closed = 1;
nodes = (
"1096 24 LINE",
"1318 24 LINE",
"1318 5 LINE",
"1096 5 LINE"
);
},
{
closed = 1;
nodes = (
"1323 5 LINE",
"1323 24 LINE",
"1416 24 LINE",
"1416 131 LINE",
"1432 131 LINE",
"1432 5 LINE"
);
},
{
closed = 1;
nodes = (
"1416 136 LINE",
"1416 261 LINE",
"1432 261 LINE",
"1432 136 LINE"
);
},
{
closed = 1;
nodes = (
"1416 266 LINE",
"1416 285 LINE",
"1416 367 LINE",
"1416 372 LINE",
"1416 392 LINE",
"1432 392 LINE",
"1432 266 LINE"
);
},
{
closed = 1;
nodes = (
"1416 397 LINE",
"1416 421 LINE",
"1416 523 LINE",
"1432 523 LINE",
"1432 397 LINE"
);
},
{
closed = 1;
nodes = (
"1416 528 LINE",
"1416 653 LINE",
"1432 653 LINE",
"1432 528 LINE"
);
},
{
closed = 1;
nodes = (
"1416 677 LINE",
"1416 765 LINE",
"1334 765 LINE",
"1329 765 LINE",
"1251 765 LINE",
"1246 765 LINE",
"1210 765 LINE",
"1210 784 LINE",
"1432 784 LINE",
"1432 658 LINE",
"1416 658 LINE"
);
},
{
closed = 1;
nodes = (
"1437 789 LINE",
"1437 0 LINE",
"70 0 LINE",
"70 789 LINE"
);
}
);
width = 1507;
},
{
layerId = "18468F94-9FC9-4171-B83A-16111EF84EF0";
paths = (
{
closed = 1;
nodes = (
"1205 789 LINE",
"983 789 LINE",
"978 789 LINE",
"756 789 LINE",
"751 789 LINE",
"529 789 LINE",
"524 789 LINE",
"302 789 LINE",
"297 789 LINE",
"70 789 LINE",
"70 658 LINE",
"70 653 LINE",
"70 528 LINE",
"70 523 LINE",
"70 397 LINE",
"70 392 LINE",
"70 266 LINE",
"70 261 LINE",
"70 136 LINE",
"70 131 LINE",
"70 0 LINE",
"184 0 LINE",
"189 0 LINE",
"411 0 LINE",
"416 0 LINE",
"638 0 LINE",
"643 0 LINE",
"864 0 LINE",
"869 0 LINE",
"1091 0 LINE",
"1096 0 LINE",
"1323 0 LINE",
"1437 0 LINE",
"1437 131 LINE",
"1437 136 LINE",
"1437 261 LINE",
"1437 266 LINE",
"1437 392 LINE",
"1437 397 LINE",
"1437 523 LINE",
"1437 528 LINE",
"1437 653 LINE",
"1437 658 LINE",
"1437 789 LINE",
"1210 789 LINE"
);
},
{
closed = 1;
nodes = (
"1205 765 LINE",
"1169 765 LINE",
"1164 765 LINE",
"1086 765 LINE",
"1081 765 LINE",
"1004 765 LINE",
"999 765 LINE",
"983 765 LINE",
"983 784 LINE",
"1205 784 LINE"
);
},
{
closed = 1;
nodes = (
"184 131 LINE",
"184 29 LINE",
"96 29 LINE",
"96 131 LINE"
);
},
{
closed = 1;
nodes = (
"173 367 LINE",
"173 290 LINE",
"96 290 LINE",
"96 367 LINE"
);
},
{
closed = 1;
nodes = (
"1210 658 LINE",
"1210 677 LINE",
"1246 677 LINE",
"1246 658 LINE"
);
},
{
closed = 1;
nodes = (
"1251 528 LINE",
"1251 653 LINE",
"1318 653 LINE",
"1318 528 LINE"
);
},
{
closed = 1;
nodes = (
"1210 528 LINE",
"1205 528 LINE",
"1096 528 LINE",
"1096 653 LINE",
"1205 653 LINE",
"1210 653 LINE",
"1246 653 LINE",
"1246 528 LINE"
);
},
{
closed = 1;
nodes = (
"1323 397 LINE",
"1251 397 LINE",
"1251 416 LINE",
"1411 416 LINE",
"1411 397 LINE"
);
},
{
closed = 1;
nodes = (
"1251 372 LINE",
"1251 392 LINE",
"1318 392 LINE",
"1318 372 LINE"
);
},
{
closed = 1;
nodes = (
"1251 290 LINE",
"1251 367 LINE",
"1318 367 LINE",
"1318 290 LINE"
);
},
{
closed = 1;
nodes = (
"1329 367 LINE",
"1329 290 LINE",
"1323 290 LINE",
"1323 367 LINE"
);
},
{
closed = 1;
nodes = (
"256 285 LINE",
"256 266 LINE",
"189 266 LINE",
"189 285 LINE"
);
},
{
closed = 1;
nodes = (
"184 367 LINE",
"184 290 LINE",
"178 290 LINE",
"178 367 LINE"
);
},
{
closed = 1;
nodes = (
"256 367 LINE",
"256 290 LINE",
"189 290 LINE",
"189 367 LINE"
);
},
{
closed = 1;
nodes = (
"256 653 LINE",
"256 528 LINE",
"189 528 LINE",
"189 653 LINE"
);
},
{
closed = 1;
nodes = (
"297 653 LINE",
"302 653 LINE",
"411 653 LINE",
"411 528 LINE",
"302 528 LINE",
"297 528 LINE",
"261 528 LINE",
"261 653 LINE"
);
},
{
closed = 1;
nodes = (
"983 658 LINE",
"983 677 LINE",
"999 677 LINE",
"1004 677 LINE",
"1081 677 LINE",
"1081 658 LINE"
);
},
{
closed = 1;
nodes = (
"1086 421 LINE",
"1086 523 LINE",
"1091 523 LINE",
"1096 523 LINE",
"1205 523 LINE",
"1205 421 LINE"
);
},
{
closed = 1;
nodes = (
"1169 290 LINE",
"1169 367 LINE",
"1246 367 LINE",
"1246 290 LINE"
);
},
{
closed = 1;
nodes = (
"421 285 LINE",
"421 266 LINE",
"416 266 LINE",
"416 285 LINE"
);
},
{
closed = 1;
nodes = (
"338 367 LINE",
"338 290 LINE",
"261 290 LINE",
"261 367 LINE"
);
},
{
closed = 1;
nodes = (
"297 392 LINE",
"302 392 LINE",
"411 392 LINE",
"411 372 LINE",
"343 372 LINE",
"338 372 LINE",
"261 372 LINE",
"261 392 LINE"
);
},
{
closed = 1;
nodes = (
"421 416 LINE",
"421 397 LINE",
"416 397 LINE",
"411 397 LINE",
"302 397 LINE",
"302 416 LINE"
);
},
{
closed = 1;
nodes = (
"421 653 LINE",
"421 528 LINE",
"416 528 LINE",
"416 653 LINE"
);
},
{
closed = 1;
nodes = (
"1086 372 LINE",
"1086 392 LINE",
"1091 392 LINE",
"1091 372 LINE"
);
},
{
closed = 1;
nodes = (
"1004 372 LINE",
"999 372 LINE",
"921 372 LINE",
"921 392 LINE",
"978 392 LINE",
"983 392 LINE",
"1081 392 LINE",
"1081 372 LINE"
);
},
{
closed = 1;
nodes = (
"1004 290 LINE",
"1004 367 LINE",
"1081 367 LINE",
"1081 290 LINE"
);
},
{
closed = 1;
nodes = (
"869 290 LINE",
"869 367 LINE",
"916 367 LINE",
"916 290 LINE"
);
},
{
closed = 1;
nodes = (
"673 290 LINE",
"673 367 LINE",
"751 367 LINE",
"751 290 LINE"
);
},
{
closed = 1;
nodes = (
"508 290 LINE",
"508 367 LINE",
"586 367 LINE",
"586 290 LINE"
);
},
{
closed = 1;
nodes = (
"591 421 LINE",
"591 523 LINE",
"638 523 LINE",
"643 523 LINE",
"751 523 LINE",
"751 421 LINE"
);
},
{
closed = 1;
nodes = (
"869 397 LINE",
"864 397 LINE",
"756 397 LINE",
"756 416 LINE",
"916 416 LINE",
"916 397 LINE"
);
},
{
closed = 1;
nodes = (
"978 416 LINE",
"978 397 LINE",
"921 397 LINE",
"921 416 LINE"
);
},
{
closed = 1;
nodes = (
"638 392 LINE",
"638 372 LINE",
"591 372 LINE",
"591 392 LINE"
);
},
{
closed = 1;
nodes = (
"751 392 LINE",
"751 372 LINE",
"673 372 LINE",
"668 372 LINE",
"643 372 LINE",
"643 392 LINE"
);
},
{
closed = 1;
nodes = (
"864 392 LINE",
"864 372 LINE",
"839 372 LINE",
"834 372 LINE",
"756 372 LINE",
"756 392 LINE"
);
},
{
closed = 1;
nodes = (
"916 392 LINE",
"916 372 LINE",
"869 372 LINE",
"869 392 LINE"
);
},
{
closed = 1;
nodes = (
"643 397 LINE",
"638 397 LINE",
"591 397 LINE",
"591 416 LINE",
"751 416 LINE",
"751 397 LINE"
);
},
{
closed = 1;
nodes = (
"586 416 LINE",
"586 397 LINE",
"529 397 LINE",
"529 416 LINE"
);
},
{
closed = 1;
nodes = (
"529 421 LINE",
"529 523 LINE",
"586 523 LINE",
"586 421 LINE"
);
},
{
closed = 1;
nodes = (
"426 421 LINE",
"426 523 LINE",
"524 523 LINE",
"524 421 LINE"
);
},
{
closed = 1;
nodes = (
"524 397 LINE",
"426 397 LINE",
"426 416 LINE",
"524 416 LINE"
);
},
{
closed = 1;
nodes = (
"529 392 LINE",
"586 392 LINE",
"586 372 LINE",
"508 372 LINE",
"503 372 LINE",
"426 372 LINE",
"426 392 LINE",
"524 392 LINE"
);
},
{
closed = 1;
nodes = (
"416 372 LINE",
"416 392 LINE",
"421 392 LINE",
"421 372 LINE"
);
},
{
closed = 1;
nodes = (
"503 367 LINE",
"503 290 LINE",
"426 290 LINE",
"426 367 LINE"
);
},
{
closed = 1;
nodes = (
"638 367 LINE",
"638 290 LINE",
"591 290 LINE",
"591 367 LINE"
);
},
{
closed = 1;
nodes = (
"668 367 LINE",
"668 290 LINE",
"643 290 LINE",
"643 367 LINE"
);
},
{
closed = 1;
nodes = (
"834 367 LINE",
"834 290 LINE",
"756 290 LINE",
"756 367 LINE"
);
},
{
closed = 1;
nodes = (
"864 367 LINE",
"864 290 LINE",
"839 290 LINE",
"839 367 LINE"
);
},
{
closed = 1;
nodes = (
"999 367 LINE",
"999 290 LINE",
"921 290 LINE",
"921 367 LINE"
);
},
{
closed = 1;
nodes = (
"983 416 LINE",
"1081 416 LINE",
"1081 397 LINE",
"983 397 LINE"
);
},
{
closed = 1;
nodes = (
"983 523 LINE",
"1081 523 LINE",
"1081 421 LINE",
"983 421 LINE"
);
},
{
closed = 1;
nodes = (
"921 421 LINE",
"921 523 LINE",
"978 523 LINE",
"978 421 LINE"
);
},
{
closed = 1;
nodes = (
"756 421 LINE",
"756 523 LINE",
"864 523 LINE",
"869 523 LINE",
"916 523 LINE",
"916 421 LINE"
);
},
{
closed = 1;
nodes = (
"869 653 LINE",
"916 653 LINE",
"916 528 LINE",
"869 528 LINE"
);
},
{
closed = 1;
nodes = (
"756 528 LINE",
"756 653 LINE",
"864 653 LINE",
"864 528 LINE"
);
},
{
closed = 1;
nodes = (
"643 528 LINE",
"643 653 LINE",
"751 653 LINE",
"751 528 LINE"
);
},
{
closed = 1;
nodes = (
"591 528 LINE",
"591 653 LINE",
"638 653 LINE",
"638 528 LINE"
);
},
{
closed = 1;
nodes = (
"529 528 LINE",
"524 528 LINE",
"426 528 LINE",
"426 653 LINE",
"524 653 LINE",
"529 653 LINE",
"586 653 LINE",
"586 528 LINE"
);
},
{
closed = 1;
nodes = (
"421 421 LINE",
"302 421 LINE",
"302 523 LINE",
"411 523 LINE",
"416 523 LINE",
"421 523 LINE"
);
},
{
closed = 1;
nodes = (
"411 367 LINE",
"411 290 LINE",
"343 290 LINE",
"343 367 LINE"
);
},
{
closed = 1;
nodes = (
"421 367 LINE",
"421 290 LINE",
"416 290 LINE",
"416 367 LINE"
);
},
{
closed = 1;
nodes = (
"503 285 LINE",
"508 285 LINE",
"586 285 LINE",
"586 266 LINE",
"529 266 LINE",
"524 266 LINE",
"426 266 LINE",
"426 285 LINE"
);
},
{
closed = 1;
nodes = (
"638 285 LINE",
"638 266 LINE",
"591 266 LINE",
"591 285 LINE"
);
},
{
closed = 1;
nodes = (
"668 285 LINE",
"673 285 LINE",
"751 285 LINE",
"751 266 LINE",
"643 266 LINE",
"643 285 LINE"
);
},
{
closed = 1;
nodes = (
"834 285 LINE",
"839 285 LINE",
"864 285 LINE",
"864 266 LINE",
"756 266 LINE",
"756 285 LINE"
);
},
{
closed = 1;
nodes = (
"916 285 LINE",
"916 266 LINE",
"869 266 LINE",
"869 285 LINE"
);
},
{
closed = 1;
nodes = (
"999 285 LINE",
"1004 285 LINE",
"1081 285 LINE",
"1081 266 LINE",
"983 266 LINE",
"978 266 LINE",
"921 266 LINE",
"921 285 LINE"
);
},
{
closed = 1;
nodes = (
"1091 285 LINE",
"1091 266 LINE",
"1086 266 LINE",
"1086 285 LINE"
);
},
{
closed = 1;
nodes = (
"1086 367 LINE",
"1091 367 LINE",
"1091 290 LINE",
"1086 290 LINE"
);
},
{
closed = 1;
nodes = (
"1164 367 LINE",
"1164 290 LINE",
"1096 290 LINE",
"1096 367 LINE"
);
},
{
closed = 1;
nodes = (
"1164 372 LINE",
"1096 372 LINE",
"1096 392 LINE",
"1205 392 LINE",
"1210 392 LINE",
"1246 392 LINE",
"1246 372 LINE",
"1169 372 LINE"
);
},
{
closed = 1;
nodes = (
"1091 397 LINE",
"1086 397 LINE",
"1086 416 LINE",
"1205 416 LINE",
"1205 397 LINE",
"1096 397 LINE"
);
},
{
closed = 1;
nodes = (
"1086 528 LINE",
"1086 653 LINE",
"1091 653 LINE",
"1091 528 LINE"
);
},
{
closed = 1;
nodes = (
"983 528 LINE",
"978 528 LINE",
"921 528 LINE",
"921 653 LINE",
"978 653 LINE",
"983 653 LINE",
"1081 653 LINE",
"1081 528 LINE"
);
},
{
closed = 1;
nodes = (
"921 658 LINE",
"921 677 LINE",
"978 677 LINE",
"978 658 LINE"
);
},
{
closed = 1;
nodes = (
"869 658 LINE",
"864 658 LINE",
"756 658 LINE",
"756 677 LINE",
"834 677 LINE",
"839 677 LINE",
"916 677 LINE",
"916 658 LINE"
);
},
{
closed = 1;
nodes = (
"643 658 LINE",
"638 658 LINE",
"591 658 LINE",
"591 677 LINE",
"668 677 LINE",
"673 677 LINE",
"751 677 LINE",
"751 658 LINE"
);
},
{
closed = 1;
nodes = (
"529 658 LINE",
"529 677 LINE",
"586 677 LINE",
"586 658 LINE"
);
},
{
closed = 1;
nodes = (
"426 658 LINE",
"426 677 LINE",
"503 677 LINE",
"508 677 LINE",
"524 677 LINE",
"524 658 LINE"
);
},
{
closed = 1;
nodes = (
"416 658 LINE",
"411 658 LINE",
"302 658 LINE",
"302 677 LINE",
"338 677 LINE",
"343 677 LINE",
"421 677 LINE",
"421 658 LINE"
);
},
{
closed = 1;
nodes = (
"261 658 LINE",
"261 677 LINE",
"297 677 LINE",
"297 658 LINE"
);
},
{
closed = 1;
nodes = (
"297 421 LINE",
"261 421 LINE",
"261 523 LINE",
"297 523 LINE"
);
},
{
closed = 1;
nodes = (
"297 397 LINE",
"261 397 LINE",
"261 416 LINE",
"297 416 LINE"
);
},
{
closed = 1;
nodes = (
"189 397 LINE",
"184 397 LINE",
"96 397 LINE",
"96 416 LINE",
"256 416 LINE",
"256 397 LINE"
);
},
{
closed = 1;
nodes = (
"256 372 LINE",
"189 372 LINE",
"189 392 LINE",
"256 392 LINE"
);
},
{
closed = 1;
nodes = (
"338 285 LINE",
"343 285 LINE",
"411 285 LINE",
"411 266 LINE",
"302 266 LINE",
"297 266 LINE",
"261 266 LINE",
"261 285 LINE"
);
},
{
closed = 1;
nodes = (
"297 136 LINE",
"261 136 LINE",
"261 261 LINE",
"297 261 LINE"
);
},
{
closed = 1;
nodes = (
"411 261 LINE",
"416 261 LINE",
"421 261 LINE",
"421 136 LINE",
"416 136 LINE",
"411 136 LINE",
"302 136 LINE",
"302 261 LINE"
);
},
{
closed = 1;
nodes = (
"524 261 LINE",
"524 136 LINE",
"426 136 LINE",
"426 261 LINE"
);
},
{
closed = 1;
nodes = (
"586 261 LINE",
"586 136 LINE",
"529 136 LINE",
"529 261 LINE"
);
},
{
closed = 1;
nodes = (
"638 261 LINE",
"643 261 LINE",
"751 261 LINE",
"751 136 LINE",
"643 136 LINE",
"638 136 LINE",
"591 136 LINE",
"591 261 LINE"
);
},
{
closed = 1;
nodes = (
"864 261 LINE",
"869 261 LINE",
"916 261 LINE",
"916 136 LINE",
"869 136 LINE",
"864 136 LINE",
"756 136 LINE",
"756 261 LINE"
);
},
{
closed = 1;
nodes = (
"978 261 LINE",
"978 136 LINE",
"921 136 LINE",
"921 261 LINE"
);
},
{
closed = 1;
nodes = (
"1081 261 LINE",
"1081 136 LINE",
"983 136 LINE",
"983 261 LINE"
);
},
{
closed = 1;
nodes = (
"1091 261 LINE",
"1096 261 LINE",
"1205 261 LINE",
"1205 136 LINE",
"1096 136 LINE",
"1091 136 LINE",
"1086 136 LINE",
"1086 261 LINE"
);
},
{
closed = 1;
nodes = (
"1246 261 LINE",
"1246 136 LINE",
"1210 136 LINE",
"1210 261 LINE"
);
},
{
closed = 1;
nodes = (
"1205 266 LINE",
"1096 266 LINE",
"1096 285 LINE",
"1164 285 LINE",
"1169 285 LINE",
"1246 285 LINE",
"1246 266 LINE",
"1210 266 LINE"
);
},
{
closed = 1;
nodes = (
"1318 285 LINE",
"1318 266 LINE",
"1251 266 LINE",
"1251 285 LINE"
);
},
{
closed = 1;
nodes = (
"1210 397 LINE",
"1210 416 LINE",
"1246 416 LINE",
"1246 397 LINE"
);
},
{
closed = 1;
nodes = (
"1210 523 LINE",
"1246 523 LINE",
"1246 421 LINE",
"1210 421 LINE"
);
},
{
closed = 1;
nodes = (
"1096 658 LINE",
"1091 658 LINE",
"1086 658 LINE",
"1086 677 LINE",
"1164 677 LINE",
"1169 677 LINE",
"1205 677 LINE",
"1205 658 LINE"
);
},
{
closed = 1;
nodes = (
"1086 682 LINE",
"1086 760 LINE",
"1164 760 LINE",
"1164 682 LINE"
);
},
{
closed = 1;
nodes = (
"1004 682 LINE",
"1004 760 LINE",
"1081 760 LINE",
"1081 682 LINE"
);
},
{
closed = 1;
nodes = (
"983 682 LINE",
"983 760 LINE",
"999 760 LINE",
"999 682 LINE"
);
},
{
closed = 1;
nodes = (
"921 682 LINE",
"921 760 LINE",
"978 760 LINE",
"978 682 LINE"
);
},
{
closed = 1;
nodes = (
"839 682 LINE",
"839 760 LINE",
"916 760 LINE",
"916 682 LINE"
);
},
{
closed = 1;
nodes = (
"756 682 LINE",
"756 760 LINE",
"834 760 LINE",
"834 682 LINE"
);
},
{
closed = 1;
nodes = (
"673 682 LINE",
"673 760 LINE",
"751 760 LINE",
"751 682 LINE"
);
},
{
closed = 1;
nodes = (
"591 682 LINE",
"591 760 LINE",
"668 760 LINE",
"668 682 LINE"
);
},
{
closed = 1;
nodes = (
"529 682 LINE",
"529 760 LINE",
"586 760 LINE",
"586 682 LINE"
);
},
{
closed = 1;
nodes = (
"508 682 LINE",
"508 760 LINE",
"524 760 LINE",
"524 682 LINE"
);
},
{
closed = 1;
nodes = (
"426 682 LINE",
"426 760 LINE",
"503 760 LINE",
"503 682 LINE"
);
},
{
closed = 1;
nodes = (
"343 682 LINE",
"343 760 LINE",
"421 760 LINE",
"421 682 LINE"
);
},
{
closed = 1;
nodes = (
"302 682 LINE",
"302 760 LINE",
"338 760 LINE",
"338 682 LINE"
);
},
{
closed = 1;
nodes = (
"261 682 LINE",
"261 760 LINE",
"297 760 LINE",
"297 682 LINE"
);
},
{
closed = 1;
nodes = (
"178 682 LINE",
"178 760 LINE",
"256 760 LINE",
"256 682 LINE"
);
},
{
closed = 1;
nodes = (
"96 682 LINE",
"96 760 LINE",
"173 760 LINE",
"173 682 LINE"
);
},
{
closed = 1;
nodes = (
"178 677 LINE",
"256 677 LINE",
"256 658 LINE",
"189 658 LINE",
"184 658 LINE",
"96 658 LINE",
"96 677 LINE",
"173 677 LINE"
);
},
{
closed = 1;
nodes = (
"184 528 LINE",
"96 528 LINE",
"96 653 LINE",
"184 653 LINE"
);
},
{
closed = 1;
nodes = (
"189 523 LINE",
"256 523 LINE",
"256 421 LINE",
"96 421 LINE",
"96 523 LINE",
"184 523 LINE"
);
},
{
closed = 1;
nodes = (
"184 392 LINE",
"184 372 LINE",
"178 372 LINE",
"173 372 LINE",
"96 372 LINE",
"96 392 LINE"
);
},
{
closed = 1;
nodes = (
"178 285 LINE",
"184 285 LINE",
"184 266 LINE",
"96 266 LINE",
"96 285 LINE",
"173 285 LINE"
);
},
{
closed = 1;
nodes = (
"189 261 LINE",
"256 261 LINE",
"256 136 LINE",
"189 136 LINE",
"184 136 LINE",
"96 136 LINE",
"96 261 LINE",
"184 261 LINE"
);
},
{
closed = 1;
nodes = (
"256 131 LINE",
"256 29 LINE",
"189 29 LINE",
"189 131 LINE"
);
},
{
closed = 1;
nodes = (
"297 131 LINE",
"302 131 LINE",
"411 131 LINE",
"411 29 LINE",
"261 29 LINE",
"261 131 LINE"
);
},
{
closed = 1;
nodes = (
"421 131 LINE",
"421 29 LINE",
"416 29 LINE",
"416 131 LINE"
);
},
{
closed = 1;
nodes = (
"524 131 LINE",
"529 131 LINE",
"586 131 LINE",
"586 29 LINE",
"426 29 LINE",
"426 131 LINE"
);
},
{
closed = 1;
nodes = (
"638 131 LINE",
"638 29 LINE",
"591 29 LINE",
"591 131 LINE"
);
},
{
closed = 1;
nodes = (
"751 131 LINE",
"751 29 LINE",
"643 29 LINE",
"643 131 LINE"
);
},
{
closed = 1;
nodes = (
"864 131 LINE",
"864 29 LINE",
"756 29 LINE",
"756 131 LINE"
);
},
{
closed = 1;
nodes = (
"916 131 LINE",
"916 29 LINE",
"869 29 LINE",
"869 131 LINE"
);
},
{
closed = 1;
nodes = (
"978 131 LINE",
"983 131 LINE",
"1081 131 LINE",
"1081 29 LINE",
"921 29 LINE",
"921 131 LINE"
);
},
{
closed = 1;
nodes = (
"1091 131 LINE",
"1091 29 LINE",
"1086 29 LINE",
"1086 131 LINE"
);
},
{
closed = 1;
nodes = (
"1205 131 LINE",
"1210 131 LINE",
"1246 131 LINE",
"1246 29 LINE",
"1096 29 LINE",
"1096 131 LINE"
);
},
{
closed = 1;
nodes = (
"1318 131 LINE",
"1318 29 LINE",
"1251 29 LINE",
"1251 131 LINE"
);
},
{
closed = 1;
nodes = (
"1411 131 LINE",
"1411 29 LINE",
"1323 29 LINE",
"1323 131 LINE"
);
},
{
closed = 1;
nodes = (
"1251 136 LINE",
"1251 261 LINE",
"1323 261 LINE",
"1411 261 LINE",
"1411 136 LINE",
"1323 136 LINE"
);
},
{
closed = 1;
nodes = (
"1323 285 LINE",
"1329 285 LINE",
"1334 285 LINE",
"1411 285 LINE",
"1411 266 LINE",
"1323 266 LINE"
);
},
{
closed = 1;
nodes = (
"1334 290 LINE",
"1334 367 LINE",
"1411 367 LINE",
"1411 290 LINE"
);
},
{
closed = 1;
nodes = (
"1329 372 LINE",
"1323 372 LINE",
"1323 392 LINE",
"1411 392 LINE",
"1411 372 LINE",
"1334 372 LINE"
);
},
{
closed = 1;
nodes = (
"1251 523 LINE",
"1323 523 LINE",
"1411 523 LINE",
"1411 421 LINE",
"1251 421 LINE"
);
},
{
closed = 1;
nodes = (
"1323 653 LINE",
"1411 653 LINE",
"1411 528 LINE",
"1323 528 LINE"
);
},
{
closed = 1;
nodes = (
"1251 658 LINE",
"1251 677 LINE",
"1329 677 LINE",
"1334 677 LINE",
"1411 677 LINE",
"1411 658 LINE",
"1323 658 LINE"
);
},
{
closed = 1;
nodes = (
"1334 682 LINE",
"1334 760 LINE",
"1411 760 LINE",
"1411 682 LINE"
);
},
{
closed = 1;
nodes = (
"1251 682 LINE",
"1251 760 LINE",
"1329 760 LINE",
"1329 682 LINE"
);
},
{
closed = 1;
nodes = (
"1210 682 LINE",
"1210 760 LINE",
"1246 760 LINE",
"1246 682 LINE"
);
},
{
closed = 1;
nodes = (
"1169 682 LINE",
"1169 760 LINE",
"1205 760 LINE",
"1205 682 LINE"
);
},
{
closed = 1;
nodes = (
"978 765 LINE",
"921 765 LINE",
"916 765 LINE",
"839 765 LINE",
"834 765 LINE",
"756 765 LINE",
"756 784 LINE",
"978 784 LINE"
);
},
{
closed = 1;
nodes = (
"751 765 LINE",
"673 765 LINE",
"668 765 LINE",
"591 765 LINE",
"586 765 LINE",
"529 765 LINE",
"529 784 LINE",
"751 784 LINE"
);
},
{
closed = 1;
nodes = (
"524 765 LINE",
"508 765 LINE",
"503 765 LINE",
"426 765 LINE",
"421 765 LINE",
"343 765 LINE",
"338 765 LINE",
"302 765 LINE",
"302 784 LINE",
"524 784 LINE"
);
},
{
closed = 1;
nodes = (
"297 784 LINE",
"297 765 LINE",
"261 765 LINE",
"256 765 LINE",
"178 765 LINE",
"173 765 LINE",
"91 765 LINE",
"91 677 LINE",
"91 658 LINE",
"75 658 LINE",
"75 784 LINE"
);
},
{
closed = 1;
nodes = (
"91 653 LINE",
"91 528 LINE",
"75 528 LINE",
"75 653 LINE"
);
},
{
closed = 1;
nodes = (
"91 523 LINE",
"91 421 LINE",
"91 397 LINE",
"75 397 LINE",
"75 523 LINE"
);
},
{
closed = 1;
nodes = (
"91 392 LINE",
"91 372 LINE",
"91 367 LINE",
"91 285 LINE",
"91 266 LINE",
"75 266 LINE",
"75 392 LINE"
);
},
{
closed = 1;
nodes = (
"91 261 LINE",
"91 136 LINE",
"75 136 LINE",
"75 261 LINE"
);
},
{
closed = 1;
nodes = (
"75 131 LINE",
"91 131 LINE",
"91 24 LINE",
"184 24 LINE",
"184 5 LINE",
"75 5 LINE"
);
},
{
closed = 1;
nodes = (
"189 24 LINE",
"411 24 LINE",
"411 5 LINE",
"189 5 LINE"
);
},
{
closed = 1;
nodes = (
"416 24 LINE",
"638 24 LINE",
"638 5 LINE",
"416 5 LINE"
);
},
{
closed = 1;
nodes = (
"643 24 LINE",
"864 24 LINE",
"864 5 LINE",
"643 5 LINE"
);
},
{
closed = 1;
nodes = (
"869 24 LINE",
"1091 24 LINE",
"1091 5 LINE",
"869 5 LINE"
);
},
{
closed = 1;
nodes = (
"1096 24 LINE",
"1318 24 LINE",
"1318 5 LINE",
"1096 5 LINE"
);
},
{
closed = 1;
nodes = (
"1323 5 LINE",
"1323 24 LINE",
"1416 24 LINE",
"1416 131 LINE",
"1432 131 LINE",
"1432 5 LINE"
);
},
{
closed = 1;
nodes = (
"1416 136 LINE",
"1416 261 LINE",
"1432 261 LINE",
"1432 136 LINE"
);
},
{
closed = 1;
nodes = (
"1416 266 LINE",
"1416 285 LINE",
"1416 367 LINE",
"1416 372 LINE",
"1416 392 LINE",
"1432 392 LINE",
"1432 266 LINE"
);
},
{
closed = 1;
nodes = (
"1416 397 LINE",
"1416 421 LINE",
"1416 523 LINE",
"1432 523 LINE",
"1432 397 LINE"
);
},
{
closed = 1;
nodes = (
"1416 528 LINE",
"1416 653 LINE",
"1432 653 LINE",
"1432 528 LINE"
);
},
{
closed = 1;
nodes = (
"1416 677 LINE",
"1416 765 LINE",
"1334 765 LINE",
"1329 765 LINE",
"1251 765 LINE",
"1246 765 LINE",
"1210 765 LINE",
"1210 784 LINE",
"1432 784 LINE",
"1432 658 LINE",
"1416 658 LINE"
);
},
{
closed = 1;
nodes = (
"1437 789 LINE",
"1437 0 LINE",
"70 0 LINE",
"70 789 LINE"
);
}
);
width = 1507;
}
);
},
{
glyphname = plus;
lastChange = "2020-06-27 14:42:29 +0000";
layers = (
{
layerId = "8A89AD82-2B0C-40F6-97CA-3AF9ED9FF3A8";
paths = (
{
closed = 1;
nodes = (
"70 253 LINE",
"70 268 LINE",
"400 268 LINE",
"400 253 LINE"
);
},
{
closed = 1;
nodes = (
"228 426 LINE",
"243 426 LINE",
"243 96 LINE",
"228 96 LINE"
);
}
);
width = 470;
},
{
layerId = "18468F94-9FC9-4171-B83A-16111EF84EF0";
paths = (
{
closed = 1;
nodes = (
"70 241 LINE",
"70 281 LINE",
"400 281 LINE",
"400 241 LINE"
);
},
{
closed = 1;
nodes = (
"215 426 LINE",
"255 426 LINE",
"255 96 LINE",
"215 96 LINE"
);
}
);
width = 470;
}
);
unicode = 002B;
},
{
glyphname = equal;
lastChange = "2020-06-27 14:43:43 +0000";
layers = (
{
layerId = "8A89AD82-2B0C-40F6-97CA-3AF9ED9FF3A8";
paths = (
{
closed = 1;
nodes = (
"70 189 LINE",
"400 189 LINE",
"400 174 LINE",
"70 174 LINE"
);
},
{
closed = 1;
nodes = (
"70 332 LINE",
"70 347 LINE",
"400 347 LINE",
"400 332 LINE"
);
}
);
width = 470;
},
{
layerId = "18468F94-9FC9-4171-B83A-16111EF84EF0";
paths = (
{
closed = 1;
nodes = (
"70 189 LINE",
"400 189 LINE",
"400 149 LINE",
"70 149 LINE"
);
},
{
closed = 1;
nodes = (
"70 332 LINE",
"70 372 LINE",
"400 372 LINE",
"400 332 LINE"
);
}
);
width = 470;
}
);
unicode = 003D;
},
{
glyphname = greater;
lastChange = "2020-06-27 14:31:53 +0000";
layers = (
{
layerId = "8A89AD82-2B0C-40F6-97CA-3AF9ED9FF3A8";
paths = (
{
closed = 1;
nodes = (
"236 200 LINE",
"236 117 LINE",
"70 117 LINE",
"70 132 LINE",
"153 132 LINE",
"153 215 LINE",
"276 215 LINE",
"276 356 LINE",
"153 356 LINE",
"153 439 LINE",
"70 439 LINE",
"70 454 LINE",
"236 454 LINE",
"236 371 LINE",
"359 371 LINE",
"359 200 LINE"
);
}
);
width = 429;
},
{
layerId = "18468F94-9FC9-4171-B83A-16111EF84EF0";
paths = (
{
closed = 1;
nodes = (
"240 200 LINE",
"240 117 LINE",
"70 117 LINE",
"70 157 LINE",
"155 157 LINE",
"155 240 LINE",
"280 240 LINE",
"280 331 LINE",
"155 331 LINE",
"155 414 LINE",
"70 414 LINE",
"70 454 LINE",
"240 454 LINE",
"240 371 LINE",
"365 371 LINE",
"365 200 LINE"
);
}
);
width = 435;
}
);
unicode = 003E;
},
{
glyphname = less;
lastChange = "2020-06-27 14:30:11 +0000";
layers = (
{
layerId = "8A89AD82-2B0C-40F6-97CA-3AF9ED9FF3A8";
paths = (
{
closed = 1;
nodes = (
"70 371 LINE",
"193 371 LINE",
"193 454 LINE",
"359 454 LINE",
"359 439 LINE",
"276 439 LINE",
"276 356 LINE",
"153 356 LINE",
"153 215 LINE",
"276 215 LINE",
"276 132 LINE",
"359 132 LINE",
"359 117 LINE",
"193 117 LINE",
"193 200 LINE",
"70 200 LINE"
);
}
);
width = 429;
},
{
layerId = "18468F94-9FC9-4171-B83A-16111EF84EF0";
paths = (
{
closed = 1;
nodes = (
"70 371 LINE",
"195 371 LINE",
"195 454 LINE",
"365 454 LINE",
"365 414 LINE",
"280 414 LINE",
"280 331 LINE",
"155 331 LINE",
"155 240 LINE",
"280 240 LINE",
"280 157 LINE",
"365 157 LINE",
"365 117 LINE",
"195 117 LINE",
"195 200 LINE",
"70 200 LINE"
);
}
);
width = 435;
}
);
unicode = 003C;
},
{
glyphname = percent;
lastChange = "2020-07-01 09:30:10 +0000";
layers = (
{
layerId = "8A89AD82-2B0C-40F6-97CA-3AF9ED9FF3A8";
paths = (
{
closed = 1;
nodes = (
"235 269 LINE",
"318 269 LINE",
"318 531 LINE",
"401 531 LINE",
"401 784 LINE",
"484 784 LINE",
"484 515 LINE",
"401 515 LINE",
"401 253 LINE",
"318 253 LINE",
"318 0 LINE",
"235 0 LINE"
);
},
{
closed = 1;
nodes = (
"70 784 LINE",
"70 392 LINE",
"235 392 LINE",
"235 784 LINE"
);
},
{
closed = 1;
nodes = (
"111 760 LINE",
"193 760 LINE",
"193 416 LINE",
"111 416 LINE"
);
},
{
closed = 1;
nodes = (
"484 392 LINE",
"484 0 LINE",
"649 0 LINE",
"649 392 LINE"
);
},
{
closed = 1;
nodes = (
"525 368 LINE",
"607 368 LINE",
"607 24 LINE",
"525 24 LINE"
);
}
);
width = 719;
},
{
layerId = "18468F94-9FC9-4171-B83A-16111EF84EF0";
paths = (
{
closed = 1;
nodes = (
"494 392 LINE",
"494 0 LINE",
"659 0 LINE",
"659 392 LINE"
);
},
{
closed = 1;
nodes = (
"536 367 LINE",
"616 367 LINE",
"616 25 LINE",
"536 25 LINE"
);
},
{
closed = 1;
nodes = (
"70 784 LINE",
"70 392 LINE",
"235 392 LINE",
"235 784 LINE"
);
},
{
closed = 1;
nodes = (
"112 759 LINE",
"192 759 LINE",
"192 417 LINE",
"112 417 LINE"
);
},
{
closed = 1;
nodes = (
"235 281 LINE",
"320 281 LINE",
"320 543 LINE",
"405 543 LINE",
"405 784 LINE",
"490 784 LINE",
"490 503 LINE",
"405 503 LINE",
"405 241 LINE",
"320 241 LINE",
"320 0 LINE",
"235 0 LINE"
);
}
);
width = 729;
}
);
unicode = 0025;
},
{
glyphname = squaredtimes;
lastChange = "2020-06-27 14:22:13 +0000";
layers = (
{
layerId = "8A89AD82-2B0C-40F6-97CA-3AF9ED9FF3A8";
paths = (
{
closed = 1;
nodes = (
"70 0 LINE",
"670 0 LINE",
"670 570 LINE",
"70 570 LINE"
);
},
{
closed = 1;
nodes = (
"554 522 LINE",
"153 84 LINE",
"153 522 LINE"
);
},
{
closed = 1;
nodes = (
"185 48 LINE",
"587 486 LINE",
"587 48 LINE"
);
}
);
width = 740;
},
{
layerId = "18468F94-9FC9-4171-B83A-16111EF84EF0";
paths = (
{
closed = 1;
nodes = (
"70 0 LINE",
"670 0 LINE",
"670 570 LINE",
"70 570 LINE"
);
},
{
closed = 1;
nodes = (
"585 520 LINE",
"584 555 LINE",
"123 51 LINE",
"155 48 LINE",
"155 520 LINE"
);
},
{
closed = 1;
nodes = (
"155 50 LINE",
"155 15 LINE",
"617 519 LINE",
"585 522 LINE",
"585 50 LINE"
);
}
);
width = 740;
}
);
unicode = 22A0;
},
{
glyphname = heartBlackSuit;
lastChange = "2020-06-27 14:11:40 +0000";
layers = (
{
layerId = "8A89AD82-2B0C-40F6-97CA-3AF9ED9FF3A8";
paths = (
{
closed = 1;
nodes = (
"929 570 LINE",
"861 570 LINE",
"861 660 LINE",
"801 660 LINE",
"801 784 LINE",
"601 784 LINE",
"601 660 LINE",
"541 660 LINE",
"541 570 LINE",
"458 570 LINE",
"458 660 LINE",
"398 660 LINE",
"398 784 LINE",
"198 784 LINE",
"198 660 LINE",
"138 660 LINE",
"138 570 LINE",
"70 570 LINE",
"70 310 LINE",
"194 310 LINE",
"194 201 LINE",
"318 201 LINE",
"318 121 LINE",
"443 121 LINE",
"443 0 LINE",
"556 0 LINE",
"556 121 LINE",
"681 121 LINE",
"681 201 LINE",
"805 201 LINE",
"805 310 LINE",
"929 310 LINE"
);
},
{
closed = 1;
nodes = (
"722 216 LINE",
"598 216 LINE",
"598 136 LINE",
"541 136 LINE",
"541 48 LINE",
"458 48 LINE",
"458 136 LINE",
"401 136 LINE",
"401 216 LINE",
"277 216 LINE",
"277 325 LINE",
"153 325 LINE",
"153 645 LINE",
"213 645 LINE",
"213 736 LINE",
"383 736 LINE",
"383 645 LINE",
"443 645 LINE",
"443 522 LINE",
"556 522 LINE",
"556 645 LINE",
"616 645 LINE",
"616 736 LINE",
"786 736 LINE",
"786 645 LINE",
"846 645 LINE",
"846 325 LINE",
"722 325 LINE"
);
}
);
width = 999;
},
{
layerId = "18468F94-9FC9-4171-B83A-16111EF84EF0";
paths = (
{
closed = 1;
nodes = (
"1085 570 LINE",
"1015 570 LINE",
"1015 673 LINE",
"930 673 LINE",
"930 784 LINE",
"705 784 LINE",
"705 673 LINE",
"620 673 LINE",
"620 570 LINE",
"535 570 LINE",
"535 673 LINE",
"450 673 LINE",
"450 784 LINE",
"225 784 LINE",
"225 673 LINE",
"140 673 LINE",
"140 570 LINE",
"70 570 LINE",
"70 285 LINE",
"245 285 LINE",
"245 176 LINE",
"370 176 LINE",
"370 96 LINE",
"495 96 LINE",
"495 0 LINE",
"660 0 LINE",
"660 96 LINE",
"785 96 LINE",
"785 176 LINE",
"910 176 LINE",
"910 285 LINE",
"1085 285 LINE"
);
},
{
closed = 1;
nodes = (
"825 216 LINE",
"700 216 LINE",
"700 136 LINE",
"620 136 LINE",
"620 50 LINE",
"535 50 LINE",
"535 136 LINE",
"455 136 LINE",
"455 216 LINE",
"330 216 LINE",
"330 325 LINE",
"180 325 LINE",
"180 633 LINE",
"265 633 LINE",
"265 734 LINE",
"410 734 LINE",
"410 633 LINE",
"495 633 LINE",
"495 520 LINE",
"660 520 LINE",
"660 633 LINE",
"745 633 LINE",
"745 734 LINE",
"890 734 LINE",
"890 633 LINE",
"975 633 LINE",
"975 325 LINE",
"825 325 LINE"
);
}
);
width = 1155;
}
);
unicode = 2665;
},
{
glyphname = at;
lastChange = "2020-01-09 19:24:44 +0000";
layers = (
{
layerId = "8A89AD82-2B0C-40F6-97CA-3AF9ED9FF3A8";
paths = (
{
closed = 1;
nodes = (
"70 784 LINE",
"70 0 LINE",
"110 0 LINE",
"110 736 LINE",
"752 736 LINE",
"752 268 LINE",
"605 268 LINE",
"605 570 LINE",
"275 570 LINE",
"275 522 LINE",
"522 522 LINE",
"522 268 LINE",
"275 268 LINE",
"275 0 LINE",
"605 0 LINE",
"605 253 LINE",
"767 253 LINE",
"767 784 LINE"
);
},
{
closed = 1;
nodes = (
"290 48 LINE",
"290 253 LINE",
"522 253 LINE",
"522 48 LINE"
);
}
);
width = 837;
},
{
layerId = "18468F94-9FC9-4171-B83A-16111EF84EF0";
paths = (
{
closed = 1;
nodes = (
"70 784 LINE",
"70 0 LINE",
"110 0 LINE",
"110 734 LINE",
"727 734 LINE",
"727 281 LINE",
"605 281 LINE",
"605 570 LINE",
"275 570 LINE",
"275 520 LINE",
"520 520 LINE",
"520 281 LINE",
"275 281 LINE",
"275 0 LINE",
"605 0 LINE",
"605 241 LINE",
"767 241 LINE",
"767 784 LINE"
);
},
{
closed = 1;
nodes = (
"315 50 LINE",
"315 241 LINE",
"520 241 LINE",
"520 50 LINE"
);
}
);
width = 837;
}
);
unicode = 0040;
},
{
glyphname = ampersand;
lastChange = "2020-05-07 09:25:39 +0000";
layers = (
{
layerId = "8A89AD82-2B0C-40F6-97CA-3AF9ED9FF3A8";
paths = (
{
closed = 1;
nodes = (
"70 570 LINE",
"153 570 LINE",
"153 48 LINE",
"468 48 LINE",
"468 253 LINE",
"428 253 LINE",
"428 268 LINE",
"523 268 LINE",
"523 253 LINE",
"483 253 LINE",
"483 0 LINE",
"70 0 LINE"
);
},
{
closed = 1;
nodes = (
"483 522 LINE",
"483 570 LINE",
"236 570 LINE",
"236 736 LINE",
"483 736 LINE",
"483 784 LINE",
"153 784 LINE",
"153 522 LINE"
);
}
);
width = 593;
},
{
layerId = "18468F94-9FC9-4171-B83A-16111EF84EF0";
paths = (
{
closed = 1;
nodes = (
"70 570 LINE",
"155 570 LINE",
"155 50 LINE",
"445 50 LINE",
"445 241 LINE",
"405 241 LINE",
"405 281 LINE",
"525 281 LINE",
"525 241 LINE",
"485 241 LINE",
"485 0 LINE",
"70 0 LINE"
);
},
{
closed = 1;
nodes = (
"485 520 LINE",
"485 570 LINE",
"240 570 LINE",
"240 734 LINE",
"485 734 LINE",
"485 784 LINE",
"155 784 LINE",
"155 520 LINE"
);
}
);
width = 595;
}
);
unicode = 0026;
},
{
glyphname = degree;
lastChange = "2020-06-30 12:07:40 +0000";
layers = (
{
layerId = "8A89AD82-2B0C-40F6-97CA-3AF9ED9FF3A8";
paths = (
{
closed = 1;
nodes = (
"203 701 LINE",
"203 784 LINE",
"70 784 LINE",
"70 701 LINE"
);
},
{
closed = 1;
nodes = (
"110 716 LINE",
"110 769 LINE",
"163 769 LINE",
"163 716 LINE"
);
}
);
width = 273;
},
{
layerId = "18468F94-9FC9-4171-B83A-16111EF84EF0";
paths = (
{
closed = 1;
nodes = (
"203 701 LINE",
"203 784 LINE",
"70 784 LINE",
"70 701 LINE"
);
},
{
closed = 1;
nodes = (
"110 716 LINE",
"110 769 LINE",
"163 769 LINE",
"163 716 LINE"
);
}
);
width = 273;
}
);
unicode = 00B0;
},
{
glyphname = dieresis;
lastChange = "2020-06-29 15:21:13 +0000";
layers = (
{
layerId = "8A89AD82-2B0C-40F6-97CA-3AF9ED9FF3A8";
paths = (
{
closed = 1;
nodes = (
"236 784 LINE",
"236 736 LINE",
"319 736 LINE",
"319 784 LINE"
);
},
{
closed = 1;
nodes = (
"70 784 LINE",
"70 736 LINE",
"153 736 LINE",
"153 784 LINE"
);
}
);
width = 389;
},
{
layerId = "18468F94-9FC9-4171-B83A-16111EF84EF0";
paths = (
{
closed = 1;
nodes = (
"240 784 LINE",
"240 734 LINE",
"325 734 LINE",
"325 784 LINE"
);
},
{
closed = 1;
nodes = (
"70 784 LINE",
"70 734 LINE",
"155 734 LINE",
"155 784 LINE"
);
}
);
width = 395;
}
);
unicode = 00A8;
},
{
glyphname = grave;
lastChange = "2020-06-29 15:22:09 +0000";
layers = (
{
layerId = "8A89AD82-2B0C-40F6-97CA-3AF9ED9FF3A8";
paths = (
{
closed = 1;
nodes = (
"235 736 LINE",
"235 784 LINE",
"70 784 LINE",
"70 736 LINE"
);
}
);
width = 470;
},
{
layerId = "18468F94-9FC9-4171-B83A-16111EF84EF0";
paths = (
{
closed = 1;
nodes = (
"235 734 LINE",
"235 784 LINE",
"70 784 LINE",
"70 734 LINE"
);
}
);
width = 470;
}
);
unicode = 0060;
},
{
glyphname = acute;
lastChange = "2020-06-29 15:22:50 +0000";
layers = (
{
layerId = "8A89AD82-2B0C-40F6-97CA-3AF9ED9FF3A8";
paths = (
{
closed = 1;
nodes = (
"400 736 LINE",
"400 784 LINE",
"235 784 LINE",
"235 736 LINE"
);
}
);
width = 470;
},
{
layerId = "18468F94-9FC9-4171-B83A-16111EF84EF0";
paths = (
{
closed = 1;
nodes = (
"400 734 LINE",
"400 784 LINE",
"235 784 LINE",
"235 734 LINE"
);
}
);
width = 470;
}
);
unicode = 00B4;
},
{
glyphname = circumflex;
lastChange = "2020-06-29 15:23:10 +0000";
layers = (
{
layerId = "8A89AD82-2B0C-40F6-97CA-3AF9ED9FF3A8";
paths = (
{
closed = 1;
nodes = (
"70 736 LINE",
"70 784 LINE",
"400 784 LINE",
"400 736 LINE"
);
}
);
width = 470;
},
{
layerId = "18468F94-9FC9-4171-B83A-16111EF84EF0";
paths = (
{
closed = 1;
nodes = (
"70 734 LINE",
"70 784 LINE",
"400 784 LINE",
"400 734 LINE"
);
}
);
width = 470;
}
);
unicode = 02C6;
},
{
glyphname = tilde;
lastChange = "2020-06-29 15:19:36 +0000";
layers = (
{
layerId = "8A89AD82-2B0C-40F6-97CA-3AF9ED9FF3A8";
paths = (
{
closed = 1;
nodes = (
"85 689 LINE",
"85 744 LINE",
"168 744 LINE",
"168 689 LINE",
"281 689 LINE",
"281 784 LINE",
"266 784 LINE",
"266 729 LINE",
"183 729 LINE",
"183 784 LINE",
"70 784 LINE",
"70 689 LINE"
);
}
);
width = 351;
},
{
layerId = "18468F94-9FC9-4171-B83A-16111EF84EF0";
paths = (
{
closed = 1;
nodes = (
"85 689 LINE",
"85 744 LINE",
"170 744 LINE",
"170 689 LINE",
"285 689 LINE",
"285 784 LINE",
"270 784 LINE",
"270 729 LINE",
"185 729 LINE",
"185 784 LINE",
"70 784 LINE",
"70 689 LINE"
);
}
);
width = 355;
}
);
unicode = 02DC;
},
{
glyphname = cedilla;
lastChange = "2020-06-29 15:39:16 +0000";
layers = (
{
layerId = "8A89AD82-2B0C-40F6-97CA-3AF9ED9FF3A8";
paths = (
{
closed = 1;
nodes = (
"122 0 LINE",
"122 -145 LINE",
"182 -145 LINE",
"182 48 LINE",
"70 48 LINE",
"70 0 LINE"
);
}
